<svg width="41" height="38" viewBox="0 0 41 38" fill="none" xmlns="http://www.w3.org/2000/svg">
<path d="M40.6874 8.78582C40.4286 8.48364 40.0833 8.26815 39.6518 8.26815L34.5606 7.96628C24.5 7.5 34.5606 7.96628 24.5 7.5C14.6701 6.97391 24.5 7.5 14.6701 6.97391L10.4418 6.75811L9.66499 1.49423C9.57861 0.803813 8.97457 0.329193 8.28414 0.329193H1.38084C0.60436 0.329193 0 0.93323 0 1.71004C0 2.48652 0.604037 3.09088 1.38084 3.09088H7.07635L10.744 27.4256C10.9164 28.5473 11.4344 29.5398 12.1678 30.2733C11.3913 31.0498 10.8733 32.1285 10.8733 33.3369C10.8733 35.71 12.8148 37.6515 15.188 37.6515C17.5611 37.6515 19.5026 35.71 19.5026 33.3369C19.5026 32.8192 19.3732 32.3013 19.2005 31.8266H29.2536C29.0812 32.3012 28.9514 32.8189 28.9514 33.3369C28.9514 35.71 30.893 37.6515 33.2661 37.6515C35.6393 37.6515 37.5808 35.71 37.5808 33.3369C37.5808 31.0501 35.8117 29.1946 33.5683 29.0653C33.4819 29.0653 33.3958 29.0222 33.2661 29.0222L15.878 29.0216C14.6699 29.0216 13.6776 28.1588 13.5049 26.9938L13.203 24.7934H31.152C35.2942 24.7934 38.8753 21.8162 39.5656 17.7173L40.9894 9.86464C41.0325 9.47639 40.9465 9.088 40.6874 8.78582ZM33.2665 31.8261C34.0863 31.8261 34.7768 32.5165 34.7768 33.3364C34.7768 34.1562 34.0863 34.8467 33.2665 34.8467C32.4466 34.8467 31.7562 34.1562 31.7562 33.3364C31.7562 32.5162 32.4466 31.8261 33.2665 31.8261ZM15.1881 31.8261C16.0079 31.8261 16.6983 32.5165 16.6983 33.3364C16.6983 34.1562 16.0079 34.8467 15.1881 34.8467C14.3682 34.8467 13.6778 34.1562 13.6778 33.3364C13.6778 32.5162 14.3682 31.8261 15.1881 31.8261Z" fill="#3D5AFE"/>
</svg>
