<svg width="35" height="39" viewBox="0 0 35 39" fill="none" xmlns="http://www.w3.org/2000/svg">
<path d="M25.1229 22.8573C23.0576 24.5866 20.3673 25.6434 17.437 25.6434C14.5068 25.6434 11.8169 24.5866 9.75117 22.8573C4.17895 25.7397 0.240117 31.5998 -6.10352e-05 38.4689H34.9218C34.6337 31.6 30.6946 25.7395 25.1226 22.8573H25.1229Z" fill="#3D5AFE"/>
<path d="M17.4372 17.5254C18.7343 17.5254 19.791 18.4382 20.031 19.6391H20.175C20.6555 19.687 21.1357 19.7352 21.6162 19.7352C22.865 19.7352 24.9307 19.5432 26.5159 18.4864C27.2846 17.0452 27.6689 15.4601 27.6689 13.7308C27.6689 8.11061 23.1056 3.54723 17.4853 3.54723C11.8651 3.54723 7.30176 8.11052 7.30176 13.7308C7.30142 19.3509 11.8168 23.9143 17.4373 23.9143C19.3107 23.9143 21.0879 23.3859 22.5773 22.5215C22.145 22.5694 21.7607 22.5694 21.3284 22.5694C20.992 22.5694 20.6559 22.5694 20.3195 22.5215C19.7432 22.4736 19.2627 22.4253 18.8305 22.3295C18.3982 22.6176 17.9177 22.7617 17.4376 22.7617C15.9965 22.7617 14.7956 21.6088 14.7956 20.1197C14.7952 18.6303 15.9961 17.5256 17.4373 17.5256L17.4372 17.5254Z" fill="#3D5AFE"/>
<path d="M4.32334 18.1018H4.46742C5.04375 18.0539 5.57216 17.7654 6.0526 17.2853C5.71619 16.2285 5.52419 15.1716 5.52419 14.019C5.47628 12.674 5.66827 11.4252 6.0526 10.2244C7.54162 5.46875 11.9129 1.96223 17.1969 1.81813C22.625 1.67405 27.3324 5.27669 28.8695 10.2244C29.2059 11.2811 29.3979 12.338 29.3979 13.4906C29.4458 14.7395 29.3979 16.4687 28.6775 17.5255C26.8521 20.3116 23.1536 20.8879 20.0792 20.5518C19.791 20.5039 19.5028 20.4557 19.2147 20.4078V20.1675C19.2147 19.2069 18.446 18.4382 17.4854 18.4382C16.5248 18.4382 15.7561 19.2069 15.7561 20.1675C15.7561 21.1282 16.5248 21.8968 17.4854 21.8968C17.9659 21.8968 18.3982 21.7048 18.6863 21.4163C19.2147 21.6083 19.791 21.6566 20.4156 21.7045C23.778 21.8965 27.765 21.1281 29.7345 18.1018C29.7345 18.0539 29.7824 18.0056 29.7824 18.0056C29.9744 18.1018 30.2146 18.1497 30.407 18.1497H30.5511C32.1362 18.1497 33.4812 16.1802 33.4812 13.7784C33.4812 11.3766 32.1842 9.40706 30.5511 9.40706H30.407C28.5329 3.83518 23.2492 -0.103994 17.1483 0.0401133C15.3228 0.088028 13.5456 0.472357 11.9604 1.19305C11.8163 1.24097 10.9515 1.67355 10.8075 1.76938C10.4232 1.96137 10.0871 2.20162 9.70276 2.44186C9.55868 2.53803 9.03028 2.97027 8.8862 3.06643C6.8687 4.69955 5.33147 6.86107 4.51487 9.35901H4.37079C2.78561 9.35901 1.44061 11.3286 1.44061 13.7303C1.44061 16.1321 2.73766 18.1013 4.32292 18.1013L4.32334 18.1018Z" fill="#3D5AFE"/>
</svg>
