<svg width="39" height="39" viewBox="0 0 39 39" fill="none" xmlns="http://www.w3.org/2000/svg">
<rect x="0.197754" y="0.959488" width="37.8497" height="37.8497" rx="6.46215" fill="#3D5AFE"/>
<path d="M18.6417 8.9669C14.4029 8.9669 10.9648 12.4606 10.9648 16.7678C10.9648 21.0751 14.4029 24.5687 18.6417 24.5687C22.8804 24.5687 26.3185 21.0751 26.3185 16.7678C26.3185 12.4606 22.8804 8.9669 18.6417 8.9669ZM18.6417 25.143C14.0732 25.143 10.3525 21.3622 10.3525 16.7678C10.3525 12.1256 14.0732 8.34474 18.6417 8.34474C23.163 8.34474 26.8837 12.1256 26.8837 16.7678C26.8837 21.3622 23.163 25.143 18.6417 25.143Z" fill="white" stroke="white" stroke-width="0.923164"/>
<path d="M29.2797 30.9588L29.2919 30.9734L29.3052 30.987C29.4324 31.1162 29.6426 31.2205 29.8697 31.2205C30.007 31.2205 30.1237 31.1656 30.173 31.1405C30.2372 31.1079 30.3181 31.057 30.3871 30.987L30.0581 30.6632L30.3871 30.987C30.604 30.7665 30.7263 30.3378 30.4911 29.9793L30.4757 29.9558L30.4575 29.9343L24.6786 23.1072C24.4206 22.7498 23.9333 22.7297 23.6432 22.9825C23.2495 23.2783 23.3355 23.7705 23.5024 24.0248L23.5169 24.0469L23.5338 24.0672L29.2797 30.9588Z" fill="white" stroke="white" stroke-width="0.923164"/>
</svg>
