<svg width="245" height="171" viewBox="0 0 245 171" fill="none" xmlns="http://www.w3.org/2000/svg">
<path d="M184.619 94.2174C179.748 128.457 143.17 153.601 108.93 148.73C74.6904 143.859 59.1039 111.295 63.9747 77.0548C68.8457 42.8147 106.672 18.2748 140.912 23.1458C175.152 28.0168 189.49 59.9773 184.619 94.2174Z" fill="#B5CDFB"/>
<path d="M203.137 81.4847C201.425 80.3196 194.816 94.7194 192.725 99.9173C193.72 103.472 198.771 110.085 200.367 110.634C202.36 111.32 219.576 99.6678 221.267 97.6427C222.959 95.6179 220.49 84.5199 217.667 82.5541C215.409 80.9817 208.72 86.6121 204.609 91.3152C204.123 86.3418 204.849 82.6502 203.137 81.4847Z" fill="#DAC3A1"/>
<path fill-rule="evenodd" clip-rule="evenodd" d="M162.691 136.627C151.794 146.001 137.673 151.794 118.591 150.481C109.077 149.826 103.092 147.941 99.8216 145.071C98.1781 143.629 97.2227 141.94 96.8545 140.048C96.4875 138.163 96.7074 136.096 97.3794 133.895C98.7215 129.502 101.887 124.51 105.944 119.238C110.005 113.961 114.983 108.374 119.972 102.79L120.348 102.37C125.216 96.923 130.075 91.4865 134.104 86.3352C138.239 81.047 141.478 76.0852 142.959 71.7441C144.436 67.4131 144.146 63.7636 141.324 60.9952C138.468 58.1934 132.962 56.2285 123.819 55.4724C94.6029 53.0562 70.7309 62.8881 53.6113 76.4245C36.4809 89.9692 26.1363 107.202 23.9492 119.55C23.9204 119.712 23.7656 119.82 23.6033 119.792C23.441 119.763 23.3328 119.608 23.3616 119.446C25.5806 106.917 36.0292 89.5655 53.241 75.9563C70.4636 62.3385 94.4824 52.4475 123.868 54.8778C133.038 55.6363 138.728 57.613 141.742 60.5694C144.789 63.5595 145.042 67.485 143.524 71.9365C142.009 76.3776 138.717 81.4048 134.573 86.7028C130.533 91.8699 125.662 97.3192 120.799 102.76L120.417 103.188C115.425 108.775 110.462 114.345 106.417 119.602C102.367 124.864 99.2589 129.785 97.9502 134.07C97.297 136.209 97.0974 138.173 97.4402 139.934C97.7822 141.69 98.6663 143.263 100.215 144.623C103.33 147.356 109.144 149.232 118.632 149.885C137.553 151.188 151.521 145.449 162.302 136.175C173.094 126.891 180.705 114.053 186.879 101.139C189.676 95.2884 192.174 89.4288 194.54 83.8804C194.785 83.3066 195.028 82.7358 195.27 82.1689C197.851 76.1255 200.292 70.4977 202.809 65.7368C205.325 60.9791 207.93 57.0613 210.848 54.4529C213.775 51.8361 217.031 50.5283 220.818 51.0239C226.832 51.8107 230.994 55.4895 233.757 60.8887C236.514 66.2768 237.889 73.3965 238.351 81.1332C239.273 96.6103 236.541 114.665 233.738 126.568C233.7 126.729 233.539 126.828 233.379 126.79C233.218 126.752 233.119 126.592 233.157 126.431C235.953 114.56 238.673 96.5667 237.755 81.1687C237.296 73.4675 235.928 66.4427 233.225 61.1605C230.528 55.889 226.513 52.3708 220.741 51.6156C217.162 51.1474 214.074 52.3696 211.246 54.8978C208.408 57.4346 205.842 61.2772 203.337 66.0158C200.833 70.7514 198.401 76.3565 195.819 82.4032C195.577 82.9704 195.333 83.5415 195.088 84.1159C192.723 89.6625 190.22 95.5337 187.417 101.396C181.233 114.334 173.578 127.262 162.691 136.627Z" fill="#204EA9"/>
<path fill-rule="evenodd" clip-rule="evenodd" d="M204.369 85.9836L197.493 89.4449C197.153 90.1204 196.814 90.8091 196.482 91.4983L210.547 105.4C213.326 103.615 216.126 101.69 218.186 100.169L207.699 88.0866C206.59 89.148 205.533 90.2553 204.606 91.3154C204.449 89.7113 204.418 88.2406 204.391 86.945C204.384 86.6129 204.378 86.2922 204.369 85.9836Z" fill="#030C23" fill-opacity="0.2"/>
<path fill-rule="evenodd" clip-rule="evenodd" d="M130.033 97.2402C120.829 96.5769 111.165 97.1644 104.223 98.6121C103.011 98.8651 102.004 99.3357 99.2689 103.412C98.8643 104.016 98.4245 104.698 97.9438 105.443C95.421 109.355 91.7742 115.01 86.1769 120.172C82.2179 123.823 77.6378 126.615 72.4835 127.766C67.1795 128.95 61.9083 128.244 57.1035 125.891C48.0052 121.435 41.5274 111.639 36.9985 99.9853L55.3544 92.8519C59.2763 102.943 63.3629 107.028 65.7655 108.205C66.7111 108.668 67.4245 108.717 68.1919 108.546C69.1091 108.341 70.687 107.667 72.8264 105.695C76.4311 102.371 78.5637 99.0949 81.0525 95.272C81.645 94.362 82.2576 93.4209 82.9153 92.4407C86.1291 87.6502 90.9149 81.2711 100.202 79.334C109.22 77.4527 120.746 76.8267 131.448 77.598C141.717 78.338 153.24 80.4905 160.905 85.6331C170.232 91.8914 175.562 99.2796 178.563 105.342C182.234 103.444 187.019 100.456 192.5 95.8127L205.23 110.838C196.011 118.648 187.98 122.954 182.356 125.287C177.511 127.296 172.676 126.432 169.062 124.348C165.604 122.353 163.069 119.198 161.674 115.763C160.255 112.272 157.076 106.779 149.933 101.987C146.771 99.8653 139.67 97.9348 130.033 97.2402Z" fill="#204EA9"/>
<path d="M150.349 50.3841C148.822 49.6512 147.678 51.0456 147.296 51.8342L146.456 56.3371C146.584 57.3292 146.137 58.5875 147.296 59.4781C149.466 61.1458 151.112 54.7345 151.57 53.9712C152.028 53.2079 152.257 51.2998 150.349 50.3841Z" fill="#204EA9"/>
<path fill-rule="evenodd" clip-rule="evenodd" d="M38.2502 103.04C37.8173 102.038 37.4005 101.019 36.9985 99.9852L55.3544 92.8518C56.5467 95.9198 57.7542 98.4327 58.9251 100.477C58.8141 100.884 58.6694 101.257 58.488 101.592C55.821 106.514 46.0696 106.021 38.2502 103.04Z" fill="#030C23" fill-opacity="0.2"/>
<path d="M40.0621 102.918C33.967 100.863 27.6608 97.3468 25.9934 93.2145L45.9978 92.6419C49.2165 92.5828 55.7426 92.8012 56.0971 94.1478C56.5399 95.831 47.681 105.488 40.0621 102.918Z" fill="#625F5E"/>
<path d="M119.219 50.3841C120.745 49.6512 121.89 51.0456 122.272 51.8342L123.111 56.3371C122.984 57.3292 124.27 58.4231 123.111 59.3137C120.942 60.9811 118.456 54.7345 117.998 53.9712C117.54 53.2079 117.311 51.2998 119.219 50.3841Z" fill="#204EA9"/>
<path d="M10.3577 31.0845L63.6163 41.0722L75.0127 98.6887L21.7541 88.7007L10.3577 31.0845Z" fill="#6DECF3"/>
<path d="M66.6632 37.5378L63.6134 41.0725L75.0098 98.689L78.0595 95.1541L66.6632 37.5378Z" fill="#204EA9"/>
<path d="M66.6627 37.5603L63.6589 41.0845L10.3577 31.0896L13.4833 27.947L66.6627 37.5603Z" fill="#204EA9"/>
<path d="M127.922 77.8087C130.29 75.276 128.053 68.2345 126.638 65.0302C130.458 64.9878 138.432 65.3611 139.763 67.1941C141.428 69.4853 140.622 81.8595 137.54 83.8082C136.161 84.6801 132.68 84.4307 129.129 83.8303C126.795 83.4356 126.306 79.5378 127.922 77.8087Z" fill="#DAC3A1"/>
<path d="M161.867 94.2127C149.977 94.0161 104.309 84.9393 100.295 89.7406C95.2768 95.7419 91.9788 125.058 101.707 130.262C106.058 132.59 140.416 132.306 151.423 130.803C170.71 128.169 157.456 103.097 161.867 94.2127Z" fill="#204EA9"/>
<path fill-rule="evenodd" clip-rule="evenodd" d="M101.389 88.6348C100.801 88.8425 100.314 89.1182 99.9996 89.4942C98.6832 91.0687 97.5204 94.1036 96.656 97.7844C95.7868 101.485 95.2049 105.901 95.0865 110.29C94.968 114.678 95.3115 119.058 96.3054 122.681C97.2957 126.291 98.9532 129.226 101.525 130.602C102.134 130.928 103.207 131.185 104.582 131.396C105.974 131.611 107.728 131.786 109.736 131.925C113.753 132.203 118.809 132.339 124.068 132.355C134.58 132.387 145.944 131.94 151.475 131.185C156.397 130.513 159.304 128.393 160.91 125.407C162.5 122.452 162.784 118.705 162.608 114.835C162.499 112.44 162.209 109.948 161.929 107.542C161.757 106.074 161.59 104.637 161.47 103.274C161.148 99.6242 161.163 96.496 162.212 94.3843L162.483 93.8386L161.873 93.8285C158.928 93.7798 153.868 93.1792 147.846 92.3747C145.643 92.0805 143.312 91.7592 140.913 91.4283C136.769 90.8569 132.421 90.2574 128.176 89.7209C121.472 88.8741 115.001 88.1816 109.951 88.002C107.427 87.9122 105.243 87.95 103.557 88.1649C102.714 88.2723 101.982 88.4254 101.389 88.6348ZM161.282 94.5825C160.37 96.874 160.407 99.982 160.704 103.342C160.828 104.752 160.997 106.208 161.17 107.683C161.447 110.062 161.731 112.493 161.839 114.87C162.014 118.707 161.72 122.278 160.232 125.042C158.762 127.775 156.093 129.777 151.371 130.422C145.896 131.17 134.577 131.617 124.07 131.585C118.82 131.569 113.783 131.433 109.789 131.157C107.792 131.019 106.062 130.845 104.699 130.636C103.319 130.423 102.367 130.18 101.888 129.923C99.5959 128.697 98.0181 126.016 97.0474 122.478C96.0807 118.953 95.7385 114.654 95.8557 110.311C95.973 105.971 96.5486 101.607 97.4052 97.9604C98.2663 94.2939 99.3975 91.414 100.59 89.9877C100.778 89.7633 101.117 89.5473 101.646 89.3605C102.168 89.1758 102.841 89.032 103.654 88.9284C105.28 88.7214 107.415 88.682 109.923 88.7712C114.937 88.9493 121.378 89.638 128.079 90.4845C132.322 91.0207 136.66 91.6186 140.8 92.1898C143.2 92.5207 145.534 92.8423 147.744 93.1377C153.383 93.8908 158.228 94.4727 161.282 94.5825Z" fill="#204EA9"/>
<path d="M113.433 103.863L114.889 104.257L113.349 108.942L111.988 108.298L113.433 103.863Z" fill="#6DECF3"/>
<path d="M114.893 104.262L115.003 101.562L113.43 103.873L114.893 104.262Z" fill="#F4F2E3"/>
<path fill-rule="evenodd" clip-rule="evenodd" d="M114.411 105.719L113.008 105.152L113.104 104.867L114.509 105.442L114.411 105.719Z" fill="#F4F2E3"/>
<path fill-rule="evenodd" clip-rule="evenodd" d="M58.2997 95.5543L29.6676 90.1846C26.7661 84.5739 30.0692 74.6998 31.926 69.5504C33.3887 70.8591 35.2238 69.8756 36.9443 68.9536C37.584 68.6108 38.2079 68.2766 38.7906 68.0716C39.9164 67.6762 40.1336 67.9033 40.5054 68.2915C40.9172 68.7218 41.5187 69.3501 43.7545 69.5504C44.8913 69.9905 45.4795 71.1986 46.0285 72.3259C46.7491 73.8065 47.4022 75.148 49.1409 74.4286C51.3925 77.046 52.3476 80.1029 53.4793 83.7247C54.5392 87.117 55.7542 91.0049 58.334 95.4916C58.3227 95.5125 58.3113 95.5334 58.2997 95.5543Z" fill="black" fill-opacity="0.42"/>
<path d="M47.5448 100.251C52.466 100.025 51.06 92.3089 51.06 92.3089C51.06 92.3089 52.298 80.1006 50.1502 75.493C49.6546 74.4296 48.2275 74.0945 47.5448 75.3644C46.8624 76.6343 45.3508 86.1363 44.64 87.6869C45.0064 85.3261 48.385 69.6167 44.3527 69.2488C41.9785 69.0321 39.9468 83.0793 39.3068 86.0193C39.1629 83.4413 42.5794 68.2543 39.1868 67.8553C35.9625 67.4764 33.9651 81.7139 33.6071 84.6936C33.2749 82.7827 34.809 70.3265 32.5127 69.8757C29.39 69.2628 25.0839 88.1581 25.3072 90.3175C26.367 100.571 41.436 100.532 47.5448 100.251Z" fill="#DAC3A1"/>
<path fill-rule="evenodd" clip-rule="evenodd" d="M140.5 69.8924C140.693 71.7093 140.639 74.0999 140.344 76.3992C139.284 76.7328 138.031 76.8402 136.56 76.6069C132.729 75.9994 130.256 74.1202 128.803 72.3117C128.668 71.3688 128.453 70.4 128.199 69.4648L140.5 69.8924Z" fill="#1D1D1D"/>
<path d="M148.196 49.1459C148.506 59.0101 145.223 74.0345 135.359 74.3445C125.494 74.6545 121.608 59.8554 121.298 49.9912C120.988 40.127 123.009 35.2001 132.873 34.8901C142.738 34.5801 147.886 39.2817 148.196 49.1459Z" fill="#DAC3A1"/>
<path d="M129.382 37.4437C128.169 36.9991 127.915 35.4708 127.915 35.4708C128.101 35.1339 129.123 35.4708 129.123 35.4708L137.107 35.8243L144.99 38.0479L147.264 42.4947L148.275 46.9417C148.393 49.1987 148.558 53.3593 148.275 51.9444C147.921 50.1759 146.331 43.6091 144.158 41.1836C141.985 38.758 134.341 39.262 129.382 37.4437Z" fill="#030C23" fill-opacity="0.2"/>
<path d="M147.338 25.5846C153.389 28.9301 146.65 42.1979 146.65 42.1979C146.65 42.1979 143.551 37.7216 136.062 37.7216C132.15 37.7216 127.296 36.5695 127.296 36.5695C125.402 29.0807 142.971 23.1698 147.338 25.5846Z" fill="#204EA9"/>
<path d="M123.864 35.7471C126.143 34.3937 128.821 35.1157 129.549 36.2943C126.149 36.7043 123.93 44.8221 124.196 47.1805L121.364 51.6998C121.364 51.6998 117.893 39.2931 123.864 35.7471Z" fill="#204EA9"/>
<path d="M148.245 51.2737C147.883 48.2824 146.497 43.5725 145.53 40.7188C146.641 41.0658 147.873 40.8945 148.357 42.7093C149.107 45.5149 148.974 50.6047 148.245 51.2737Z" fill="#204EA9"/>
<path fill-rule="evenodd" clip-rule="evenodd" d="M162.265 117.098C161.347 115.503 160.353 113.866 159.499 112.459C158.793 111.296 158.181 110.289 157.788 109.593C157.788 121.455 154.771 127.457 152.917 130.541C160.359 128.922 162.201 123.461 162.265 117.098Z" fill="black" fill-opacity="0.24"/>
<path d="M106.051 103.504L107.544 103.295L107.904 107.388L106.35 107.243L106.051 103.504Z" fill="#6DECF3"/>
<path d="M107.551 103.302L106.591 100.772L106.051 103.515L107.551 103.302Z" fill="#B5CDFB"/>
<path d="M109.613 104.664L111.501 104.972L111.031 108.45L109.202 107.691L109.613 104.664Z" fill="#B5CDFB"/>
<path d="M111.499 104.974L110.797 103.306L109.602 104.668L111.499 104.974Z" fill="#6DECF3"/>
<path d="M115.536 119.885C118.578 119.57 117.965 111.792 117.742 108.156C112.624 108.778 107.487 107.303 103.621 104.996C102.475 106.091 101.156 112.948 102.128 116.356C103.342 120.616 111.733 120.279 115.536 119.885Z" fill="#081D52" fill-opacity="0.08"/>
<path fill-rule="evenodd" clip-rule="evenodd" d="M117.799 107.682C117.695 107.283 117.288 107.044 116.889 107.147C114.606 107.74 108.92 108.093 104.578 104.838C104.248 104.591 103.78 104.658 103.533 104.987C103.286 105.317 103.353 105.785 103.683 106.032C108.527 109.664 114.744 109.245 117.264 108.591C117.663 108.488 117.902 108.081 117.799 107.682Z" fill="#0E3A47"/>
<path fill-rule="evenodd" clip-rule="evenodd" d="M133.783 52.2553C133.622 52.2207 133.463 52.323 133.429 52.4841C133.179 53.6412 132.855 55.4226 132.696 57.007C132.616 57.7983 132.576 58.5508 132.61 59.1565C132.627 59.4588 132.663 59.7351 132.726 59.9654C132.786 60.1886 132.883 60.4088 133.051 60.5547C133.945 61.329 135.097 61.4209 135.579 61.3702C135.743 61.3529 135.861 61.2061 135.844 61.0423C135.827 60.8785 135.68 60.7594 135.516 60.7767C135.141 60.8164 134.172 60.7371 133.442 60.1036C133.407 60.0735 133.351 59.9905 133.301 59.8088C133.254 59.6342 133.222 59.4039 133.206 59.1234C133.175 58.563 133.211 57.8457 133.29 57.067C133.446 55.5115 133.765 53.7534 134.012 52.61C134.047 52.4489 133.944 52.2902 133.783 52.2553Z" fill="#204EA9"/>
<path fill-rule="evenodd" clip-rule="evenodd" d="M125.382 50.8519C125.01 51.1446 124.772 51.4083 124.67 51.5936C124.551 51.8103 124.278 51.889 124.062 51.77C123.845 51.6506 123.766 51.3785 123.885 51.1619C124.073 50.822 124.42 50.4696 124.829 50.1483C125.246 49.8201 125.76 49.4972 126.319 49.2254C127.419 48.6904 128.779 48.3105 129.942 48.5734C130.183 48.6277 130.334 48.8673 130.28 49.1084C130.225 49.3495 129.986 49.5011 129.744 49.4465C128.875 49.2502 127.741 49.5291 126.711 50.0304C126.205 50.2763 125.746 50.5657 125.382 50.8519Z" fill="#204EA9"/>
<path fill-rule="evenodd" clip-rule="evenodd" d="M145.147 51.9011C145.486 52.2317 145.695 52.5194 145.777 52.7142C145.873 52.9422 146.135 53.0493 146.363 52.9538C146.591 52.858 146.699 52.5957 146.603 52.3678C146.453 52.01 146.144 51.623 145.772 51.2602C145.392 50.8896 144.915 50.5142 144.388 50.1845C143.351 49.5361 142.039 49.0146 140.855 49.1527C140.609 49.1814 140.433 49.4037 140.462 49.6492C140.491 49.8948 140.713 50.0705 140.958 50.0419C141.844 49.9387 142.941 50.3361 143.913 50.9436C144.39 51.2417 144.816 51.5783 145.147 51.9011Z" fill="#204EA9"/>
<path fill-rule="evenodd" clip-rule="evenodd" d="M135.018 66.5504C134.113 66.5161 133.316 66.1771 132.874 65.8856C132.667 65.7495 132.39 65.8065 132.254 66.0127C132.118 66.2192 132.175 66.4967 132.381 66.6328C132.94 67.0016 133.893 67.4035 134.983 67.445C136.09 67.4873 137.336 67.1567 138.426 66.0575C138.6 65.882 138.599 65.5986 138.424 65.4246C138.248 65.2507 137.965 65.2518 137.791 65.4273C136.899 66.3263 135.906 66.5844 135.018 66.5504Z" fill="#204EA9"/>
<path d="M128.661 53.3009C128.661 53.7171 128.324 54.0549 127.907 54.0549C127.491 54.0549 127.153 53.7171 127.153 53.3009C127.153 52.8843 127.491 52.5469 127.907 52.5469C128.324 52.5469 128.661 52.8843 128.661 53.3009Z" fill="#204EA9"/>
<path d="M141.754 53.2953C141.754 53.7115 141.417 54.0493 141 54.0493C140.584 54.0493 140.246 53.7115 140.246 53.2953C140.246 52.8787 140.584 52.5413 141 52.5413C141.417 52.5413 141.754 52.8787 141.754 53.2953Z" fill="#204EA9"/>
<path d="M207.159 61.2651L235.427 80.6298L218.173 105.815L189.906 86.4506L207.159 61.2651Z" fill="#6DECF3"/>
<path d="M235.428 80.6296L217.555 106.72L218.46 107.34L234.777 83.5198L235.428 80.6296Z" fill="#204EA9"/>
<path d="M189.906 86.4504L218.81 106.252L218.19 107.156L191.56 88.913L189.906 86.4504Z" fill="#204EA9"/>
<path d="M196.076 82.418L206.154 89.3225L205.601 90.1302L195.522 83.2257L196.076 82.418Z" fill="#204EA9"/>
<path d="M198.283 79.1863L208.362 86.0908L207.808 86.8988L197.729 79.9943L198.283 79.1863Z" fill="#204EA9"/>
<path d="M200.501 75.9551L210.58 82.8596L210.026 83.6676L199.947 76.7631L200.501 75.9551Z" fill="#204EA9"/>
<path d="M202.715 72.7234L212.794 79.6279L212.241 80.436L202.162 73.5314L202.715 72.7234Z" fill="#204EA9"/>
<path d="M204.93 69.4915L215.009 76.396L214.455 77.204L204.376 70.2995L204.93 69.4915Z" fill="#204EA9"/>
<path d="M207.144 66.2603L217.223 73.1648L216.67 73.9728L206.591 67.0683L207.144 66.2603Z" fill="#204EA9"/>
<path d="M208.343 90.8235L218.422 97.728L217.869 98.5361L207.79 91.6315L208.343 90.8235Z" fill="#204EA9"/>
<path d="M210.557 87.5923L220.636 94.4968L220.083 95.3045L210.004 88.4L210.557 87.5923Z" fill="#204EA9"/>
<path d="M212.768 84.3599L222.847 91.2644L222.293 92.0724L212.215 85.1679L212.768 84.3599Z" fill="#204EA9"/>
<path d="M219.41 74.6658L229.489 81.5703L224.508 88.8413L214.429 81.9367L219.41 74.6658Z" fill="#204EA9"/>
<path d="M205.145 93.3223L201.77 94.579L205.018 96.8044L205.145 93.3223Z" fill="#204EA9"/>
<path fill-rule="evenodd" clip-rule="evenodd" d="M170.879 94.1704C174.372 97.9951 176.82 101.842 178.525 105.27C177.222 106.847 175.68 108.22 175.836 106.075C176.007 103.747 173.05 97.9539 170.879 94.1704Z" fill="black" fill-opacity="0.24"/>
<path d="M40.0634 102.919C33.9684 100.864 25.3026 97.6135 25.3026 90.1378C25.3026 90.1378 25.7406 92.9802 28.2515 93.5886C29.6065 93.9168 32.6377 90.1572 32.6377 90.1572C32.6377 90.1572 32.9192 93.5713 34.5177 93.5886C35.3191 93.5973 38.1182 90.9554 38.1182 90.9554C38.1182 90.9554 38.6741 93.8264 40.0634 93.9506C41.8465 94.1099 44.1724 91.6244 44.1724 91.6244C44.1724 91.6244 46.1426 92.8498 47.1675 92.6442C49.54 92.1683 49.813 91.576 50.4793 90.5565C51.1456 89.5369 51.2882 87.083 51.2882 87.083C51.2882 87.083 54.9046 88.6056 55.7308 95.0191C56.352 96.0547 47.6823 105.488 40.0634 102.919Z" fill="#DAC3A1"/>
<path d="M40.0634 102.918C33.9684 100.863 25.3026 97.6125 25.3026 90.1372C25.3026 90.1372 25.7406 92.9795 28.2515 93.5879C29.6065 93.9162 32.6377 90.1565 32.6377 90.1565C32.6377 90.1565 32.9192 93.5706 34.5177 93.5879C35.3191 93.5966 38.1182 90.9547 38.1182 90.9547C38.1182 90.9547 38.6741 93.8257 40.0634 93.9499C41.8465 94.1092 44.1724 91.6237 44.1724 91.6237C44.1724 91.6237 46.1426 92.8489 47.1675 92.6436C49.54 92.1676 49.813 91.5754 50.4793 90.5558C51.1456 89.5362 51.2882 87.082 51.2882 87.082C51.2882 87.082 54.9046 88.605 55.7308 95.0184C56.352 96.0541 47.6823 105.487 40.0634 102.918Z" fill="black" fill-opacity="0.17"/>
</svg>
