<svg width="210" height="171" viewBox="0 0 210 171" fill="none" xmlns="http://www.w3.org/2000/svg">
<g clip-path="url(#clip0_329_19739)">
<path fill-rule="evenodd" clip-rule="evenodd" d="M189.196 76.7624C189.196 76.6012 189.327 76.4702 189.488 76.4702H209.017C209.178 76.4702 209.309 76.6012 209.309 76.7624C209.309 76.9238 209.178 77.0549 209.017 77.0549H189.488C189.327 77.0549 189.196 76.9238 189.196 76.7624Z" fill="#64E7F9"/>
<path fill-rule="evenodd" clip-rule="evenodd" d="M178.17 78.9074C178.17 78.746 178.301 78.6152 178.463 78.6152H209.016C209.177 78.6152 209.308 78.746 209.308 78.9074C209.308 79.0689 209.177 79.1996 209.016 79.1996H178.463C178.301 79.1996 178.17 79.0689 178.17 78.9074Z" fill="#64E7F9"/>
<path fill-rule="evenodd" clip-rule="evenodd" d="M23.055 4.33618H117.11C117.755 4.33618 118.279 4.85953 118.279 5.50513V32.6535C118.279 33.299 117.755 33.8225 117.11 33.8225H23.055C22.4092 33.8225 21.886 33.299 21.886 32.6535V5.50513C21.886 4.85956 22.4092 4.33618 23.055 4.33618ZM23.055 4.92066C22.7321 4.92066 22.4704 5.18236 22.4704 5.50513V32.6535C22.4704 32.9764 22.7321 33.2378 23.055 33.2378H117.11C117.433 33.2378 117.694 32.9764 117.694 32.6535V5.50513C117.694 5.18236 117.433 4.92066 117.11 4.92066H23.055Z" fill="#B3CAF8"/>
<path opacity="0.4" d="M137.828 74.7064H61.6999C59.3326 74.7064 57.4038 72.7776 57.4038 70.4105V41.8588C57.4038 39.4918 59.3326 37.563 61.6999 37.563H137.799C140.166 37.563 142.095 39.4918 142.095 41.8588V70.3812C142.124 72.7776 140.195 74.7064 137.828 74.7064Z" fill="#72B7D3"/>
<path opacity="0.7" d="M178.194 43.3591V12.8789L199.253 27.7311L178.194 43.3591Z" fill="#64E7F9"/>
<path opacity="0.7" d="M167.365 43.3591V12.8789L146.306 27.7311L167.365 43.3591Z" fill="#64E7F9"/>
<path fill-rule="evenodd" clip-rule="evenodd" d="M172.029 53.5353V43.6365H174.161V53.5353H172.029Z" fill="#64E7F9"/>
<path fill-rule="evenodd" clip-rule="evenodd" d="M190.774 47.9322L184.774 40.0794L186.468 38.7852L192.468 46.6379L190.774 47.9322Z" fill="#64E7F9"/>
<path fill-rule="evenodd" clip-rule="evenodd" d="M202.284 32.1368L192.773 29.4822L193.346 27.429L202.857 30.0835L202.284 32.1368Z" fill="#64E7F9"/>
<path fill-rule="evenodd" clip-rule="evenodd" d="M151.493 44.6261L158.212 37.3818L159.775 38.8315L153.056 46.0758L151.493 44.6261Z" fill="#64E7F9"/>
<path fill-rule="evenodd" clip-rule="evenodd" d="M142.773 27.0999L152.506 25.4131L152.87 27.5137L143.137 29.2002L142.773 27.0999Z" fill="#64E7F9"/>
<path opacity="0.9" d="M173.096 39.4062C179.739 39.4062 185.124 34.0211 185.124 27.3782C185.124 20.7352 179.739 15.3501 173.096 15.3501C166.453 15.3501 161.068 20.7352 161.068 27.3782C161.068 34.0211 166.453 39.4062 173.096 39.4062Z" fill="#3665DF"/>
<path fill-rule="evenodd" clip-rule="evenodd" d="M172.967 22.9531V0.334961H173.224V22.9531H172.967Z" fill="#3665DF"/>
<path fill-rule="evenodd" clip-rule="evenodd" d="M172.69 0.0581055H173.5V23.2292H172.69V0.0581055Z" fill="#3665DF"/>
<path fill-rule="evenodd" clip-rule="evenodd" d="M169.767 9.01001V42.0399L147.663 25.525L169.767 9.01001ZM148.093 25.525L169.51 41.5271V9.52292L148.093 25.525Z" fill="#3665DF"/>
<path fill-rule="evenodd" clip-rule="evenodd" d="M170.044 8.45703V42.5906L147.201 25.5236L170.044 8.45703ZM148.555 25.5236L169.234 40.974V10.0734L148.555 25.5236Z" fill="#3665DF"/>
<path fill-rule="evenodd" clip-rule="evenodd" d="M176.424 9.01001L198.528 25.525L176.424 42.0399V9.01001ZM176.681 9.52292V41.5271L198.099 25.525L176.681 9.52292Z" fill="#3665DF"/>
<path d="M126.65 29.7219V28.5514C126.65 28.103 126.871 27.879 127.312 27.879C130.844 27.879 131.458 26.1854 131.458 23.1723V13.46C131.458 9.84903 132.34 7.73242 136.952 7.73242C137.393 7.73242 137.614 7.95648 137.614 8.40459V9.57504C137.614 10.0234 137.393 10.2475 136.952 10.2475C134.67 10.2475 134.18 11.4927 134.18 13.6344V22.176C134.18 25.7621 133.518 28.1778 130.403 29.0244V29.1987C133.518 30.0952 134.18 32.5109 134.18 36.0471V44.589C134.18 46.7307 134.67 47.9756 136.952 47.9756C137.393 47.9756 137.614 48.1999 137.614 48.648V49.8185C137.614 50.2668 137.393 50.4909 136.952 50.4909C132.316 50.4909 131.458 48.3991 131.458 44.7633V35.051C131.458 32.1124 130.844 30.3443 127.312 30.3443C126.871 30.394 126.65 30.17 126.65 29.7219Z" fill="#64E7F9"/>
<path fill-rule="evenodd" clip-rule="evenodd" d="M176.147 8.45703L198.989 25.5236L176.147 42.5906V8.45703ZM176.957 10.0734V40.974L197.636 25.5236L176.957 10.0734Z" fill="#3665DF"/>
<path opacity="0.63" d="M3.65212 61.0687H109.743C111.446 61.0687 112.827 59.7231 112.827 58.0635V13.4798C112.827 11.8202 111.446 10.4746 109.743 10.4746H3.65212C1.94913 10.4746 0.568359 11.8202 0.568359 13.4798V58.041C0.568359 59.7231 1.94913 61.0687 3.65212 61.0687Z" fill="#64E7F9"/>
<path opacity="0.9" d="M58.0371 55.8371H98.129C99.2004 55.8371 100.086 54.9402 100.086 53.8085V26.1131C100.086 25.0027 99.221 24.0845 98.129 24.0845H58.0371C56.9657 24.0845 56.0798 24.9813 56.0798 26.1131V53.8085C56.0798 54.9402 56.9451 55.8371 58.0371 55.8371Z" fill="#B3CAF8"/>
<g opacity="0.7">
<path opacity="0.7" d="M94.9985 50.0568C95.5766 49.2353 96.033 48.2006 96.033 46.7098C96.033 45.2494 95.607 44.215 94.9985 43.3936H95.5462C96.0634 44.0629 96.611 45.0973 96.611 46.7098C96.611 48.3223 96.0634 49.357 95.5462 50.0263H94.9985V50.0568Z" fill="#3665DF"/>
<path opacity="0.7" d="M66.726 50.0568C66.1477 49.2353 65.6913 48.2006 65.6913 46.7098C65.6913 45.2494 66.1173 44.215 66.726 43.3936H66.1781C65.6609 44.0629 65.1133 45.0973 65.1133 46.7098C65.1133 48.3223 65.6609 49.357 66.1781 50.0263H66.726V50.0568Z" fill="#3665DF"/>
</g>
<path d="M12.5466 21.8437H100.044C100.745 21.8437 101.321 21.2669 101.321 20.5664C101.321 19.8659 100.745 19.2891 100.044 19.2891H12.5466C11.8462 19.2891 11.2693 19.8659 11.2693 20.5664C11.2693 21.2669 11.8256 21.8437 12.5466 21.8437Z" fill="#64E7F9"/>
<path d="M12.8139 44.3834H42.996C43.573 44.3834 44.0469 43.8169 44.0469 43.1275V25.9378C44.0469 25.2482 43.573 24.6819 42.996 24.6819H12.8139C12.237 24.6819 11.7632 25.2482 11.7632 25.9378V43.1275C11.7838 43.8169 12.237 44.3834 12.8139 44.3834Z" fill="#3665DF"/>
<path d="M14.567 42.4046H41.2264C41.5972 42.4046 41.8855 42.116 41.8855 41.7451C41.8855 41.3746 41.5972 41.0859 41.2264 41.0859H14.567C14.1961 41.0859 13.9077 41.3746 13.9077 41.7451C13.9077 42.0954 14.2168 42.4046 14.567 42.4046Z" fill="#1A1A1A" fill-opacity="0.27"/>
<path d="M39.1026 27.3819H42.0694C42.4399 27.3819 42.7286 27.0935 42.7286 26.7227C42.7286 26.3518 42.4399 26.0635 42.0694 26.0635H39.1026C38.7317 26.0635 38.4431 26.3518 38.4431 26.7227C38.4431 27.073 38.7317 27.3819 39.1026 27.3819Z" fill="#1A1A1A" fill-opacity="0.27"/>
<path d="M14.0702 27.3819H17.0369C17.4077 27.3819 17.6961 27.0935 17.6961 26.7227C17.6961 26.3518 17.4077 26.0635 17.0369 26.0635H14.0702C13.6993 26.0635 13.4109 26.3518 13.4109 26.7227C13.4109 27.073 13.7199 27.3819 14.0702 27.3819Z" fill="#1A1A1A" fill-opacity="0.27"/>
<path d="M19.0174 27.3819H21.9842C22.3551 27.3819 22.6434 27.0935 22.6434 26.7227C22.6434 26.3518 22.3551 26.0635 21.9842 26.0635H19.0174C18.6466 26.0635 18.3582 26.3518 18.3582 26.7227C18.3582 27.073 18.6466 27.3819 19.0174 27.3819Z" fill="#1A1A1A" fill-opacity="0.27"/>
<path opacity="0.5" d="M15.2868 38.8668H40.8541C41.5135 38.8668 42.0491 38.2265 42.0491 37.4383V29.7957C42.0491 29.0077 41.5135 28.3674 40.8541 28.3674H15.2662C14.6069 28.3674 14.0713 29.0077 14.0713 29.7957V37.4383C14.0713 38.2265 14.6069 38.8668 15.2868 38.8668Z" fill="white"/>
<path d="M28.0608 32.3364C26.3285 32.3364 24.9243 30.9322 24.9243 29.1999C24.9243 27.4677 26.3285 26.0635 28.0608 26.0635C29.793 26.0635 31.1972 27.4677 31.1972 29.1999C31.1972 30.9322 29.793 32.3364 28.0608 32.3364Z" fill="#64E7F9"/>
<path d="M35.2594 38.7988C35.2594 36.3169 32.0413 34.3259 28.0593 34.3259C24.0773 34.3259 20.8591 36.3441 20.8591 38.7988H35.2594Z" fill="#64E7F9"/>
<path fill-rule="evenodd" clip-rule="evenodd" d="M44.666 42.8584C44.575 42.8584 44.5012 42.9321 44.5012 43.0229C44.5012 43.6324 44.0188 44.1151 43.4092 44.1151H13.6596C13.05 44.1151 12.5674 43.6324 12.5674 43.0229C12.5674 42.9321 12.4937 42.8584 12.4028 42.8584C12.312 42.8584 12.2383 42.9321 12.2383 43.0229C12.2383 43.8144 12.8682 44.4443 13.6596 44.4443H43.4092C44.2005 44.4443 44.8304 43.8144 44.8304 43.0229C44.8304 42.9321 44.7567 42.8584 44.666 42.8584Z" fill="#B3CAF8"/>
<path opacity="0.7" d="M86.3848 27.9209H96.2532V30.2282H86.3848V27.9209Z" fill="#3665DF"/>
<path opacity="0.7" d="M86.3848 33.4646H96.2532V35.7719H86.3848V33.4646Z" fill="#3665DF"/>
<path opacity="0.7" d="M63.3733 33.4646H85.6236V35.7719H63.3733V33.4646Z" fill="#3665DF"/>
<path opacity="0.3" d="M80.897 37.0059H90.34V39.3134H80.897V37.0059Z" fill="#3665DF"/>
<path opacity="0.3" d="M66.0725 37.0059H75.5156V39.3134H66.0725V37.0059Z" fill="#3665DF"/>
<path opacity="0.3" d="M74.498 40.1997H90.3412V42.507H74.498V40.1997Z" fill="#3665DF"/>
<path opacity="0.7" d="M78.2056 43.6917H94.0487V45.9992H78.2056V43.6917Z" fill="#3665DF"/>
<path opacity="0.7" d="M67.8423 43.6611H77.2574V45.9684H67.8423V43.6611Z" fill="#3665DF"/>
<path opacity="0.3" d="M76.469 37.7009V37.3059H79.9448V37.7009H76.469ZM76.469 39.0176V38.6227H79.9448V39.0176H76.469Z" fill="#3665DF"/>
<path opacity="0.7" d="M78.2056 47.1836H94.0487V49.4912H78.2056V47.1836Z" fill="#3665DF"/>
<path opacity="0.7" d="M67.8423 47.1836H77.2574V49.4912H67.8423V47.1836Z" fill="#3665DF"/>
<path d="M11.7632 46.5654H44.0469V53.4465H11.7632V46.5654Z" fill="#B3CAF8"/>
<path d="M12.5277 15.2459C12.0385 15.2459 11.6418 14.8493 11.6418 14.36C11.6418 13.8707 12.0385 13.4741 12.5277 13.4741C13.017 13.4741 13.4136 13.8707 13.4136 14.36C13.4136 14.8493 13.017 15.2459 12.5277 15.2459Z" fill="#87650E" fill-opacity="0.58"/>
<path d="M9.53775 15.2459C9.04847 15.2459 8.65186 14.8493 8.65186 14.36C8.65186 13.8707 9.04847 13.4741 9.53775 13.4741C10.027 13.4741 10.4236 13.8707 10.4236 14.36C10.4236 14.8493 10.027 15.2459 9.53775 15.2459Z" fill="#3665DF"/>
<path opacity="0.9" d="M6.5734 15.2459C6.08411 15.2459 5.6875 14.8493 5.6875 14.36C5.6875 13.8707 6.08411 13.4741 6.5734 13.4741C7.06265 13.4741 7.45929 13.8707 7.45929 14.36C7.45929 14.8493 7.06265 15.2459 6.5734 15.2459Z" fill="#00B127" fill-opacity="0.58"/>
<path opacity="0.2" d="M36.0549 47.4512H41.7821V50.2529H36.0549V47.4512Z" fill="#1A1A1A"/>
<path opacity="0.2" d="M38.3826 51.0371H41.7819V52.5411H38.3826V51.0371Z" fill="#1A1A1A"/>
<path opacity="0.2" d="M33.7673 51.0371H37.1666V52.5411H33.7673V51.0371Z" fill="#1A1A1A"/>
<path opacity="0.2" d="M29.1326 51.0371H32.5319V52.5411H29.1326V51.0371Z" fill="#1A1A1A"/>
<path opacity="0.2" d="M24.5168 51.0371H27.9161V52.5411H24.5168V51.0371Z" fill="#1A1A1A"/>
<path opacity="0.2" d="M19.9011 51.0371H23.3005V52.5411H19.9011V51.0371Z" fill="#1A1A1A"/>
<path opacity="0.2" d="M15.2883 51.0371H18.6877V52.5411H15.2883V51.0371Z" fill="#1A1A1A"/>
<path opacity="0.2" fill-rule="evenodd" clip-rule="evenodd" d="M34.3992 47.967C34.3992 47.8574 34.3104 47.7686 34.2007 47.7686H15.2879C15.1782 47.7686 15.0894 47.8574 15.0894 47.967C15.0894 48.0769 15.1782 48.1657 15.2879 48.1657H34.2007C34.3104 48.1657 34.3992 48.0769 34.3992 47.967Z" fill="#1A1A1A"/>
<path opacity="0.2" fill-rule="evenodd" clip-rule="evenodd" d="M34.3992 48.8527C34.3992 48.7431 34.3104 48.6543 34.2007 48.6543H15.2879C15.1782 48.6543 15.0894 48.7431 15.0894 48.8527C15.0894 48.9624 15.1782 49.0512 15.2879 49.0512H34.2007C34.3104 49.0512 34.3992 48.9624 34.3992 48.8527Z" fill="#1A1A1A"/>
<path opacity="0.2" fill-rule="evenodd" clip-rule="evenodd" d="M34.3992 49.717C34.3992 49.6074 34.3104 49.5186 34.2007 49.5186H15.2879C15.1782 49.5186 15.0894 49.6074 15.0894 49.717C15.0894 49.8266 15.1782 49.9154 15.2879 49.9154H34.2007C34.3104 49.9154 34.3992 49.8266 34.3992 49.717Z" fill="#1A1A1A"/>
<path fill-rule="evenodd" clip-rule="evenodd" d="M106.068 55.8375V19.2891H105.764V55.8375H106.068Z" fill="#3665DF"/>
<path d="M105.347 21.3059H106.513V28.7796H105.347V21.3059Z" fill="#3665DF"/>
<path opacity="0.7" d="M40.9075 139.656C40.9075 97.3783 75.1666 63.1191 117.444 63.1191C159.722 63.1191 193.981 97.3783 193.981 139.656" fill="#81C6D8"/>
<g opacity="0.9">
<path opacity="0.9" d="M67.1074 147.479H202.014V154.173H67.1074V147.479Z" fill="#B3CAF8"/>
</g>
<path opacity="0.88" d="M52.6025 138.494L64.6859 129.895C66.345 128.181 68.64 127.213 71.0177 127.213H183.058C185.933 127.213 188.643 128.623 190.275 130.973L198.238 138.494H52.6025Z" fill="#E6EAFC"/>
<path opacity="0.63" d="M68.628 124.42H11.7507C9.92577 124.42 8.43262 122.927 8.43262 121.102V84.2437C8.43262 82.4188 9.92577 80.9258 11.7507 80.9258H68.628C70.4529 80.9258 71.9459 82.4188 71.9459 84.2437V121.102C71.9459 122.927 70.4529 124.42 68.628 124.42Z" fill="#64E7F9"/>
<path d="M17.6973 88.3643H46.2384V90.7143H17.6973V88.3643Z" fill="#B3CAF8"/>
<path d="M17.6973 113.706H46.2384V116.056H17.6973V113.706Z" fill="#B3CAF8"/>
<path d="M47.9009 113.706H62.5363V116.056H47.9009V113.706Z" fill="#B3CAF8"/>
<path d="M17.8433 93.2314H62.5361V95.5818H17.8433V93.2314Z" fill="#B3CAF8"/>
<path fill-rule="evenodd" clip-rule="evenodd" d="M9.18113 78.2807C7.51848 78.2807 6.15484 79.6487 6.15484 81.322V118.208C6.15484 119.881 7.51848 121.249 9.18113 121.249H65.7967C67.4577 121.249 68.8229 119.883 68.8229 118.18V81.322C68.8229 79.6487 67.4593 78.2807 65.7967 78.2807H9.18113ZM5.60181 81.322C5.60181 79.3455 7.21068 77.7275 9.18113 77.7275H65.7967C67.7671 77.7275 69.3758 79.3455 69.3758 81.322V118.18C69.3758 120.183 67.7685 121.802 65.7967 121.802H9.18113C7.21068 121.802 5.60181 120.184 5.60181 118.208V81.322Z" fill="#3665DF"/>
<path fill-rule="evenodd" clip-rule="evenodd" d="M33.5216 140.348C33.5216 139.98 33.8198 139.682 34.1876 139.682H44.8885C45.2563 139.682 45.5545 139.98 45.5545 140.348C45.5545 140.716 45.2563 141.014 44.8885 141.014H34.1876C33.8198 141.014 33.5216 140.716 33.5216 140.348ZM47.1807 140.348C47.1807 139.98 47.4792 139.682 47.847 139.682H205.262C205.629 139.682 205.928 139.98 205.928 140.348C205.928 140.716 205.629 141.014 205.262 141.014H47.847C47.4792 141.014 47.1807 140.716 47.1807 140.348ZM24.98 139.682C24.6122 139.682 24.314 139.98 24.314 140.348C24.314 140.716 24.6122 141.014 24.98 141.014H30.3166C30.6844 141.014 30.9826 140.716 30.9826 140.348C30.9826 139.98 30.6844 139.682 30.3166 139.682H24.98Z" fill="#3665DF"/>
<path d="M116.058 74.4692C117.42 74.1891 118.231 72.5432 117.871 70.7931C117.511 69.043 116.115 67.8515 114.754 68.1316C113.393 68.4118 112.581 70.0577 112.942 71.8078C113.302 73.5579 114.697 74.7493 116.058 74.4692Z" fill="#F5BC9A"/>
<path fill-rule="evenodd" clip-rule="evenodd" d="M115.501 69.9923C115.646 69.9424 115.803 70.0191 115.853 70.1636L116.211 71.2032L115.983 71.3071L115.981 71.3079L115.975 71.3107C115.969 71.3134 115.961 71.3175 115.949 71.323C115.927 71.334 115.894 71.3504 115.854 71.3712C115.774 71.4132 115.668 71.4724 115.565 71.5414C115.46 71.6116 115.366 71.6856 115.302 71.7555C115.238 71.8251 115.232 71.8588 115.232 71.8586C115.232 71.8586 115.232 71.8583 115.232 71.8575C115.232 72.0118 115.273 72.0833 115.304 72.1184C115.339 72.1571 115.392 72.1858 115.469 72.202C115.546 72.2185 115.631 72.2182 115.7 72.2119C115.734 72.2089 115.762 72.2048 115.78 72.2015C115.79 72.1998 115.796 72.1984 115.8 72.1976L115.804 72.1968H115.803C115.803 72.1968 115.804 72.1968 115.804 72.1968L115.501 69.9923ZM115.868 72.4657C115.933 72.7343 115.933 72.7346 115.933 72.7346H115.932L115.93 72.7351L115.927 72.7359C115.924 72.7365 115.92 72.7376 115.915 72.7384C115.906 72.7406 115.893 72.7431 115.877 72.7458C115.845 72.7513 115.802 72.7579 115.75 72.7628C115.649 72.7718 115.505 72.7751 115.354 72.7431C115.203 72.711 115.028 72.6397 114.892 72.4865C114.752 72.3297 114.679 72.1176 114.679 71.8575C114.679 71.6555 114.794 71.4916 114.894 71.3819C115.001 71.2654 115.136 71.1629 115.258 71.0812C115.354 71.0177 115.448 70.9623 115.528 70.9184L115.33 70.3437C115.28 70.1995 115.357 70.0422 115.501 69.9923" fill="#333333" fill-opacity="0.3"/>
<path d="M139.014 71.8107C139.374 70.0606 138.563 68.4147 137.202 68.1346C135.841 67.8544 134.445 69.0459 134.085 70.796C133.725 72.5461 134.536 74.192 135.897 74.4721C137.258 74.7523 138.654 73.5608 139.014 71.8107Z" fill="#F5BC9A"/>
<path d="M89.3748 86.6082L89.3748 87.7787C89.3748 88.227 89.1541 88.4511 88.7127 88.4511C85.1807 88.4511 84.5674 90.1447 84.5674 93.1577L84.5674 102.87C84.5674 106.481 83.6845 108.598 79.0733 108.598C78.632 108.598 78.411 108.374 78.411 107.925L78.411 106.755C78.411 106.307 78.632 106.083 79.0733 106.083C81.3544 106.083 81.8449 104.837 81.8449 102.696L81.8449 94.1541C81.8449 90.5679 82.5072 88.1523 85.6221 87.3057L85.6221 87.1313C82.5072 86.2349 81.8449 83.8192 81.8449 80.283L81.8449 71.7411C81.8449 69.5994 81.3544 68.3545 79.0733 68.3545C78.632 68.3545 78.411 68.1302 78.411 67.682L78.411 66.5116C78.411 66.0632 78.632 65.8392 79.0733 65.8392C83.7092 65.8392 84.5674 67.9309 84.5674 71.5667L84.5674 81.2791C84.5674 84.2176 85.1807 85.9857 88.7127 85.9857C89.1541 85.9361 89.3748 86.1601 89.3748 86.6082Z" fill="#64E7F9"/>
<path fill-rule="evenodd" clip-rule="evenodd" d="M136.448 69.9923C136.592 70.0422 136.669 70.1995 136.619 70.3437L136.421 70.9184C136.501 70.9623 136.595 71.0177 136.691 71.0812C136.814 71.1629 136.948 71.2654 137.055 71.3819C137.155 71.4916 137.27 71.6555 137.27 71.8575C137.27 72.1176 137.197 72.3297 137.058 72.4865C136.921 72.6397 136.746 72.711 136.595 72.7431C136.444 72.7751 136.3 72.7718 136.199 72.7628C136.147 72.7579 136.103 72.7513 136.072 72.7458C136.057 72.7431 136.044 72.7406 136.034 72.7384C136.029 72.7376 136.026 72.7365 136.023 72.7359L136.019 72.7351L136.017 72.7346H136.017C136.017 72.7346 136.016 72.7343 136.08 72.4712L136.016 72.7343C135.868 72.6984 135.777 72.549 135.813 72.4004C135.849 72.2524 135.997 72.1614 136.145 72.1968L136.448 69.9923ZM136.081 72.4657L136.146 72.1971C136.146 72.1971 136.146 72.1971 136.081 72.4657ZM135.967 71.3074L136.081 71.0555C135.967 71.3074 135.967 71.3074 135.967 71.3074L135.738 71.2032L136.096 70.1636C136.146 70.0191 136.304 69.9424 136.448 69.9923L135.967 71.3074ZM136.145 72.1968L136.149 72.1976C136.153 72.1984 136.16 72.1998 136.169 72.2015C136.187 72.2048 136.215 72.2089 136.249 72.2119C136.319 72.2182 136.403 72.2185 136.48 72.202C136.557 72.1858 136.611 72.1571 136.645 72.1184C136.676 72.0833 136.717 72.0118 136.717 71.8575C136.717 71.8583 136.717 71.8586 136.717 71.8586C136.717 71.8588 136.711 71.8251 136.648 71.7555C136.583 71.6856 136.49 71.6116 136.384 71.5414C136.281 71.4724 136.176 71.4132 136.095 71.3712C136.055 71.3504 136.023 71.334 136 71.323C135.989 71.3175 135.98 71.3134 135.974 71.3107L135.968 71.3079L135.967 71.3074" fill="#333333" fill-opacity="0.3"/>
<path d="M198.238 138.495H52.6025V140.845H198.238V138.495Z" fill="#3665DF"/>
<path fill-rule="evenodd" clip-rule="evenodd" d="M107.413 88.5472C111.007 89.7721 112.927 93.6785 111.702 97.2724L104.769 117.653C113.073 119.276 112.243 120.716 111.702 123.857C111.058 127.599 105.312 129.894 101.57 129.25L97.4168 128.535C92.1863 127.659 88.3396 125.112 89.8208 120.265L89.8529 120.16L98.6875 92.8365C99.9124 89.2426 103.819 87.3223 107.413 88.5472Z" fill="#3665DF"/>
<path fill-rule="evenodd" clip-rule="evenodd" d="M145.893 88.7018C149.57 87.7529 153.319 89.9637 154.268 93.6401L162.461 120.048L162.467 120.073C163.574 124.502 158.879 126.989 154.268 128.546L153.235 128.899C149.642 130.128 145.734 128.213 144.505 124.62C143.661 122.155 146.625 121.875 148.268 120.08L140.955 97.077C140.006 93.4005 142.217 89.651 145.893 88.7018Z" fill="#3665DF"/>
<path d="M131.159 82.7275H121.122C119.518 82.7275 102.327 88.8058 102.327 88.8058L107.656 130.17H145.537L149.095 88.5531C149.067 88.5531 132.68 82.7275 131.159 82.7275Z" fill="#3665DF"/>
<path d="M100.697 123.617C99.9899 124.967 102.478 127.448 103.388 128.279L117.06 127.444L119.059 125.066C116.782 122.923 111.975 118.309 110.683 118.149C105.874 117.555 101.581 121.929 100.697 123.617Z" fill="#E1AD8F"/>
<path d="M171.446 129.649C171.446 122.511 177.233 116.725 184.371 116.725C191.509 116.725 197.296 122.511 197.296 129.649H171.446Z" fill="#64E7F9"/>
<path d="M44.1223 144.364C44.1223 151.502 38.3356 157.288 31.1977 157.288C24.0595 157.288 18.2729 151.502 18.2729 144.364H44.1223Z" fill="#64E7F9"/>
<path d="M159.501 130.503L93.4719 130.447L96.2923 127.848C96.7624 127.406 97.3706 127.185 98.0345 127.185H154.911C155.547 127.185 156.156 127.433 156.626 127.848L159.501 130.503Z" fill="#B3CAF8"/>
<path d="M158.477 134.099H94.3829C93.3046 134.099 92.4475 133.241 92.4475 132.163C92.4475 131.085 93.3046 130.228 94.3829 130.228H158.505C159.583 130.228 160.44 131.085 160.44 132.163C160.412 133.214 159.555 134.099 158.477 134.099Z" fill="#F7F8FF"/>
<path d="M101.131 128.374H99.9147C99.5277 128.374 99.1958 128.042 99.1958 127.655C99.1958 127.268 99.5277 126.937 99.9147 126.937H101.131C101.518 126.937 101.85 127.268 101.85 127.655C101.85 128.042 101.546 128.374 101.131 128.374Z" fill="#F7F8FF"/>
<path d="M105.112 128.374H103.896C103.508 128.374 103.177 128.042 103.177 127.655C103.177 127.268 103.508 126.937 103.896 126.937H105.112C105.499 126.937 105.831 127.268 105.831 127.655C105.803 128.042 105.499 128.374 105.112 128.374Z" fill="#F7F8FF"/>
<path d="M109.066 128.374H107.849C107.462 128.374 107.13 128.042 107.13 127.655C107.13 127.268 107.462 126.937 107.849 126.937H109.066C109.453 126.937 109.785 127.268 109.785 127.655C109.785 128.042 109.453 128.374 109.066 128.374Z" fill="#F7F8FF"/>
<path d="M113.02 128.374H111.804C111.417 128.374 111.085 128.042 111.085 127.655C111.085 127.268 111.417 126.937 111.804 126.937H113.02C113.408 126.937 113.739 127.268 113.739 127.655C113.739 128.042 113.408 128.374 113.02 128.374Z" fill="#F7F8FF"/>
<path d="M116.974 128.374H115.758C115.371 128.374 115.039 128.042 115.039 127.655C115.039 127.268 115.371 126.937 115.758 126.937H116.974C117.361 126.937 117.693 127.268 117.693 127.655C117.693 128.042 117.389 128.374 116.974 128.374Z" fill="#F7F8FF"/>
<path d="M120.956 128.374H119.739C119.352 128.374 119.02 128.042 119.02 127.655C119.02 127.268 119.352 126.937 119.739 126.937H120.956C121.343 126.937 121.674 127.268 121.674 127.655C121.647 128.042 121.343 128.374 120.956 128.374Z" fill="#F7F8FF"/>
<path d="M124.91 128.374H123.693C123.306 128.374 122.974 128.042 122.974 127.655C122.974 127.268 123.306 126.937 123.693 126.937H124.91C125.297 126.937 125.629 127.268 125.629 127.655C125.629 128.042 125.297 128.374 124.91 128.374Z" fill="#F7F8FF"/>
<path d="M128.864 128.374H127.647C127.26 128.374 126.928 128.042 126.928 127.655C126.928 127.268 127.26 126.937 127.647 126.937H128.864C129.251 126.937 129.582 127.268 129.582 127.655C129.582 128.042 129.251 128.374 128.864 128.374Z" fill="#F7F8FF"/>
<path d="M132.817 128.374H131.601C131.214 128.374 130.882 128.042 130.882 127.655C130.882 127.268 131.214 126.937 131.601 126.937H132.817C133.205 126.937 133.536 127.268 133.536 127.655C133.536 128.042 133.232 128.374 132.817 128.374Z" fill="#F7F8FF"/>
<path d="M136.799 128.374H135.582C135.195 128.374 134.863 128.042 134.863 127.655C134.863 127.268 135.195 126.937 135.582 126.937H136.799C137.186 126.937 137.518 127.268 137.518 127.655C137.49 128.042 137.186 128.374 136.799 128.374Z" fill="#F7F8FF"/>
<path d="M140.753 128.374H139.537C139.15 128.374 138.818 128.042 138.818 127.655C138.818 127.268 139.15 126.937 139.537 126.937H140.753C141.141 126.937 141.472 127.268 141.472 127.655C141.472 128.042 141.141 128.374 140.753 128.374Z" fill="#F7F8FF"/>
<path d="M144.707 128.374H143.49C143.103 128.374 142.771 128.042 142.771 127.655C142.771 127.268 143.103 126.937 143.49 126.937H144.707C145.094 126.937 145.426 127.268 145.426 127.655C145.426 128.042 145.094 128.374 144.707 128.374Z" fill="#F7F8FF"/>
<path d="M148.66 128.374H147.444C147.057 128.374 146.725 128.042 146.725 127.655C146.725 127.268 147.057 126.937 147.444 126.937H148.66C149.048 126.937 149.379 127.268 149.379 127.655C149.379 128.042 149.075 128.374 148.66 128.374Z" fill="#F7F8FF"/>
<path d="M152.644 128.374H151.427C151.04 128.374 150.708 128.042 150.708 127.655C150.708 127.268 151.04 126.937 151.427 126.937H152.644C153.031 126.937 153.363 127.268 153.363 127.655C153.335 128.042 153.031 128.374 152.644 128.374Z" fill="#F7F8FF"/>
<path d="M99.8316 129.564H98.6149C98.2279 129.564 97.896 129.232 97.896 128.845C97.896 128.458 98.2279 128.126 98.6149 128.126H99.8316C100.219 128.126 100.551 128.458 100.551 128.845C100.523 129.26 100.219 129.564 99.8316 129.564Z" fill="#F7F8FF"/>
<path d="M103.785 129.564H102.569C102.182 129.564 101.85 129.232 101.85 128.845C101.85 128.458 102.182 128.126 102.569 128.126H103.785C104.173 128.126 104.504 128.458 104.504 128.845C104.504 129.26 104.173 129.564 103.785 129.564Z" fill="#F7F8FF"/>
<path d="M107.739 129.564H106.523C106.136 129.564 105.804 129.232 105.804 128.845C105.804 128.458 106.136 128.126 106.523 128.126H107.739C108.126 128.126 108.458 128.458 108.458 128.845C108.458 129.26 108.126 129.564 107.739 129.564Z" fill="#F7F8FF"/>
<path d="M111.693 129.564H110.476C110.089 129.564 109.758 129.232 109.758 128.845C109.758 128.458 110.089 128.126 110.476 128.126H111.693C112.08 128.126 112.412 128.458 112.412 128.845C112.412 129.26 112.108 129.564 111.693 129.564Z" fill="#F7F8FF"/>
<path d="M115.675 129.564H114.458C114.071 129.564 113.74 129.232 113.74 128.845C113.74 128.458 114.071 128.126 114.458 128.126H115.675C116.062 128.126 116.394 128.458 116.394 128.845C116.366 129.26 116.062 129.564 115.675 129.564Z" fill="#F7F8FF"/>
<path d="M119.629 129.564H118.413C118.025 129.564 117.694 129.232 117.694 128.845C117.694 128.458 118.025 128.126 118.413 128.126H119.629C120.016 128.126 120.348 128.458 120.348 128.845C120.348 129.26 120.016 129.564 119.629 129.564Z" fill="#F7F8FF"/>
<path d="M123.583 129.564H122.366C121.979 129.564 121.647 129.232 121.647 128.845C121.647 128.458 121.979 128.126 122.366 128.126H123.583C123.97 128.126 124.302 128.458 124.302 128.845C124.302 129.26 123.97 129.564 123.583 129.564Z" fill="#F7F8FF"/>
<path d="M127.537 129.564H126.321C125.933 129.564 125.602 129.232 125.602 128.845C125.602 128.458 125.933 128.126 126.321 128.126H127.537C127.924 128.126 128.256 128.458 128.256 128.845C128.256 129.26 127.952 129.564 127.537 129.564Z" fill="#F7F8FF"/>
<path d="M131.518 129.564H130.302C129.915 129.564 129.583 129.232 129.583 128.845C129.583 128.458 129.915 128.126 130.302 128.126H131.518C131.905 128.126 132.237 128.458 132.237 128.845C132.21 129.26 131.905 129.564 131.518 129.564Z" fill="#F7F8FF"/>
<path d="M135.473 129.564H134.256C133.869 129.564 133.537 129.232 133.537 128.845C133.537 128.458 133.869 128.126 134.256 128.126H135.473C135.86 128.126 136.191 128.458 136.191 128.845C136.191 129.26 135.86 129.564 135.473 129.564Z" fill="#F7F8FF"/>
<path d="M139.427 129.564H138.21C137.823 129.564 137.491 129.232 137.491 128.845C137.491 128.458 137.823 128.126 138.21 128.126H139.427C139.814 128.126 140.146 128.458 140.146 128.845C140.146 129.26 139.814 129.564 139.427 129.564Z" fill="#F7F8FF"/>
<path d="M143.38 129.564H142.164C141.776 129.564 141.445 129.232 141.445 128.845C141.445 128.458 141.776 128.126 142.164 128.126H143.38C143.767 128.126 144.099 128.458 144.099 128.845C144.099 129.26 143.795 129.564 143.38 129.564Z" fill="#F7F8FF"/>
<path d="M147.362 129.564H146.145C145.758 129.564 145.427 129.232 145.427 128.845C145.427 128.458 145.758 128.126 146.145 128.126H147.362C147.749 128.126 148.081 128.458 148.081 128.845C148.053 129.26 147.749 129.564 147.362 129.564Z" fill="#F7F8FF"/>
<path d="M151.316 129.564H150.099C149.712 129.564 149.38 129.232 149.38 128.845C149.38 128.458 149.712 128.126 150.099 128.126H151.316C151.703 128.126 152.035 128.458 152.035 128.845C152.035 129.26 151.703 129.564 151.316 129.564Z" fill="#F7F8FF"/>
<path d="M155.27 129.564H154.053C153.666 129.564 153.334 129.232 153.334 128.845C153.334 128.458 153.666 128.126 154.053 128.126H155.27C155.657 128.126 155.989 128.458 155.989 128.845C155.989 129.26 155.657 129.564 155.27 129.564Z" fill="#F7F8FF"/>
<path d="M86.8535 133.186C87.7659 133.186 88.3188 132.191 87.8487 131.416C86.8535 129.758 84.8348 127.545 81.185 127.85C77.5905 128.126 76.1249 130.089 75.489 131.555C75.1571 132.329 75.7379 133.186 76.5673 133.186H86.8535Z" fill="#205284"/>
<path d="M132.763 78.9092L133.328 88.2174C133.328 91.8949 129.805 94.1202 126.127 94.1202C122.449 94.1202 119.032 91.4711 119.032 87.7936L119.491 78.9092H132.763Z" fill="#F5BC9A"/>
<path d="M132.801 78.6826L132.979 82.3862C132.979 82.3862 130.55 85.6311 128.135 85.9855C126.105 86.2832 123.601 86.2051 122.337 85.0098C120.105 82.899 119.49 78.9085 119.49 78.9085L132.801 78.6826Z" fill="#E1AD8F"/>
<path fill-rule="evenodd" clip-rule="evenodd" d="M184.19 122.548C184.19 122.548 184.19 122.549 184.888 123.139C185.768 123.883 185.112 124.175 185.591 123.717C185.801 123.517 186.381 122.973 186.667 122.802C186.968 122.622 187.188 122.565 187.319 122.571C187.38 122.573 187.502 122.582 187.673 122.85C188.247 123.748 188.464 124.576 188.332 125.144C188.23 125.58 187.411 126.175 185.899 126.438L186.642 128.229C188.571 127.895 189.784 126.97 190.112 125.558C190.41 124.277 189.885 122.918 189.213 121.866C188.761 121.16 188.127 120.779 187.404 120.745C186.752 120.715 186.161 120.975 185.729 121.234C185.282 121.501 184.899 121.832 184.637 122.082C184.503 122.21 184.395 122.323 184.319 122.405C184.281 122.446 184.25 122.48 184.229 122.504C184.218 122.517 184.209 122.527 184.203 122.534L184.195 122.543L184.192 122.547L184.19 122.548Z" fill="#B3CAF8"/>
<path fill-rule="evenodd" clip-rule="evenodd" d="M184.888 123.14C184.19 122.55 184.19 122.549 184.19 122.549L184.192 122.547L184.195 122.544L184.202 122.535C184.209 122.527 184.218 122.517 184.229 122.505C184.25 122.48 184.281 122.446 184.319 122.405C184.395 122.323 184.503 122.21 184.637 122.083C184.855 121.874 185.156 121.611 185.508 121.375L186.269 123.104C186.007 123.325 185.724 123.591 185.591 123.718C185.432 123.87 185.398 123.939 185.391 123.937C185.378 123.932 185.475 123.637 184.888 123.14ZM187.153 126.094L187.673 127.973C187.357 128.08 187.013 128.166 186.642 128.23L185.899 126.438C186.391 126.353 186.809 126.233 187.153 126.094Z" fill="#111110" fill-opacity="0.28"/>
<path d="M116.781 67.544L117.749 75.3414C117.832 75.9222 117.998 76.5028 118.275 77.0282L120.818 82.0052C121.427 83.4431 122.809 84.3832 124.385 84.3832H127.897C129.445 84.3832 130.855 83.4431 131.464 82.0052L133.98 77.1112C134.284 76.5304 134.45 75.9222 134.505 75.2587L135.169 67.8206L134.007 61.9032L125.961 57.2305L118.8 58.7235L116.781 67.544Z" fill="#F5BC9A"/>
<path d="M123.989 75.3812C123.989 75.3812 125.172 67.0703 125.796 67.0703C126.42 67.0703 127.689 75.5248 127.689 75.5248L125.658 76.819L123.989 75.3812Z" fill="#DCAD76"/>
<path d="M186.775 128.332C187.013 129.178 186.548 130.059 185.717 130.344L180.151 132.252C179.079 132.62 177.902 132.117 177.426 131.089L174.149 124.007C173.814 122.982 184.199 119.598 184.533 120.623C185.006 122.073 186.152 126.114 186.775 128.332Z" fill="#B3CAF8"/>
<path fill-rule="evenodd" clip-rule="evenodd" d="M183.74 121.81C183.72 121.778 183.678 121.767 183.645 121.787C182.144 122.681 180.061 123.36 178.35 123.816C177.495 124.044 176.735 124.215 176.188 124.33C175.914 124.387 175.694 124.43 175.543 124.459C175.467 124.474 175.408 124.484 175.369 124.492C175.349 124.495 175.334 124.498 175.324 124.5L175.312 124.502L175.309 124.502C175.309 124.502 175.308 124.502 175.32 124.57C175.332 124.638 175.332 124.638 175.332 124.638L175.336 124.637L175.348 124.635C175.358 124.633 175.373 124.631 175.393 124.627C175.433 124.62 175.492 124.609 175.568 124.594C175.721 124.565 175.942 124.522 176.216 124.465C176.765 124.35 177.528 124.177 178.385 123.949C180.099 123.492 182.197 122.809 183.715 121.905C183.748 121.885 183.759 121.843 183.74 121.81ZM175.253 124.582C175.259 124.619 175.295 124.644 175.332 124.638L175.32 124.57L175.309 124.502C175.271 124.509 175.246 124.544 175.253 124.582Z" fill="#474239"/>
<path d="M125.987 80.8437H126.374C126.789 80.8437 127.149 80.6223 127.37 80.2906L128.642 78.1338C128.642 78.1338 124.688 78.6039 123.886 78.2999L124.964 80.2629C125.185 80.6223 125.572 80.8437 125.987 80.8437Z" fill="white"/>
<path d="M130.053 71.3495C130.75 71.3495 131.315 70.8315 131.315 70.1925C131.315 69.5541 130.75 69.0361 130.053 69.0361C129.356 69.0361 128.791 69.5541 128.791 70.1925C128.791 70.8315 129.356 71.3495 130.053 71.3495Z" fill="#333333"/>
<path d="M121.343 71.3495C122.04 71.3495 122.605 70.8315 122.605 70.1925C122.605 69.5541 122.04 69.0361 121.343 69.0361C120.646 69.0361 120.082 69.5541 120.082 70.1925C120.082 70.8315 120.646 71.3495 121.343 71.3495Z" fill="#333333"/>
<path d="M118.66 63.5346C118.633 62.484 119.49 61.5992 120.541 61.6266C122.504 61.6543 125.352 61.7927 126.292 62.4286C126.956 62.871 127.757 63.5899 128.421 64.2535C129.057 64.8894 130.163 64.447 130.191 63.5622C130.191 63.2857 130.191 63.0368 130.135 62.871C130.135 62.871 130.661 63.5622 131.159 64.4193C131.684 65.3044 133.094 64.9724 133.094 63.9219C133.094 63.8942 133.094 63.8665 133.094 63.8665C133.094 63.8665 134.089 69.8943 134.974 70.0602C134.974 70.0602 137.214 67.4886 137.656 64.3916C138.182 60.4653 136.661 55.7372 133.454 54.4377C126.624 51.645 120.983 55.1564 119.352 56.4838C119.352 56.4838 114.651 55.5437 114.458 59.387C114.374 60.8249 114.153 65.0278 114.623 66.7974C115.398 69.7282 117.057 70.0325 117.057 70.0325L117.665 69.0923C118.384 67.9864 118.771 66.6869 118.716 65.3595L118.66 63.5346Z" fill="#3665DF"/>
<path fill-rule="evenodd" clip-rule="evenodd" d="M101.416 123.358C101.942 122.523 103.045 122.272 103.881 122.798L104.854 123.411L107.102 126.019C107.747 126.767 107.663 127.896 106.916 128.54C106.168 129.185 105.039 129.101 104.395 128.353L102.496 126.151L101.976 125.823C101.141 125.297 100.89 124.194 101.416 123.358Z" fill="#F5BC9A"/>
<path fill-rule="evenodd" clip-rule="evenodd" d="M104.256 121.364C104.799 120.539 105.907 120.311 106.732 120.854L108.156 121.792L111.174 126.171C111.735 126.984 111.53 128.097 110.717 128.657C109.904 129.218 108.791 129.013 108.231 128.2L105.608 124.395L104.766 123.84C103.941 123.297 103.713 122.188 104.256 121.364Z" fill="#F5BC9A"/>
<path fill-rule="evenodd" clip-rule="evenodd" d="M106.879 120.05C107.369 119.193 108.461 118.895 109.318 119.385L111.372 120.559L115.987 126.568C116.588 127.35 116.441 128.472 115.658 129.074C114.875 129.675 113.753 129.528 113.152 128.745L108.974 123.306L107.544 122.489C106.687 122 106.389 120.908 106.879 120.05Z" fill="#F5BC9A"/>
<path fill-rule="evenodd" clip-rule="evenodd" d="M141.27 123.292C141.512 124.249 140.933 125.221 139.976 125.463L138.338 125.877L137.42 127.225C136.864 128.041 135.752 128.252 134.936 127.696C134.121 127.14 133.91 126.028 134.465 125.212L136.147 122.744L139.099 121.997C140.056 121.755 141.028 122.335 141.27 123.292Z" fill="#E1AD8F"/>
<path fill-rule="evenodd" clip-rule="evenodd" d="M109.09 118.799C109.629 117.972 110.737 117.74 111.563 118.279L116.996 121.824L120.681 125.74C121.358 126.459 121.323 127.59 120.604 128.267C119.886 128.943 118.754 128.909 118.078 128.19L114.685 124.585L109.61 121.273C108.783 120.733 108.55 119.626 109.09 118.799Z" fill="#F5BC9A"/>
<path fill-rule="evenodd" clip-rule="evenodd" d="M148.483 118.215C148.932 119.094 148.584 120.171 147.704 120.62L143.11 122.967L140.468 127.169C139.943 128.004 138.84 128.256 138.004 127.731C137.168 127.205 136.916 126.102 137.442 125.266L140.607 120.232L146.077 117.436C146.957 116.987 148.033 117.336 148.483 118.215Z" fill="#F5BC9A"/>
<path fill-rule="evenodd" clip-rule="evenodd" d="M150.922 118.782C151.471 119.603 151.25 120.713 150.43 121.262L146.387 123.966L142.765 128.328C142.134 129.088 141.007 129.192 140.248 128.562C139.488 127.931 139.384 126.804 140.014 126.045L143.969 121.282L148.442 118.29C149.263 117.741 150.373 117.962 150.922 118.782Z" fill="#F5BC9A"/>
<path fill-rule="evenodd" clip-rule="evenodd" d="M152.815 120.626C153.353 121.454 153.117 122.561 152.289 123.099L150.908 123.996L146.502 128.856C145.839 129.587 144.708 129.642 143.977 128.979C143.245 128.316 143.19 127.186 143.853 126.455L148.572 121.25L150.343 120.1C151.171 119.563 152.278 119.798 152.815 120.626Z" fill="#F5BC9A"/>
<path fill-rule="evenodd" clip-rule="evenodd" d="M153.405 122.065C154.324 122.424 154.778 123.461 154.418 124.381L153.755 126.075L149.676 129.519C148.922 130.156 147.794 130.061 147.157 129.307C146.52 128.552 146.616 127.425 147.37 126.788L150.757 123.928L151.089 123.078C151.449 122.159 152.486 121.705 153.405 122.065Z" fill="#F5BC9A"/>
<path d="M133.454 54.3548C133.758 54.2997 139.15 57.2582 139.482 58.9173H137.906C137.906 58.9173 139.012 60.6869 139.012 61.6547L135.97 60.0786L133.454 54.3548Z" fill="#3665DF"/>
<mask id="mask0_329_19739" style="mask-type:alpha" maskUnits="userSpaceOnUse" x="123" y="78" width="6" height="3">
<path d="M125.987 80.8437H126.374C126.789 80.8437 127.149 80.6223 127.37 80.2906L128.642 78.1338C128.642 78.1338 124.688 78.6039 123.886 78.2999L124.964 80.2629C125.185 80.6223 125.572 80.8437 125.987 80.8437Z" fill="white"/>
</mask>
<g mask="url(#mask0_329_19739)">
<path fill-rule="evenodd" clip-rule="evenodd" d="M123.624 78.9218C123.592 78.8988 123.548 78.9057 123.525 78.9372C123.502 78.9687 123.509 79.0131 123.54 79.0364L123.582 78.9794C123.54 79.0364 123.54 79.0364 123.54 79.0364L123.54 79.0367L123.541 79.0372L123.543 79.0386C123.545 79.0394 123.546 79.0408 123.549 79.0427C123.554 79.046 123.562 79.0506 123.571 79.0567C123.591 79.0685 123.619 79.0844 123.658 79.1035C123.736 79.1416 123.856 79.1915 124.026 79.2409C124.365 79.3398 124.904 79.4374 125.711 79.4374C126.159 79.4374 126.904 79.3467 127.532 79.257C127.848 79.2118 128.135 79.1669 128.343 79.1331C128.448 79.1162 128.532 79.1022 128.591 79.0923C128.62 79.0874 128.643 79.0835 128.658 79.0808L128.682 79.077C128.682 79.077 128.682 79.077 128.67 79.0068L128.682 79.077C128.72 79.0701 128.747 79.0334 128.74 78.9947C128.733 78.9561 128.696 78.9303 128.658 78.9369L128.634 78.941C128.619 78.9435 128.596 78.9473 128.567 78.9522C128.509 78.9621 128.425 78.9761 128.321 78.9931C128.113 79.0265 127.826 79.0715 127.512 79.1164C126.883 79.2063 126.148 79.2954 125.711 79.2954C124.915 79.2954 124.39 79.1992 124.065 79.1046C123.903 79.0572 123.791 79.0104 123.72 78.9758C123.685 78.9588 123.66 78.9446 123.645 78.9353C123.637 78.9303 123.631 78.9268 123.628 78.9246L123.625 78.9224L123.624 78.9218Z" fill="#DCDCDC"/>
<path fill-rule="evenodd" clip-rule="evenodd" d="M133.171 78.4707C133.209 78.4817 133.23 78.5212 133.219 78.5587L133.151 78.5387L133.083 78.5187C133.094 78.4812 133.134 78.4595 133.171 78.4707ZM127.97 84.5205H125.834C125.795 84.5224 125.762 84.4926 125.76 84.4534C125.758 84.4142 125.788 84.3807 125.827 84.3788L127.968 84.3785H127.971C128.801 84.4038 129.535 84.0573 130.172 83.5157C130.809 82.9735 131.345 82.239 131.778 81.4973C132.21 80.7561 132.536 80.0111 132.755 79.4512C132.864 79.1711 132.946 78.9378 133.001 78.7744C133.028 78.6928 133.049 78.6286 133.063 78.585C133.069 78.5631 133.075 78.5464 133.078 78.5354L133.082 78.5228L133.083 78.5195L133.083 78.5187C133.083 78.5187 133.083 78.5187 133.151 78.5387C133.219 78.5587 133.219 78.5587 133.219 78.5587L133.219 78.5601L133.218 78.5634L133.214 78.5765C133.21 78.5881 133.205 78.6053 133.198 78.6275C133.184 78.6719 133.163 78.7369 133.136 78.8197C133.08 78.9847 132.997 79.2204 132.887 79.5027C132.667 80.0671 132.337 80.8194 131.9 81.5688C131.464 82.3179 130.918 83.0673 130.263 83.624C129.61 84.1801 128.844 84.5463 127.97 84.5205Z" fill="#3665DF"/>
</g>
</g>
<defs>
<clipPath id="clip0_329_19739">
<rect width="209" height="170" fill="white" transform="translate(0.219238 0.529053)"/>
</clipPath>
</defs>
</svg>
