<svg width="235" height="171" viewBox="0 0 235 171" fill="none" xmlns="http://www.w3.org/2000/svg">
<path d="M165.272 113.455C203.979 114.095 217.923 153.747 220.851 123.666C223.682 94.5913 187.86 27.8308 158.596 24.4565C132.739 21.4751 139.94 43.504 110.658 53.9028C81.376 64.3017 61.4471 31.1312 41.9125 49.4713C26.2351 64.1903 45.4956 75.5421 25.6863 118.557C16.2463 139.055 56.0382 163.806 87.2713 158.111C131.995 149.956 126.565 112.815 165.272 113.455Z" fill="#FDD17B"/>
<path fill-rule="evenodd" clip-rule="evenodd" d="M102.991 153.335C114.738 148.032 121.702 140.18 128.211 132.841C137.407 122.473 145.693 113.131 165.272 113.455C183.817 113.762 196.678 123.024 205.366 129.281C214.812 136.083 219.326 139.334 220.851 123.665C223.681 94.5911 187.859 27.8305 158.596 24.4563C144.741 22.8588 140.377 28.4418 134.807 35.5688C132.394 38.6556 129.755 42.0323 126.02 45.2406C153.285 47.7433 180.5 57.7683 174.559 80.2604C169.407 99.7687 155.288 105.187 142.452 110.114C140.854 110.727 139.276 111.333 137.738 111.957C124.427 117.358 111.488 122.609 106.756 141.745C105.691 146.052 104.418 149.9 102.991 153.335Z" fill="black" fill-opacity="0.14"/>
<path fill-rule="evenodd" clip-rule="evenodd" d="M93.4275 18.2034L92.4069 19.1466L94.0192 19.4181L106.476 44.9581L86.5508 62.6188L87.4066 64.0911L126.57 70.8406L145.43 50.6766L132.603 24.6818L93.467 18.211L93.4275 18.2034Z" fill="#204EA9"/>
<path fill-rule="evenodd" clip-rule="evenodd" d="M93.4275 18.2034L92.4069 19.1466L94.0192 19.4181L106.476 44.9581L86.5508 62.6188L87.4066 64.0911L126.57 70.8406L145.43 50.6766L132.603 24.6818L93.467 18.211L93.4275 18.2034Z" fill="black" fill-opacity="0.31"/>
<path d="M86.6445 62.6715L104.651 43.6257L143.827 50.1032L125.821 69.1486L86.6445 62.6715Z" fill="#204EA9"/>
<path d="M92.4021 19.1379L104.65 43.6261L143.826 50.1032L131.578 25.6153L92.4021 19.1379Z" fill="#A8BBDE"/>
<path d="M94.9023 20.6428L105.96 42.751L141.328 48.5985L130.271 26.4906L94.9023 20.6428Z" fill="white" fill-opacity="0.58"/>
<path fill-rule="evenodd" clip-rule="evenodd" d="M104.334 49.2155L103.25 49.0345L104.288 48.0938L105.372 48.2747L104.334 49.2155ZM108.329 49.9529L106.161 49.591L107.54 48.6366L109.708 48.9985L108.329 49.9529ZM112.538 50.682L110.371 50.3201L111.875 49.3605L114.043 49.7221L112.538 50.682ZM116.874 51.4055L114.706 51.0436L116.211 50.084L118.379 50.4459L116.874 51.4055ZM121.421 52.121L119.253 51.7591L120.547 50.8079L122.715 51.1698L121.421 52.121ZM125.841 52.8413L123.673 52.4794L124.883 51.5317L127.05 51.8933L125.841 52.8413ZM130.05 53.5701L127.882 53.2082L129.218 52.2552L131.386 52.6172L130.05 53.5701ZM133.606 54.233L132.522 54.0521L133.554 52.9791L134.638 53.16C136.282 53.4344 134.834 54.4381 133.606 54.233Z" fill="#373248"/>
<path fill-rule="evenodd" clip-rule="evenodd" d="M101.611 51.8239L100.527 51.6429L101.565 50.7021L102.649 50.8831L101.611 51.8239ZM105.607 52.5613L103.439 52.1994L104.817 51.245L106.985 51.607L105.607 52.5613ZM109.816 53.2904L107.648 52.9285L109.153 51.9689L111.321 52.3305L109.816 53.2904ZM114.151 54.0139L111.983 53.652L113.488 52.6924L115.656 53.0543L114.151 54.0139ZM118.698 54.7294L116.53 54.3675L117.824 53.4163L119.992 53.7782L118.698 54.7294ZM123.118 55.4495L120.95 55.0878L122.16 54.1401L124.328 54.5017L123.118 55.4495ZM127.327 56.1785L125.159 55.8166L126.495 54.8637L128.663 55.2256L127.327 56.1785ZM130.883 56.8414L129.799 56.6605L130.831 55.5875L131.915 55.7684C133.56 56.0428 132.111 57.0465 130.883 56.8414Z" fill="#373248"/>
<path fill-rule="evenodd" clip-rule="evenodd" d="M98.8848 54.4318L97.8008 54.2508L98.8386 53.3101L99.9226 53.491L98.8848 54.4318ZM102.88 55.1692L100.712 54.8073L102.09 53.8526L104.258 54.2146L102.88 55.1692ZM107.089 55.898L104.921 55.5361L106.426 54.5765L108.594 54.9384L107.089 55.898ZM111.425 56.6219L109.257 56.2599L110.762 55.3003L112.93 55.6622L111.425 56.6219ZM115.971 57.337L113.803 56.9751L115.097 56.0242L117.265 56.3858L115.971 57.337ZM120.391 58.0574L118.223 57.6954L119.433 56.7477L121.601 57.1096L120.391 58.0574ZM124.601 58.7861L122.432 58.4245L123.769 57.4716L125.937 57.8335L124.601 58.7861ZM128.156 59.4494L127.072 59.2684L128.105 58.1954L129.188 58.3761C130.833 58.6507 129.384 59.6544 128.156 59.4494Z" fill="#373248"/>
<path fill-rule="evenodd" clip-rule="evenodd" d="M96.1618 57.0397L95.0781 56.859L96.1159 55.918L97.1996 56.0989L96.1618 57.0397ZM100.157 57.7774L97.9891 57.4155L99.3676 56.4609L101.535 56.8228L100.157 57.7774ZM104.366 58.5062L102.198 58.1443L103.703 57.1847L105.871 57.5466L104.366 58.5062ZM108.702 59.2298L106.534 58.8681L108.039 57.9082L110.207 58.2702L108.702 59.2298ZM113.249 59.9452L111.081 59.5833L112.375 58.6321L114.543 58.994L113.249 59.9452ZM117.668 60.6656L115.5 60.3036L116.71 59.3559L118.878 59.7178L117.668 60.6656ZM121.878 61.3943L119.71 61.0324L121.046 60.0798L123.214 60.4414L121.878 61.3943ZM125.433 62.0576L124.349 61.8766L125.382 60.8033L126.466 60.9843C128.11 61.2589 126.661 62.2623 125.433 62.0576Z" fill="#373248"/>
<path fill-rule="evenodd" clip-rule="evenodd" d="M104.334 49.5763L103.25 49.3954L104.288 48.4546L105.372 48.6355L104.334 49.5763ZM108.329 50.3138L106.161 49.9522L107.54 48.9975L109.708 49.3594L108.329 50.3138ZM112.538 51.0428L110.371 50.6809L111.875 49.7213L114.043 50.0832L112.538 51.0428ZM116.874 51.7664L114.706 51.4048L116.211 50.4449L118.379 50.8068L116.874 51.7664ZM121.421 52.4818L119.253 52.1199L120.547 51.1687L122.715 51.5306L121.421 52.4818ZM125.841 53.2022L123.673 52.8403L124.883 51.8925L127.05 52.2545L125.841 53.2022ZM130.05 53.931L127.882 53.569L129.218 52.6161L131.386 52.978L130.05 53.931ZM133.606 54.5939L132.522 54.4132L133.554 53.3399L134.638 53.5209C136.282 53.7955 134.834 54.7989 133.606 54.5939Z" fill="#A8BBDE"/>
<path fill-rule="evenodd" clip-rule="evenodd" d="M101.611 52.1852L100.527 52.0042L101.565 51.0635L102.649 51.2444L101.611 52.1852ZM105.607 52.9227L103.439 52.561L104.817 51.6064L106.985 51.9683L105.607 52.9227ZM109.816 53.6517L107.648 53.2898L109.153 52.3302L111.321 52.6918L109.816 53.6517ZM114.151 54.3753L111.983 54.0134L113.488 53.0537L115.656 53.4157L114.151 54.3753ZM118.698 55.0907L116.53 54.7288L117.824 53.7776L119.992 54.1395L118.698 55.0907ZM123.118 55.8111L120.95 55.4491L122.16 54.5014L124.328 54.8631L123.118 55.8111ZM127.327 56.5398L125.159 56.1779L126.495 55.225L128.663 55.5869L127.327 56.5398ZM130.883 57.2028L129.799 57.0218L130.831 55.9488L131.915 56.1298C133.56 56.4041 132.111 57.4078 130.883 57.2028Z" fill="#A8BBDE"/>
<path fill-rule="evenodd" clip-rule="evenodd" d="M98.8848 54.7931L97.8008 54.6121L98.8386 53.6714L99.9226 53.8523L98.8848 54.7931ZM102.88 55.5306L100.712 55.1687L102.09 54.2143L104.258 54.5759L102.88 55.5306ZM107.089 56.2593L104.921 55.8974L106.426 54.9378L108.594 55.2997L107.089 56.2593ZM111.425 56.9832L109.257 56.6213L110.762 55.6617L112.93 56.0236L111.425 56.9832ZM115.971 57.6983L113.803 57.3364L115.097 56.3855L117.265 56.7471L115.971 57.6983ZM120.391 58.4187L118.223 58.0568L119.433 57.109L121.601 57.471L120.391 58.4187ZM124.601 59.1475L122.432 58.7858L123.769 57.8329L125.937 58.1948L124.601 59.1475ZM128.156 59.8107L127.072 59.6297L128.105 58.5567L129.188 58.7377C130.833 59.012 129.384 60.0157 128.156 59.8107Z" fill="#A8BBDE"/>
<path fill-rule="evenodd" clip-rule="evenodd" d="M96.1618 57.401L95.0781 57.2201L96.1159 56.2793L97.1996 56.46L96.1618 57.401ZM100.157 58.1385L97.9891 57.7766L99.3676 56.8219L101.535 57.1838L100.157 58.1385ZM104.366 58.8673L102.198 58.5053L103.703 57.5457L105.871 57.9076L104.366 58.8673ZM108.702 59.5911L106.534 59.2292L108.039 58.2696L110.207 58.6312L108.702 59.5911ZM113.249 60.3062L111.081 59.9443L112.375 58.9931L114.543 59.355L113.249 60.3062ZM117.668 61.0266L115.5 60.6647L116.71 59.717L118.878 60.0789L117.668 61.0266ZM121.878 61.7554L119.71 61.3935L121.046 60.4408L123.214 60.8024L121.878 61.7554ZM125.433 62.4186L124.349 62.2376L125.382 61.1644L126.466 61.3453C128.11 61.6199 126.661 62.6236 125.433 62.4186Z" fill="#A8BBDE"/>
<path fill-rule="evenodd" clip-rule="evenodd" d="M133.007 28.4699L130.737 28.1146C128.634 27.7854 129.441 31.5998 133.255 32.0516C133.698 32.1041 134.263 32.1844 134.916 32.2856L133.007 28.4699ZM136.288 35.0296L133.982 34.6689C131.879 34.3397 132.686 38.1541 136.5 38.6059C136.951 38.6593 137.528 38.7416 138.196 38.8454L136.288 35.0296ZM139.569 41.5891L137.227 41.2226C135.124 40.8934 135.931 44.7081 139.745 45.1596C140.204 45.2141 140.794 45.2985 141.477 45.4049L139.569 41.5891Z" fill="#040404" fill-opacity="0.33"/>
<path fill-rule="evenodd" clip-rule="evenodd" d="M102.049 38.4293L115.981 40.9149L115.089 38.7373L101.036 36.4039L102.049 38.4293ZM99.7357 33.8047L114.104 36.368L113.212 34.1907L98.726 31.7854L99.7357 33.8047ZM97.6192 29.573C102.048 30.3821 106.467 31.2489 106.467 31.2489C110.453 31.873 108.597 27.6735 105.931 27.2562L95.6562 25.6482L97.6192 29.573Z" fill="black" fill-opacity="0.14"/>
<path d="M85.2256 25.5208L103.903 28.444C106.569 28.8613 108.425 33.0605 104.439 32.4367C104.439 32.4367 91.5567 29.9096 87.7428 29.4579C83.9292 29.0062 83.1219 25.1917 85.2256 25.5208Z" fill="#FDD17B"/>
<path d="M127.629 29.0853L146.306 32.0084C148.972 32.4257 150.828 36.6249 146.842 36.0012C146.842 36.0012 133.96 33.4741 130.146 33.0223C126.332 32.5707 125.525 28.7561 127.629 29.0853Z" fill="#A8BBDE"/>
<path d="M130.873 35.6392L149.551 38.5624C152.217 38.9798 154.073 43.1793 150.087 42.5552C150.087 42.5552 137.205 40.0281 133.391 39.5763C129.577 39.1248 128.77 35.3101 130.873 35.6392Z" fill="#A8BBDE"/>
<path d="M134.12 42.1932L152.798 45.1164C155.464 45.5337 157.32 49.7329 153.333 49.1091C153.333 49.1091 140.451 46.5821 136.638 46.1302C132.824 45.6784 132.017 41.8641 134.12 42.1932Z" fill="#A8BBDE"/>
<path d="M94.293 32.5735L111.188 35.3784L112.079 37.556L95.3828 34.5771L94.293 32.5735Z" fill="#FDD17B"/>
<path d="M96.1685 37.1201L113.063 39.9253L113.954 42.1026L97.2583 39.1237L96.1685 37.1201Z" fill="#FDD17B"/>
<path opacity="0.9" d="M118 14.8852L100.613 11.9954L107.799 27.7217L124.914 30.7122L118 14.8852Z" fill="white" fill-opacity="0.54"/>
<path d="M105.157 15.5178L116.038 17.3319L116.641 18.7335L105.777 16.8249L105.157 15.5178Z" fill="black" fill-opacity="0.1"/>
<path d="M106.496 18.4646L117.316 20.2574L117.889 21.6519L107.116 19.7313L106.496 18.4646Z" fill="black" fill-opacity="0.1"/>
<path d="M107.719 21.094L118.432 22.8786L119.041 24.2914L108.307 22.3652L107.719 21.094Z" fill="black" fill-opacity="0.1"/>
<path d="M109.055 24.0227L119.734 25.8255L120.367 27.1901L109.667 25.3474L109.055 24.0227Z" fill="black" fill-opacity="0.1"/>
<path d="M104.539 16.4221L115.419 18.2362L116.023 19.6378L105.159 17.7292L104.539 16.4221Z" fill="#204EA9"/>
<path d="M105.875 19.3689L116.695 21.1618L117.268 22.5562L106.496 20.6357L105.875 19.3689Z" fill="#204EA9"/>
<path d="M107.101 21.9985L117.815 23.7831L118.423 25.1959L107.69 23.2697L107.101 21.9985Z" fill="#204EA9"/>
<path d="M108.437 24.927L119.116 26.7298L119.749 28.0944L109.05 26.2517L108.437 24.927Z" fill="#204EA9"/>
<path d="M141.306 38.4312C141.25 38.3735 141.158 38.3717 141.1 38.4271C141.041 38.4828 141.04 38.5744 141.095 38.6322L141.306 38.4312ZM142.141 39.5013L142.22 39.6228L142.369 39.5274L142.246 39.4007L142.141 39.5013ZM141.228 39.9151C141.16 39.9589 141.141 40.0485 141.185 40.1158C141.229 40.1831 141.319 40.2022 141.387 40.1584L141.228 39.9151ZM141.095 38.6322L142.035 39.6016L142.246 39.4007L141.306 38.4312L141.095 38.6322ZM142.061 39.3795L141.228 39.9151L141.387 40.1584L142.22 39.6228L142.061 39.3795Z" fill="#E8ECFA"/>
<path d="M138.616 38.1994C138.666 38.1373 138.759 38.1277 138.821 38.1779C138.884 38.2284 138.894 38.3197 138.843 38.3821L138.616 38.1994ZM138.124 39.032L138.037 39.1488L137.914 39.0586L138.01 38.9406L138.124 39.032ZM138.993 39.4861C139.058 39.5334 139.072 39.6241 139.024 39.6888C138.976 39.7532 138.885 39.7671 138.819 39.7195L138.993 39.4861ZM138.843 38.3821L138.238 39.1233L138.01 38.9406L138.616 38.1994L138.843 38.3821ZM138.211 38.9151L138.993 39.4861L138.819 39.7195L138.037 39.1488L138.211 38.9151Z" fill="#E8ECFA"/>
<path d="M180.293 15.5059L169.288 18.1016L169.749 20.0217L180.754 17.4259L180.293 15.5059Z" fill="#204EA9"/>
<path d="M209.711 12.1708L170.105 21.5129L170.566 23.433L210.172 14.0909L209.711 12.1708Z" fill="#204EA9"/>
<path d="M210.531 15.582L170.926 24.9241L171.387 26.8442L210.992 17.5021L210.531 15.582Z" fill="#204EA9"/>
<path d="M183.567 29.1511L172.563 31.7468L173.023 33.6669L184.028 31.0712L183.567 29.1511Z" fill="#204EA9"/>
<path d="M194.949 30.0705L173.383 35.1575L173.844 37.0776L195.41 31.9906L194.949 30.0705Z" fill="#204EA9"/>
<path d="M186.023 39.3845L175.019 41.9802L175.48 43.9003L186.484 41.3046L186.023 39.3845Z" fill="#204EA9"/>
<path d="M197.406 40.3045L175.84 45.3914L176.301 47.3115L197.866 42.2246L197.406 40.3045Z" fill="#204EA9"/>
<path d="M188.481 49.6182L177.477 52.2139L177.937 54.134L188.942 51.5382L188.481 49.6182Z" fill="#204EA9"/>
<path d="M217.897 46.2833L178.293 55.625L178.754 57.5451L218.357 48.2034L217.897 46.2833Z" fill="#204EA9"/>
<path d="M218.717 49.6945L179.113 59.0361L179.574 60.9562L219.177 51.6146L218.717 49.6945Z" fill="#204EA9"/>
<path d="M34.6509 14.2602L23.3977 13.1218L23.1956 15.0853L34.4488 16.2236L34.6509 14.2602Z" fill="#204EA9"/>
<path d="M61.1073 20.461L23.0386 16.6101L22.8365 18.5736L60.9052 22.4245L61.1073 20.461Z" fill="#204EA9"/>
<path d="M60.7484 23.9493L22.6797 20.0984L22.4776 22.0619L60.5463 25.9128L60.7484 23.9493Z" fill="#204EA9"/>
<path d="M33.2141 28.2138L21.9609 27.0754L21.7589 29.0389L33.012 30.1773L33.2141 28.2138Z" fill="#204EA9"/>
<path d="M47.9914 33.2332L21.6016 30.5637L21.3995 32.5272L47.7894 35.1967L47.9914 33.2332Z" fill="#204EA9"/>
<path d="M32.1399 38.6786L20.8867 37.5403L20.6847 39.5038L31.9378 40.6421L32.1399 38.6786Z" fill="#204EA9"/>
<path d="M46.9162 43.6983L20.5269 41.0288L20.3248 42.9923L46.7141 45.6618L46.9162 43.6983Z" fill="#204EA9"/>
<path d="M31.0622 49.1437L19.8091 48.0054L19.607 49.9689L30.8602 51.1072L31.0622 49.1437Z" fill="#204EA9"/>
<path fill-rule="evenodd" clip-rule="evenodd" d="M154.155 103.367C148.867 104.069 143.944 105.009 141.068 105.651L139.492 99.6307C142.597 98.9376 147.768 97.9519 153.321 97.215C158.819 96.4857 171.641 95.014 176.562 95.3512L175.686 101.558C171.634 101.281 159.497 102.658 154.155 103.367Z" fill="#9D7F7F"/>
<path fill-rule="evenodd" clip-rule="evenodd" d="M148.887 126.881C144.895 125.771 141.078 124.978 138.816 124.593L139.779 119.039C142.221 119.455 146.228 120.289 150.422 121.454C154.574 122.608 164.176 125.492 167.55 127.355L164.784 132.278C162.006 130.744 152.922 128.002 148.887 126.881Z" fill="#6A5050"/>
<path fill-rule="evenodd" clip-rule="evenodd" d="M76.3048 80.8342C79.9634 77.601 83.4594 73.5731 84.2597 69.3618C85.0567 65.1669 85.7175 60.4547 87.545 56.5174C88.1353 55.2454 88.5541 54.5593 89.6148 53.5759C90.7985 52.478 92.6562 52.5394 93.7636 53.7131C95.7742 55.844 93.7662 55.2237 92.8732 57.1481C91.7778 57.68 91.0205 59.6923 90.6101 61.0321C89.79 63.7079 89.4773 70.2648 89.1506 71.9845C88.0159 77.9545 84.3735 81.5012 80.2115 85.1792C76.0542 88.8532 71.2569 91.5059 67.7644 92.4464C66.1998 92.8677 64.587 91.9519 64.162 90.401C63.737 88.8498 64.6607 87.2507 66.2253 86.8293C68.6282 86.1821 72.6416 84.0717 76.3048 80.8342Z" fill="#6A5050"/>
<path fill-rule="evenodd" clip-rule="evenodd" d="M73.8091 92.2877C70.0706 95.2353 64.4102 88.9457 64.4102 88.9457C64.4102 88.9457 67.6271 85.5513 73.1703 82.1084C73.1703 82.1084 75.8849 85.7659 77.0944 88.1775C77.5806 89.1464 74.829 91.4835 73.8091 92.2877Z" fill="#A8BBDE"/>
<path fill-rule="evenodd" clip-rule="evenodd" d="M65.6187 106.283C69.1448 117.881 71.3605 125.691 81.827 136.23C82.1339 136.54 82.7151 137.063 83.0754 137.231C87.5153 141.271 92.9204 144.047 98.5033 143.682C106.207 143.178 112.663 137.856 118.224 133.272C121.771 130.349 124.953 127.725 127.863 126.843C133.84 125.031 147.345 130.425 153.35 133.348C160.18 128.284 160.789 116.282 155.813 110.115C152.807 106.389 154.672 102.609 156.3 99.3076C157.368 97.1448 158.333 95.1879 157.76 93.5874C145.341 93.6549 128.654 94.7047 117.889 101.557C117.89 101.555 117.891 101.555 117.891 101.555C117.891 101.555 117.887 101.557 117.88 101.563C116.803 102.249 115.785 102.994 114.836 103.801C109.066 107.894 96.67 115.925 91.4137 113.466C90.9089 113.23 90.297 112.839 89.6213 112.407C87.5767 111.101 83.2834 110.513 81.2839 111.628C83.9126 109.754 83.0143 108.08 82.1087 106.844C81.5109 106.028 82.0701 102.835 82.2497 101.506C83.8453 89.7025 68.2805 84.417 68.2805 84.417C68.2805 84.417 68.0371 86.3342 63.6031 86.5578C62.9538 86.5905 62.3097 86.2338 61.5694 85.8241C60.6246 85.3009 59.5233 84.691 58.0547 84.6936C61.6928 93.3696 63.7976 100.293 65.6187 106.283Z" fill="#204EA9"/>
<path fill-rule="evenodd" clip-rule="evenodd" d="M82.0717 136.518C71.6154 125.989 69.1482 117.897 65.6274 106.317C65.6241 106.305 65.6206 106.294 65.6171 106.283C63.858 100.496 61.8339 93.8388 58.4187 85.5717C59.2471 85.4381 59.9207 85.3148 60.3615 85.2061C60.7967 85.3969 61.1945 85.617 61.5678 85.8238L82.0717 136.518ZM61.5698 85.8249C62.4643 86.7051 63.0124 87.7273 63.6331 88.8847C64.1771 89.8997 64.7771 91.0182 65.7148 92.2362C68.7861 96.2258 69.8046 96.8774 70.7125 97.4586C71.4677 97.942 72.1466 98.3764 73.8665 100.641C72.6169 102.253 74.2979 105.563 75.4975 107.924C75.9652 108.844 76.3595 109.621 76.4788 110.096C81.0994 128.531 93.6711 134.244 104.798 125.895C118.782 115.403 141.85 106.989 154.459 107.582C154.468 107.611 154.476 107.639 154.484 107.667C154.729 108.482 155.154 109.3 155.812 110.115C155.831 110.139 155.85 110.163 155.869 110.187C156.467 110.939 156.982 111.777 157.414 112.676C157.799 113.475 158.118 114.324 158.37 115.206C160.119 121.322 158.672 129.035 153.763 133.026C152.316 132.43 150.752 131.823 149.137 131.248C148.981 131.193 148.825 131.137 148.668 131.082C147.84 130.793 147.001 130.512 146.159 130.247C146.099 130.224 146.04 130.201 145.98 130.179C139.638 127.757 131.971 125.597 127.861 126.843C124.952 127.725 121.769 130.348 118.223 133.272C118.197 133.293 118.172 133.314 118.146 133.334C116.492 134.698 114.59 136.247 112.534 137.763C108.355 140.794 103.714 143.341 98.5014 143.682C92.9188 144.047 87.5137 141.271 83.0738 137.231C82.7135 137.063 82.3785 136.827 82.0717 136.518" fill="black" fill-opacity="0.21"/>
<path d="M124.841 52.7066C123.519 49.8953 121.764 50.221 121.764 50.221L117.433 51.0289C117.433 51.0289 114.656 53.6453 110.019 58.2694C110.494 59.0016 110.886 60.4052 112.874 61.752C113.372 62.0895 116.175 63.9238 121.144 58.9288C126.812 58.3807 126.749 56.7651 124.841 52.7066Z" fill="#9D7F7F"/>
<path d="M101.209 49.0579C100.201 46.9153 98.8638 47.1636 98.8638 47.1636L95.5633 47.7792C95.5633 47.7792 92.1507 49.4554 88.8826 54.2738C89.2444 54.8317 90.5747 54.9243 92.0895 55.9506C92.4692 56.2078 93.8115 56.1019 97.5979 52.2957C101.917 51.8778 102.663 52.1504 101.209 49.0579Z" fill="#6A5050"/>
<path d="M97.0279 56.9555C95.864 57.7344 93.2666 57.416 92.1133 57.1593L92.2157 54.306L95.778 52.2227C95.8625 52.8441 96.1837 54.1219 96.7921 54.2614C97.552 54.4354 98.5673 53.9586 99.3301 54.3919C100.093 54.8254 98.4828 55.9819 97.0279 56.9555Z" fill="#6A5050"/>
<path d="M167.216 127.342L163.283 131.27C162.164 132.147 162.203 130.893 161.389 131.337C160.574 131.782 163.168 135.608 164.385 136.973C165.601 138.337 168.375 135.136 170.769 132.681C173.164 130.227 178.64 128.341 179.75 127.536C180.862 126.73 183.069 124.08 183.203 122.945C183.338 121.81 181.275 120.851 179.499 122.37C178.078 123.586 171.177 125.55 167.216 127.342Z" fill="#FDD17B"/>
<path d="M165.395 126.349C166.037 126.667 166.223 128.165 166.235 128.875L167.044 129.524L172.863 128.729C173.149 127.697 173.415 125.745 172.185 126.192C170.955 126.639 167.217 125.451 165.502 124.801C165.199 125.185 164.753 126.031 165.395 126.349Z" fill="#FDD17B"/>
<path d="M166.34 136.736C165.652 137.126 164.159 136.406 163.499 135.997C163.445 136.779 163.68 136.863 165.254 138.506C166.828 140.149 170.854 136.188 171.441 135.17C172.028 134.151 175.635 130.777 177.348 130.893C179.062 131.01 183.799 125.732 184.009 124.176C184.178 122.931 183.083 122.049 182.524 121.829C184.311 125.876 174.336 130.143 172.893 130.591C171.45 131.04 167.2 136.248 166.34 136.736Z" fill="#204EA9"/>
<path d="M170.291 123.691L170.291 123.691C170.022 123.704 169.846 123.927 169.897 124.188L170.496 127.245C170.548 127.507 170.807 127.708 171.075 127.695C171.343 127.682 171.519 127.46 171.468 127.198L170.869 124.141C170.818 123.88 170.559 123.678 170.291 123.691Z" fill="#204EA9"/>
<path d="M173.19 122.739L173.19 122.739C172.922 122.752 172.746 122.974 172.797 123.236L173.396 126.293C173.447 126.554 173.706 126.756 173.974 126.743C174.243 126.73 174.419 126.507 174.368 126.245L173.769 123.188C173.718 122.927 173.458 122.726 173.19 122.739Z" fill="#204EA9"/>
<path d="M176.163 95.7383L173.411 100.957C172.551 102.197 172.194 100.91 171.507 101.616C170.821 102.322 174.671 105.402 176.34 106.409C178.009 107.416 179.812 103.298 181.467 100.057C183.122 96.8156 188.446 92.6936 189.319 91.5284C190.193 90.3632 191.239 87.4797 191.015 86.284C190.792 85.0883 188.391 84.7566 187.068 86.8544C186.01 88.533 179.619 92.6814 176.163 95.7383Z" fill="#FDD17B"/>
<path d="M173.996 95.2961C174.749 95.4187 175.413 96.8838 175.651 97.601L176.679 98.0087L182.341 95.3868C182.304 94.2486 181.955 92.1812 180.847 93.019C179.739 93.8568 175.563 93.8156 173.613 93.69C173.427 94.1743 173.243 95.1731 173.996 95.2961Z" fill="#FDD17B"/>
<path d="M178.255 105.557C177.68 106.169 175.934 105.902 175.133 105.693C175.326 106.504 175.592 106.516 177.713 107.695C179.834 108.874 182.669 103.593 182.942 102.375C183.215 101.157 185.811 96.6031 187.59 96.1866C189.368 95.7705 192.508 88.9294 192.228 87.2825C192.005 85.9647 190.612 85.4097 189.974 85.3604C193.074 88.9163 184.29 96.3635 182.965 97.2692C181.642 98.1749 178.974 104.793 178.255 105.557Z" fill="#204EA9"/>
<path d="M178.858 91.3453C178.723 91.0955 178.396 90.9716 178.127 91.0686C177.858 91.1655 177.75 91.4467 177.885 91.6965L179.464 94.6166C179.599 94.8664 179.926 94.9903 180.194 94.8934C180.463 94.7964 180.571 94.5153 180.436 94.2655L178.858 91.3453Z" fill="#204EA9"/>
<path d="M181.502 89.4723C181.367 89.2225 181.04 89.0986 180.772 89.1955C180.503 89.2925 180.395 89.5736 180.53 89.8234L182.108 92.7436C182.243 92.9934 182.57 93.1173 182.839 93.0204C183.108 92.9234 183.216 92.6423 183.081 92.3925L181.502 89.4723Z" fill="#204EA9"/>
<path d="M85.7581 109.366C86.9857 107.055 91.835 102.117 93.9618 104.885C96.0889 107.652 89.1104 107.829 85.7581 109.366Z" stroke="#78D2EE"/>
<path d="M68.0793 60.9624L66.4478 65.9495C66.4478 65.9495 64.8352 66.0954 64.111 65.4872C63.6301 65.0833 63.1507 64.2008 63.1507 64.2008C63.0767 65.2248 64.1358 67.1225 65.5331 68.9165C67.2796 71.1588 67.5048 79.4037 65.0821 81.7275C62.6593 84.0516 59.6983 95.0968 66.46 103.645C73.2218 112.192 71.7806 125.589 68.3639 131.884C65.6273 136.926 57.5768 125.16 48.958 126.291C44.763 126.841 31.754 139.008 28.0471 134.585C24.2768 130.086 34.4869 110.174 30.1883 107.294C9.02661 93.1184 46.6809 80.8526 48.1928 73.9564C50.5375 63.2644 51.7926 60.9757 57.4864 58.81C62.449 56.9226 65.6419 59.3888 68.0793 60.9624Z" fill="#204EA9"/>
<path d="M67.3729 63.1172L66.4465 65.9496C66.4465 65.9496 64.8337 66.0955 64.1094 65.4874C63.6286 65.0834 63.1492 64.2009 63.1492 64.2009C63.0752 65.2249 64.1343 67.1227 65.5316 68.9166C67.2781 71.1589 67.5033 79.4039 65.0805 81.7276C64.215 82.5579 63.2811 84.5003 62.7461 87.0445C65.6936 86.6916 68.313 87.126 68.313 87.126C68.313 87.126 68.5557 79.729 67.3366 75.8691C69.246 75.3421 71.4401 74.4408 72.0084 73.0059C72.4477 71.8975 71.837 69.766 70.5354 67.4553C70.8112 67.0568 70.9566 66.6352 70.7305 66.3136C70.5327 66.032 69.9094 65.6698 69.1603 65.3119C68.6201 64.5631 68.0202 63.8225 67.3729 63.1172Z" fill="#9D7F7F"/>
<path fill-rule="evenodd" clip-rule="evenodd" d="M85.1402 109.708C84.9223 109.698 84.7143 109.689 84.7316 109.309C84.7368 109.192 84.7582 109.076 84.7778 108.967C84.8281 108.691 84.8687 108.468 84.6131 108.422C84.3472 108.375 80.2867 111.112 77.6604 112.881C76.7709 113.48 76.0461 113.969 75.6889 114.201C75.0741 114.6 71.1558 116.323 71.1558 116.323L71.2148 119.513H71.2716C73.2071 118.722 75.4093 117.821 77.1298 116.819C79.4938 115.443 85.7211 110.56 85.5939 109.992C85.5342 109.725 85.3332 109.716 85.1402 109.708Z" fill="#A8BBDE"/>
<path fill-rule="evenodd" clip-rule="evenodd" d="M85.915 85.4117C93.5899 81.129 100.98 71.7391 105.402 64.1213C107.436 60.6164 110.713 56.3328 115.786 55.5698L116.786 62.1096C115.009 62.3767 112.147 62.7145 110.219 66.0356C103.879 76.9596 98.7648 87.9083 87.116 94.4086C80.1027 98.3219 74.6944 99.8421 69.8734 99.9363C68.0316 99.9723 66.5091 98.5208 66.4728 96.6947C66.4366 94.8686 67.4983 92.3169 69.3402 92.2809C72.5697 92.218 79.3177 89.0932 85.915 85.4117Z" fill="#9D7F7F"/>
<path d="M84.4871 109.531C84.1329 107.41 84.8354 101.783 87.6177 102.549C90.3997 103.314 85.9139 106.871 84.4871 109.531Z" stroke="#78D2EE"/>
<path d="M88.7093 112.106C87.2732 110.005 84.5394 109.968 83.8047 110.247L83.9044 110.86C85.0619 111.232 87.2497 111.224 87.9254 112.509C88.874 114.313 91.0046 117.65 91.8692 117.696C92.515 117.731 92.9234 117.127 93.1764 116.687C92.7116 116.873 90.5044 114.732 88.7093 112.106Z" fill="#A8BBDE"/>
<path d="M89.7078 109.962C86.8981 108.213 84.9805 109.443 84.5101 110.19L84.4297 110.654C86.8648 109.044 88.0441 109.726 89.1281 110.788C90.0103 111.653 94.4013 111.621 95.6588 110.94C96.1116 110.695 96.0803 110.239 96.0519 109.673C95.7597 110.154 91.6691 111.182 89.7078 109.962Z" fill="#A8BBDE"/>
<path fill-rule="evenodd" clip-rule="evenodd" d="M68.389 99.1344C70.2738 100.005 72.5562 99.6294 76.0577 99.1701C74.8538 102.014 70.8998 103.003 68.0815 102.202C65.9826 101.605 64.2322 98.6942 64.0638 96.7616C63.9008 94.8917 63.7186 93.2857 65.5146 91.8113C68.0751 89.7088 71.4064 90.6041 72.1072 91.6576C69.294 92.2811 66.3336 92.8759 66.6427 96.4232C66.7077 97.1688 67.0985 98.5382 68.389 99.1344Z" fill="#204EA9"/>
<path d="M52.0515 134.173C49.3921 131.187 44.7223 123.884 47.3197 118.557C50.5668 111.898 55.6975 106.961 52.7974 102.585" stroke="#78D2EE" stroke-width="0.25" stroke-linecap="round"/>
<path d="M34.4336 82.262C37.9451 82.1295 45.5474 81.0005 47.8655 77.5472C50.7633 73.2308 46.2015 61.3643 57.9406 58.8398" stroke="#78D2EE" stroke-width="0.25" stroke-linecap="round"/>
</svg>
