<svg width="209" height="171" viewBox="0 0 209 171" fill="none" xmlns="http://www.w3.org/2000/svg">
<g clip-path="url(#clip0_329_19939)">
<path d="M200.332 32.446C200.332 62.0997 131.666 136.515 102.012 136.515C72.3578 136.515 6.11157 92.6548 6.11157 63.0008C6.11157 33.347 48.6597 6.29693 80.1762 1.52246C111.693 -3.25198 200.332 2.79198 200.332 32.446Z" fill="#FBFBF6"/>
<g style="mix-blend-mode:multiply">
<rect x="9.36914" y="87.6553" width="67.4629" height="7.56311" fill="#FBFBF6"/>
</g>
<g style="mix-blend-mode:multiply">
<rect x="9.36914" y="99.7764" width="67.4629" height="7.56311" fill="#FBFBF6"/>
</g>
<g style="mix-blend-mode:multiply">
<rect x="9.36914" y="111.897" width="67.4629" height="7.56311" fill="#FBFBF6"/>
</g>
<rect x="10.886" y="125.728" width="10.7863" height="10.7863" fill="#FBFBF6"/>
<rect x="28.5088" y="125.728" width="10.7863" height="10.7863" fill="#FBFBF6"/>
<rect x="46.1318" y="125.728" width="10.7863" height="10.7863" fill="#FBFBF6"/>
<rect x="63.7546" y="125.728" width="10.7863" height="10.7863" fill="#FBFBF6"/>
<g style="mix-blend-mode:multiply">
<rect x="74.541" y="43.6782" width="130.781" height="7.56311" fill="#FBFBF6"/>
</g>
<path d="M118.998 92.2642C152.379 110.704 173.749 95.5737 202.591 98.5052" stroke="#F1D19D" stroke-width="0.5" stroke-linecap="round"/>
<g style="mix-blend-mode:multiply">
<rect x="137.859" y="58.0781" width="67.4629" height="7.56311" fill="#FBFBF6"/>
</g>
<g style="mix-blend-mode:multiply">
<rect x="127.452" y="72.4775" width="77.8693" height="7.56311" fill="#FBFBF6"/>
</g>
<path d="M20.3529 57.4357C19.5089 59.7688 23.9203 74.2655 27.0034 78.1926C28.0334 77.3523 35.7042 75.9063 36.7671 73.3582C38.0954 70.1726 35.4205 55.3722 35.0482 53.5174C34.6756 51.6627 30.9496 60.4818 30.9496 60.4818C30.9496 60.4818 30.0659 49.6541 29.1877 47.7102C28.7852 46.8191 22.0986 52.6107 20.3529 57.4357Z" fill="#E1AE8F"/>
<path d="M22.8742 61.2448C22.1353 58.5836 21.5431 56.2098 21.1309 53.9941" stroke="#2A7BBC" stroke-width="0.5" stroke-linecap="round"/>
<path d="M25.0707 59.7484C24.7212 58.3677 23.3989 52.8006 23.126 51.2412" stroke="#2A7BBC" stroke-width="0.5" stroke-linecap="round"/>
<path d="M27.7412 58.542C27.108 55.7355 26.0745 50.1414 25.8523 48.2559" stroke="#2A7BBC" stroke-width="0.5" stroke-linecap="round"/>
<path d="M172.995 67.4024C174.772 69.1346 177.116 84.1051 176.052 88.9831C174.759 88.6754 167.224 90.7159 165.157 88.8851C162.574 86.5968 158.975 75.2552 158.543 73.5836C158.071 71.752 164.784 74.7607 164.784 74.7607C164.784 74.7607 160.862 64.6295 160.806 62.4973C160.78 61.5196 169.322 63.8199 172.995 67.4024Z" fill="#E1AE8F"/>
<path d="M172.385 71.9295C171.891 69.2122 171.39 66.8174 170.795 64.6436" stroke="#2A7BBC" stroke-width="0.5" stroke-linecap="round"/>
<path d="M169.756 71.5401C169.47 70.1445 168.234 64.5575 167.801 63.0352" stroke="#2A7BBC" stroke-width="0.5" stroke-linecap="round"/>
<path d="M166.827 71.6178C166.174 68.8155 164.667 63.3299 164.046 61.5361" stroke="#2A7BBC" stroke-width="0.5" stroke-linecap="round"/>
<path d="M169.96 83.3319C174.342 100.15 176.73 118.35 169.012 119.574C130.165 125.732 123.707 114.832 101.037 118.319C87.6345 120.381 39.2486 114.684 30.4084 71.3955" stroke="#F1D19D" stroke-width="17.957"/>
<path d="M64.9758 116.497L146.052 121.548C146.052 121.548 146.472 136.482 139.211 146.768C131.951 157.054 91.1298 152.611 80.3049 150.902C69.4801 149.192 68.9508 140.924 64.9758 116.497Z" fill="#F1D19D"/>
<path fill-rule="evenodd" clip-rule="evenodd" d="M84.9499 38.3071C84.9498 38.3071 84.9498 38.3071 84.9497 38.3071L84.9391 38.0226C84.9392 38.0226 84.9393 38.0226 84.9394 38.0226L84.9499 38.3071ZM84.9499 38.3071C85.0284 38.3041 85.0898 38.2381 85.0867 38.1596C85.0838 38.081 85.0177 38.0197 84.9391 38.0226V38.0226C75.419 38.3784 65.3327 40.9874 61.4766 42.2479L61.5652 42.5188C65.4057 41.2632 75.4648 38.6618 84.9499 38.3071Z" fill="#F1D19D"/>
<path d="M193.707 12.0486C198.739 12.6613 208.817 15.4685 208.868 21.7957C208.919 28.1228 207.627 33.3595 206.975 35.1872" stroke="#F1D19D" stroke-width="0.5"/>
<path d="M15.3743 25.272C18.933 20.7426 30.3701 9.69395 47.6465 1.73511" stroke="#F1D19D" stroke-width="0.5"/>
<path fill-rule="evenodd" clip-rule="evenodd" d="M101.787 138.791C114.911 139.821 125.542 138.454 139.723 132.402C140.408 132.11 141.205 132.251 141.74 132.769C126.754 139.338 114.938 141.38 103.911 140.796C92.9026 140.214 82.6315 137.009 79.5211 135.369C79.173 135.185 79.0397 134.755 79.2234 134.407C79.4069 134.059 79.8376 133.925 80.1854 134.109C83.0696 135.63 90.9285 138.216 101.787 138.791Z" fill="#66B6E0"/>
<path fill-rule="evenodd" clip-rule="evenodd" d="M87.6998 123.815C100.433 127.159 111.137 127.7 126.167 124.263C126.893 124.097 127.652 124.377 128.087 124.982C112.173 128.786 100.182 128.698 89.4338 126.165C78.7038 123.637 69.1646 118.661 66.3948 116.494C66.0852 116.251 66.0305 115.804 66.2729 115.494C66.5151 115.184 66.9629 115.13 67.2725 115.372C69.8408 117.381 77.1157 121.321 87.6998 123.815Z" fill="#66B6E0"/>
<path d="M147.559 112.4C146.618 112.698 145.705 112.465 145.519 111.88C145.334 111.295 145.71 110.841 146.65 110.543C147.592 110.246 148.83 109.979 149.015 110.565C149.2 111.15 148.499 112.103 147.559 112.4Z" fill="#521F20" fill-opacity="0.2"/>
<path d="M39.0279 99.716C39.425 100.619 40.8562 102.615 39.9526 103.012C39.049 103.41 36.5379 102.223 36.1408 101.319C35.7434 100.416 34.537 98.0065 35.4403 97.6091C36.3439 97.2117 38.6305 98.8124 39.0279 99.716Z" fill="#521F20" fill-opacity="0.2"/>
<path d="M88.8108 143.431C88.8108 144.419 88.0106 144.773 87.0235 144.773C86.0365 144.773 85.2366 144.419 85.2366 143.431C85.2366 142.445 86.0365 141.645 87.0235 141.645C88.0106 141.645 88.8108 142.445 88.8108 143.431Z" fill="#521F20" fill-opacity="0.2"/>
<path d="M163.474 52.3276C171.68 52.3276 178.332 45.6755 178.332 37.4697C178.332 29.2639 171.68 22.6118 163.474 22.6118C155.268 22.6118 148.616 29.2639 148.616 37.4697C148.616 45.6755 155.268 52.3276 163.474 52.3276Z" fill="#6C92FF"/>
<rect x="33.2935" y="25.668" width="17.8407" height="17.8407" transform="rotate(-20.4593 33.2935 25.668)" fill="#3366E9"/>
<rect x="91.9849" y="7.14258" width="22.4748" height="22.4748" rx="7.69584" fill="#7BCFF1"/>
<path d="M31.5694 58.4664C27.1127 74.1797 13.7346 85.8643 4.4577 73.7527C-17.9718 44.4698 70.8014 18.2623 102.881 18.9805C149.569 20.0257 256.543 86.2013 162.521 71.8661" stroke="#F1D19D" stroke-width="0.855094" stroke-dasharray="1.07"/>
<rect x="41.7861" y="29.6177" width="3.92358" height="3.92358" transform="rotate(-20.4461 41.7861 29.6177)" fill="#F58F49"/>
<rect x="101.26" y="16.9294" width="3.92358" height="3.92358" fill="#F58F49"/>
<rect x="162.756" y="34.79" width="3.92358" height="3.92358" transform="rotate(30 162.756 34.79)" fill="#F58F49"/>
<path d="M34.7288 58.2794C34.7288 59.8824 33.4292 61.1819 31.8263 61.1819C30.2234 61.1819 28.9238 59.8824 28.9238 58.2794C28.9238 56.6765 30.2234 55.377 31.8263 55.377C33.4292 55.377 34.7288 56.6765 34.7288 58.2794Z" fill="#F58F49"/>
<path d="M162.175 73.9933C163.778 73.9933 165.077 72.6939 165.077 71.0909C165.077 69.4879 163.778 68.1885 162.175 68.1885C160.572 68.1885 159.272 69.4879 159.272 71.0909C159.272 72.6939 160.572 73.9933 162.175 73.9933Z" fill="#F58F49"/>
<path d="M94.663 108.687C96.6514 102.808 94.3164 99.8035 93.3159 91.3191C97.586 88.7507 109.47 84.8008 110.391 93.0616C111.396 102.079 113.772 104.954 112.462 110.636C110.957 117.163 91.1754 118.998 94.663 108.687Z" fill="#E1AE8F"/>
<path d="M89.8691 90.7116C91.1677 90.3345 91.6195 87.9597 90.8783 85.4073C90.1372 82.8549 88.4836 81.0915 87.185 81.4686C85.8864 81.8457 85.4346 84.2205 86.1758 86.7729C86.917 89.3252 88.5705 91.0887 89.8691 90.7116Z" fill="#DCAD76"/>
<path d="M113.762 90.7116C112.464 90.3345 112.012 87.9597 112.753 85.4073C113.494 82.8549 115.148 81.0915 116.446 81.4686C117.745 81.8457 118.197 84.2205 117.456 86.7729C116.714 89.3252 115.061 91.0887 113.762 90.7116Z" fill="#DCAD76"/>
<path d="M101.126 70.502C94.5153 70.502 87.1316 64.1652 87.1316 71.3646C87.8927 77.7743 89.3336 91.5429 90.2295 93.1111C91.1257 94.679 94.6417 97.5122 96.1353 99.0117C98.1413 100.526 100.586 101.345 103.099 101.345C105.227 101.345 107.049 100.622 109.097 99.2838C111.671 97.6022 112.796 95.0185 113.608 93.1547L113.627 93.1111C114.938 90.1018 114.584 87.5859 115.306 82.7634C115.306 79.0955 117.014 71.1945 114.435 69.8209C111.951 68.4985 104.369 70.502 101.126 70.502Z" fill="#F5BC9A"/>
<path d="M85.4045 72.0119L88.2862 81.9966C89.4997 83.9274 89.2975 74.6648 89.4997 71.4541L85.4045 72.0119Z" fill="#66B6E0" fill-opacity="0.6"/>
<path d="M118.352 68.7891L115.427 82.1888C115.087 74.98 116.275 75.4891 114.027 70.1462L118.352 68.7891Z" fill="#66B6E0" fill-opacity="0.6"/>
<path fill-rule="evenodd" clip-rule="evenodd" d="M104.923 94.9902C105.038 94.8851 105.047 94.7065 104.942 94.5911C104.837 94.4757 104.658 94.4669 104.543 94.572L104.923 94.9902ZM100.373 94.7129C100.267 94.5987 100.088 94.5918 99.974 94.6978C99.8595 94.804 99.8529 94.9826 99.9589 95.0972L100.373 94.7129ZM102.433 96.0328C101.53 96.0827 100.616 95.8064 99.9589 95.0976L100.373 94.7133C100.894 95.2754 101.632 95.5112 102.401 95.4688C103.174 95.4261 103.959 95.1027 104.543 94.5723L104.923 94.9905C104.242 95.6089 103.333 95.983 102.433 96.0328Z" fill="#393939"/>
<path d="M94.746 79.4424H97.5078L91.2675 87.422L89.6165 85.5191L94.746 79.4424Z" fill="white" fill-opacity="0.392"/>
<path d="M98.5993 81.9932L99.3269 82.7486L94.0406 89.2669L93.0305 88.5413L98.5993 81.9932Z" fill="white" fill-opacity="0.392"/>
<path d="M109.327 79.0674L111.734 79.81L105.647 87.3672L104.197 85.1444L109.327 79.0674Z" fill="white" fill-opacity="0.392"/>
<path d="M113.18 81.6182L113.907 82.3739L108.621 88.8919L107.611 88.1663L113.18 81.6182Z" fill="white" fill-opacity="0.392"/>
<path fill-rule="evenodd" clip-rule="evenodd" d="M94.595 88.9439C97.3371 88.9439 99.5601 86.7209 99.5601 83.9788C99.5601 81.2366 97.3371 79.0137 94.595 79.0137C91.8528 79.0137 89.6299 81.2366 89.6299 83.9788C89.6299 86.7209 91.8528 88.9439 94.595 88.9439Z" stroke="#2A7BBC" stroke-width="0.95195"/>
<path fill-rule="evenodd" clip-rule="evenodd" d="M109.063 88.9439C111.806 88.9439 114.029 86.7209 114.029 83.9788C114.029 81.2366 111.806 79.0137 109.063 79.0137C106.321 79.0137 104.098 81.2366 104.098 83.9788C104.098 86.7209 106.321 88.9439 109.063 88.9439Z" stroke="#2A7BBC" stroke-width="0.95195"/>
<path d="M104.122 89.5502L101.89 83.4951L99.9895 89.5502C99.9895 89.5502 100.8 90.4914 102.089 90.4561C103.377 90.421 104.122 89.5502 104.122 89.5502Z" fill="#DCAD76"/>
<path fill-rule="evenodd" clip-rule="evenodd" d="M89.584 78.9069C89.5838 78.9072 89.5837 78.9074 89.5836 78.9077L88.5667 78.396C88.5668 78.3957 88.567 78.3955 88.5671 78.3952L89.584 78.9069ZM89.584 78.9069L89.5849 78.9074C89.4436 79.1883 89.1009 79.3017 88.8198 79.1604C88.5391 79.0189 88.4257 78.677 88.5667 78.396L88.5658 78.3955C89.3113 76.9133 91.9804 74.506 96.8539 75.4301L96.6417 76.5496C92.2638 75.7194 90.0994 77.8834 89.584 78.9069ZM96.643 76.5492C96.9521 76.6076 97.2503 76.4045 97.309 76.0954C97.3674 75.7864 97.1643 75.4881 96.8552 75.4297L96.643 76.5492Z" fill="#393939"/>
<path fill-rule="evenodd" clip-rule="evenodd" d="M111.433 76.3006C112.378 76.7202 113.008 77.4355 113.285 77.9329L114.529 77.2392C114.119 76.5043 113.27 75.558 112.012 74.9991C110.727 74.4282 109.06 74.2821 107.093 75.1053L107.093 75.1054C106.73 75.2573 106.559 75.6743 106.711 76.0372C106.863 76.4001 107.28 76.571 107.643 76.4192L107.643 76.4191C109.257 75.7434 110.516 75.893 111.433 76.3006ZM107.643 76.4191L107.093 75.1054C107.093 75.1054 107.093 75.1054 107.093 75.1054L107.643 76.4191C107.643 76.4191 107.643 76.4191 107.643 76.4191ZM114.529 77.2392C114.721 77.5828 114.598 78.0166 114.254 78.208C113.911 78.3998 113.477 78.2764 113.285 77.9329L114.529 77.2392Z" fill="#393939"/>
<path d="M101.026 57.7579C94.696 63.2 85.4103 62.9277 85.4103 62.9277C82.714 64.0138 81.4088 67.0801 82.495 69.7764C83.5811 72.4723 86.3717 75.7443 89.3437 72.6914C100.238 73.6702 124.048 73.2033 121.358 62.9277C117.996 50.0831 107.355 52.3162 101.026 57.7579Z" fill="#393939"/>
</g>
<defs>
<clipPath id="clip0_329_19939">
<rect width="208" height="170" fill="white" transform="translate(0.43457 0.529053)"/>
</clipPath>
</defs>
</svg>
