<svg width="32" height="32" viewBox="0 0 32 32" fill="none" xmlns="http://www.w3.org/2000/svg">
<path d="M16 32C24.8366 32 32 24.8366 32 16C32 7.16344 24.8366 0 16 0C7.16344 0 0 7.16344 0 16C0 24.8366 7.16344 32 16 32Z" fill="url(#paint0_linear_1339_3308)"/>
<path d="M19.4844 8.22217H12.5155C11.3776 8.22452 10.2869 8.6776 9.48225 9.48225C8.6776 10.2869 8.22452 11.3776 8.22217 12.5155V19.4844C8.22452 20.6223 8.6776 21.713 9.48225 22.5176C10.2869 23.3223 11.3776 23.7754 12.5155 23.7777H19.4844C20.6223 23.7754 21.713 23.3223 22.5176 22.5176C23.3223 21.713 23.7754 20.6223 23.7777 19.4844V12.5155C23.7754 11.3776 23.3223 10.2869 22.5176 9.48225C21.713 8.6776 20.6223 8.22452 19.4844 8.22217ZM22.3999 19.4844C22.3999 20.2576 22.0928 20.9992 21.546 21.546C20.9992 22.0928 20.2576 22.3999 19.4844 22.3999H12.5155C11.7422 22.3999 11.0007 22.0928 10.4539 21.546C9.90712 20.9992 9.59995 20.2576 9.59995 19.4844V12.5155C9.59995 11.7422 9.90712 11.0007 10.4539 10.4539C11.0007 9.90712 11.7422 9.59995 12.5155 9.59995H19.4844C20.2576 9.59995 20.9992 9.90712 21.546 10.4539C22.0928 11.0007 22.3999 11.7422 22.3999 12.5155V19.4844Z" fill="white"/>
<path d="M16.0001 11.9917C15.2072 11.9917 14.4321 12.2268 13.7729 12.6673C13.1136 13.1078 12.5998 13.7339 12.2964 14.4665C11.9929 15.199 11.9136 16.005 12.0682 16.7827C12.2229 17.5603 12.6047 18.2746 13.1654 18.8353C13.726 19.396 14.4404 19.7778 15.218 19.9324C15.9957 20.0871 16.8017 20.0077 17.5342 19.7043C18.2668 19.4009 18.8929 18.8871 19.3334 18.2278C19.7739 17.5685 20.009 16.7935 20.009 16.0006C20.009 15.4741 19.9053 14.9528 19.7038 14.4665C19.5024 13.9801 19.2071 13.5381 18.8348 13.1659C18.4626 12.7936 18.0206 12.4983 17.5342 12.2969C17.0479 12.0954 16.5266 11.9917 16.0001 11.9917ZM16.0001 18.6673C15.4727 18.6673 14.9571 18.5109 14.5186 18.2178C14.0801 17.9248 13.7383 17.5083 13.5364 17.0211C13.3346 16.5338 13.2818 15.9976 13.3847 15.4803C13.4876 14.9631 13.7415 14.4879 14.1145 14.115C14.4874 13.742 14.9626 13.4881 15.4799 13.3852C15.9971 13.2823 16.5333 13.3351 17.0206 13.5369C17.5079 13.7387 17.9243 14.0805 18.2174 14.5191C18.5104 14.9576 18.6668 15.4732 18.6668 16.0006C18.6668 16.7078 18.3858 17.3861 17.8857 17.8862C17.3856 18.3863 16.7073 18.6673 16.0001 18.6673Z" fill="white"/>
<path d="M20.1779 10.8179C19.9081 10.8231 19.6506 10.9312 19.4579 11.1201C19.2704 11.3094 19.1651 11.5648 19.1646 11.8312C19.1646 12.1003 19.2699 12.3587 19.4579 12.5512C19.6514 12.7376 19.9092 12.8426 20.1779 12.8445C20.4466 12.8445 20.7044 12.7378 20.8944 12.5477C21.0845 12.3577 21.1912 12.1 21.1912 11.8312C21.1918 11.6984 21.1653 11.5668 21.1133 11.4445C21.0614 11.3223 20.985 11.2119 20.889 11.1201C20.7006 10.9302 20.4453 10.8217 20.1779 10.8179Z" fill="white"/>
<defs>
<linearGradient id="paint0_linear_1339_3308" x1="4.04444" y1="28.0711" x2="26.56" y2="5.33333" gradientUnits="userSpaceOnUse">
<stop stop-color="#F96B01"/>
<stop offset="0.54" stop-color="#DD0048"/>
<stop offset="1" stop-color="#D0016E"/>
</linearGradient>
</defs>
</svg>
