<svg width="32" height="32" viewBox="0 0 32 32" fill="none" xmlns="http://www.w3.org/2000/svg">
<rect width="32" height="32" rx="16" fill="url(#paint0_linear_1339_3305)"/>
<path d="M24.0958 11.908C24.2187 11.493 24.0958 11.1875 23.5048 11.1875H21.5491C21.0511 11.1875 20.822 11.4498 20.6991 11.742C20.6991 11.742 19.703 14.1691 18.2952 15.743C17.8403 16.1979 17.6312 16.3439 17.3821 16.3439C17.2593 16.3439 17.07 16.1979 17.07 15.7828V11.908C17.07 11.41 16.9306 11.1875 16.5188 11.1875H13.4442C13.1321 11.1875 12.9462 11.4199 12.9462 11.6357C12.9462 12.1072 13.6501 12.2168 13.7231 13.5449V16.427C13.7231 17.0578 13.6103 17.174 13.3612 17.174C12.6972 17.174 11.0835 14.7369 10.1272 11.9479C9.93467 11.4066 9.74541 11.1875 9.24404 11.1875H7.28838C6.73057 11.1875 6.61768 11.4498 6.61768 11.742C6.61768 12.26 7.28174 14.8332 9.70889 18.2332C11.3259 20.5541 13.6036 21.8125 15.6755 21.8125C16.9206 21.8125 17.0733 21.5336 17.0733 21.0521C17.0733 18.8342 16.9604 18.625 17.5847 18.625C17.8735 18.625 18.3716 18.7711 19.5337 19.89C20.8618 21.2182 21.081 21.8125 21.8247 21.8125H23.7804C24.3382 21.8125 24.6204 21.5336 24.4577 20.9824C24.0858 19.8236 21.5724 17.4396 21.4595 17.2803C21.1706 16.9084 21.2536 16.7424 21.4595 16.4104C21.4628 16.407 23.8501 13.0469 24.0958 11.908Z" fill="white"/>
<defs>
<linearGradient id="paint0_linear_1339_3305" x1="16" y1="0" x2="16" y2="32" gradientUnits="userSpaceOnUse">
<stop stop-color="#5181B8"/>
<stop offset="1" stop-color="#4378B6"/>
</linearGradient>
</defs>
</svg>
