<svg width="1440" height="904" viewBox="0 0 1440 904" fill="none" xmlns="http://www.w3.org/2000/svg">
<rect width="1174.2" height="1319.26" rx="100" transform="matrix(-0.368145 0.929768 -0.941835 -0.336075 1543.8 -188.63)" fill="url(#paint0_linear_941_2465)"/>
<rect width="1234.84" height="1286.28" rx="100" transform="matrix(-0.270585 0.962696 -0.969176 -0.246371 1492.21 -333.097)" fill="url(#paint1_linear_941_2465)"/>
<rect opacity="0.0555556" width="1062.26" height="1133.46" rx="100" transform="matrix(-0.280977 0.959715 -0.971488 -0.237089 1628.79 -260.951)" fill="url(#paint2_linear_941_2465)" stroke="#E672BD" stroke-width="1.44444"/>
<rect opacity="0.111111" width="1082.39" height="1155.25" rx="100" transform="matrix(-0.280977 0.959715 -0.971488 -0.237089 1617.84 -270.951)" fill="url(#paint3_linear_941_2465)" stroke="#DA6DC5" stroke-width="1.88889"/>
<rect opacity="0.166667" width="1102.52" height="1177.03" rx="100" transform="matrix(-0.280977 0.959715 -0.971488 -0.237089 1606.89 -280.951)" fill="url(#paint4_linear_941_2465)" stroke="#CE69CE" stroke-width="2.33333"/>
<rect opacity="0.222222" width="1122.65" height="1198.81" rx="100" transform="matrix(-0.280977 0.959715 -0.971488 -0.237089 1595.93 -290.951)" fill="url(#paint5_linear_941_2465)" stroke="#C265D6" stroke-width="2.77778"/>
<rect opacity="0.277778" width="1142.79" height="1220.6" rx="100" transform="matrix(-0.280977 0.959715 -0.971488 -0.237089 1584.98 -300.951)" fill="url(#paint6_linear_941_2465)" stroke="#B660DE" stroke-width="3.22222"/>
<rect opacity="0.333333" width="1162.92" height="1242.38" rx="100" transform="matrix(-0.280977 0.959715 -0.971488 -0.237089 1574.03 -310.951)" fill="url(#paint7_linear_941_2465)" stroke="#AA5CE6" stroke-width="3.66667"/>
<rect opacity="0.388889" width="1183.05" height="1264.17" rx="100" transform="matrix(-0.280977 0.959715 -0.971488 -0.237089 1563.07 -320.951)" fill="url(#paint8_linear_941_2465)" stroke="#9E58EF" stroke-width="4.11111"/>
<rect opacity="0.444444" width="1203.18" height="1285.95" rx="100" transform="matrix(-0.280977 0.959715 -0.971488 -0.237089 1552.12 -330.951)" fill="url(#paint9_linear_941_2465)" stroke="#9253F7" stroke-width="4.55556"/>
<rect opacity="0.5" width="1223.32" height="1307.73" rx="100" transform="matrix(-0.280977 0.959715 -0.971488 -0.237089 1541.17 -340.951)" fill="url(#paint10_linear_941_2465)" stroke="#864FFF" stroke-width="5"/>
<defs>
<linearGradient id="paint0_linear_941_2465" x1="8.90051" y1="-6.83548" x2="1434.24" y2="915.295" gradientUnits="userSpaceOnUse">
<stop stop-color="#76F7FF"/>
<stop offset="1" stop-color="#BA75FF"/>
</linearGradient>
<linearGradient id="paint1_linear_941_2465" x1="9.3602" y1="-6.66463" x2="1439.38" y2="991.214" gradientUnits="userSpaceOnUse">
<stop stop-color="#FF5A6D"/>
<stop offset="1" stop-color="#651FFF"/>
</linearGradient>
<linearGradient id="paint2_linear_941_2465" x1="8.05196" y1="-5.87281" x2="1257.43" y2="845.221" gradientUnits="userSpaceOnUse">
<stop stop-color="#FF5A6D"/>
<stop offset="1" stop-color="#651FFF"/>
</linearGradient>
<linearGradient id="paint3_linear_941_2465" x1="8.20457" y1="-5.98568" x2="1281.48" y2="861.155" gradientUnits="userSpaceOnUse">
<stop stop-color="#FF5A6D"/>
<stop offset="1" stop-color="#651FFF"/>
</linearGradient>
<linearGradient id="paint4_linear_941_2465" x1="8.35718" y1="-6.09855" x2="1305.52" y2="877.09" gradientUnits="userSpaceOnUse">
<stop stop-color="#FF5A6D"/>
<stop offset="1" stop-color="#651FFF"/>
</linearGradient>
<linearGradient id="paint5_linear_941_2465" x1="8.50979" y1="-6.21142" x2="1329.56" y2="893.025" gradientUnits="userSpaceOnUse">
<stop stop-color="#FF5A6D"/>
<stop offset="1" stop-color="#651FFF"/>
</linearGradient>
<linearGradient id="paint6_linear_941_2465" x1="8.66239" y1="-6.32429" x2="1353.6" y2="908.96" gradientUnits="userSpaceOnUse">
<stop stop-color="#FF5A6D"/>
<stop offset="1" stop-color="#651FFF"/>
</linearGradient>
<linearGradient id="paint7_linear_941_2465" x1="8.815" y1="-6.43716" x2="1377.64" y2="924.894" gradientUnits="userSpaceOnUse">
<stop stop-color="#FF5A6D"/>
<stop offset="1" stop-color="#651FFF"/>
</linearGradient>
<linearGradient id="paint8_linear_941_2465" x1="8.96761" y1="-6.55003" x2="1401.69" y2="940.829" gradientUnits="userSpaceOnUse">
<stop stop-color="#FF5A6D"/>
<stop offset="1" stop-color="#651FFF"/>
</linearGradient>
<linearGradient id="paint9_linear_941_2465" x1="9.12021" y1="-6.66289" x2="1425.73" y2="956.764" gradientUnits="userSpaceOnUse">
<stop stop-color="#FF5A6D"/>
<stop offset="1" stop-color="#651FFF"/>
</linearGradient>
<linearGradient id="paint10_linear_941_2465" x1="9.27282" y1="-6.77576" x2="1449.77" y2="972.699" gradientUnits="userSpaceOnUse">
<stop stop-color="#FF5A6D"/>
<stop offset="1" stop-color="#651FFF"/>
</linearGradient>
</defs>
</svg>
