<svg width="690" height="517" viewBox="0 0 690 517" fill="none" xmlns="http://www.w3.org/2000/svg">
<g clip-path="url(#clip0_941_2511)">
<g opacity="0.4">
<path opacity="0.4" d="M13.9029 295.291C27.5303 262.14 80.8012 252.062 103.367 247.819C227.341 224.391 296.362 303.867 360.606 269.565C396.798 250.293 379.012 222.977 435.646 175.592C444.051 168.52 475.023 143.236 549.355 129.091C608.643 117.864 664.126 107.256 678.55 130.417C694.213 155.613 639.879 186.465 634.836 262.67C631.208 317.57 655.985 354.699 640.145 365.838C621.474 378.922 578.291 333.924 556.788 349.218C544.753 357.793 555.903 376.447 546.081 391.21C519.534 430.904 434.318 404.559 288.841 410.217C168.14 414.903 137.789 436.473 86.8186 410.217C39.565 385.995 -1.49431 332.863 13.9029 295.291Z" fill="#B5CDFB"/>
</g>
<path d="M139.858 291.475H24.1133V303.143H139.858V291.475Z" fill="#9F8AFF"/>
<path d="M98.1764 279.717H10.1293V291.386H98.1764V279.717Z" fill="#9F8AFF"/>
<path d="M54.1087 303.145H10.1293V314.814H54.1087V303.145Z" fill="#9F8AFF"/>
<path d="M93.4863 291.033H8.62488V291.917H93.4863V291.033Z" fill="#3913B8"/>
<path d="M57.1167 302.703H32.0741V303.587H57.1167V302.703Z" fill="#3913B8"/>
<path d="M24.5531 291.475H23.6682V303.143H24.5531V291.475Z" fill="#3913B8"/>
<path d="M54.5528 279.717H53.668V291.386H54.5528V279.717Z" fill="#3913B8"/>
<path d="M82.4248 291.475H81.5399V303.143H82.4248V291.475Z" fill="#3913B8"/>
<path d="M33.6675 314.372H8.62488V315.256H33.6675V314.372Z" fill="#3913B8"/>
<g opacity="0.4">
<path opacity="0.4" d="M226.722 498.96C320.506 498.96 396.534 493.498 396.534 486.76C396.534 480.023 320.506 474.56 226.722 474.56C132.937 474.56 56.9102 480.023 56.9102 486.76C56.9102 493.498 132.937 498.96 226.722 498.96Z" fill="#B5CDFB"/>
</g>
<g opacity="0.4">
<path opacity="0.4" d="M508.476 495.07C483.344 495.07 477.415 492.153 475.203 491.003C469.54 488.263 469.097 486.76 468.921 486.23C468.744 485.788 468.832 485.257 469.009 484.904C469.806 483.489 472.018 483.401 478.743 483.401C480.601 483.401 482.902 483.312 485.468 483.312C489.45 483.224 493.521 483.135 497.503 483.135C500.777 483.135 504.051 483.047 507.325 482.959H507.502C512.635 482.87 516.97 482.782 519.006 484.904C519.625 485.522 520.421 486.937 519.714 488.263C518.387 490.561 513.165 490.65 507.679 490.473C502.724 490.296 494.759 489.147 493.786 487.821C493.61 487.556 493.521 487.29 493.61 486.937C493.786 485.964 493.963 485.169 512.103 485.788L512.015 487.556C503.962 487.29 499.715 487.29 497.503 487.467C499.892 487.998 503.785 488.617 507.856 488.793C515.732 489.059 517.855 488.263 518.298 487.467C518.564 487.025 517.855 486.23 517.855 486.23C516.351 484.638 511.927 484.727 507.591 484.815H507.414C504.14 484.904 500.865 484.904 497.591 484.992C493.61 485.08 489.539 485.08 485.556 485.169C482.902 485.257 480.689 485.257 478.832 485.257C474.496 485.346 471.044 485.346 470.69 485.876C470.69 486.141 471.752 487.467 476.088 489.589C478.566 490.827 486.088 494.54 523.784 493.126C527.235 493.037 535.288 492.684 544.225 489.854C549.977 487.998 552.986 486.672 552.986 485.876C552.809 485.522 551.039 483.666 529.536 481.809C514.758 480.572 499.361 480.13 483.875 480.395V478.627C499.45 478.273 514.847 478.804 529.713 480.041C554.224 482.075 554.579 484.285 554.756 485.611C555.109 487.998 550.597 489.677 544.757 491.534C535.642 494.451 527.413 494.716 523.873 494.893C518.032 494.982 512.9 495.07 508.476 495.07Z" fill="#3913B8"/>
</g>
<g opacity="0.4">
<path opacity="0.4" d="M336.971 465.243C311.84 465.243 305.911 462.326 303.699 461.176C298.036 458.435 297.593 456.933 297.416 456.403C297.239 455.961 297.328 455.43 297.505 455.077C298.301 453.662 300.514 453.574 307.238 453.574C309.097 453.574 311.397 453.485 313.964 453.485C317.946 453.396 322.017 453.308 325.999 453.308C329.273 453.308 332.547 453.22 335.821 453.132H335.998C341.13 453.043 345.466 452.954 347.502 455.077C348.298 455.872 348.917 457.198 348.21 458.435C346.882 460.734 341.662 460.823 336.175 460.646C331.219 460.469 323.255 459.319 322.282 457.993C322.105 457.729 322.017 457.463 322.105 457.11C322.282 456.137 322.459 455.342 340.599 455.961L340.511 457.729C332.458 457.463 328.211 457.463 325.999 457.64C328.388 458.171 332.281 458.79 336.352 458.966C344.228 459.232 346.351 458.435 346.794 457.64C347.059 457.198 346.351 456.403 346.351 456.403C344.847 454.811 340.422 454.9 336.086 454.988H335.91C332.636 455.077 329.362 455.077 326.087 455.165C322.105 455.253 318.034 455.253 314.052 455.342C311.397 455.43 309.185 455.43 307.238 455.43C302.903 455.519 299.452 455.519 299.097 456.049C299.097 456.314 300.16 457.64 304.496 459.762C306.974 461 314.584 464.713 352.192 463.298C355.908 463.121 363.695 462.856 372.632 460.027C378.384 458.171 381.394 456.845 381.394 456.049C381.216 455.695 379.446 453.838 357.943 451.982C343.166 450.745 327.769 450.303 312.282 450.567V448.799C327.857 448.446 343.254 448.977 358.121 450.214C382.632 452.248 382.986 454.458 383.163 455.784C383.517 458.171 379.004 459.85 373.164 461.707C364.05 464.624 355.82 464.889 352.28 465.066C346.528 465.155 341.396 465.243 336.971 465.243Z" fill="#3913B8"/>
</g>
<path d="M582.898 305.532H467.773V313.4H582.898V305.532Z" fill="#9F8AFF"/>
<path d="M554.931 297.664H495.82V305.532H554.931V297.664Z" fill="#9F8AFF"/>
<path d="M509.184 305.09H492.371V305.974H509.184V305.09Z" fill="#3913B8"/>
<path d="M505.643 305.532H504.758V313.4H505.643V305.532Z" fill="#3913B8"/>
<path d="M525.822 297.664H524.938V305.532H525.822V297.664Z" fill="#3913B8"/>
<path d="M544.491 305.532H543.606V313.4H544.491V305.532Z" fill="#3913B8"/>
<path d="M544.669 305.09H536.793V305.974H544.669V305.09Z" fill="#3913B8"/>
<g opacity="0.8">
<path opacity="0.8" d="M131.419 81.6917H16.2937V89.5599H131.419V81.6917Z" fill="#B5CDFB"/>
<path opacity="0.8" d="M103.459 73.824H44.3483V81.6919H103.459V73.824Z" fill="#B5CDFB"/>
</g>
<g opacity="0.46">
<g opacity="0.46">
<path opacity="0.5" d="M642.447 146.934H430.957C430.957 124.038 440.248 106.533 455.203 94.7755C470.158 82.9293 490.865 76.9178 513.783 76.9178H526.438L524.756 14.6812L533.605 14.5044L535.286 76.8294H559.621C605.37 76.8294 642.447 101.229 642.447 146.934Z" fill="#B5CDFB"/>
</g>
</g>
<path d="M315.391 174.693C322.282 174.693 327.868 169.112 327.868 162.228C327.868 155.344 322.282 149.763 315.391 149.763C308.5 149.763 302.914 155.344 302.914 162.228C302.914 169.112 308.5 174.693 315.391 174.693Z" fill="#B5CDFB"/>
<path d="M236.988 192.727C242.364 192.727 246.722 188.373 246.722 183.002C246.722 177.631 242.364 173.278 236.988 173.278C231.612 173.278 227.254 177.631 227.254 183.002C227.254 188.373 231.612 192.727 236.988 192.727Z" fill="#9F8AFF"/>
<path d="M236.985 190.694C231.411 190.694 226.809 186.097 226.809 180.528C226.809 174.958 231.411 170.361 236.985 170.361C242.56 170.361 247.162 174.958 247.162 180.528C247.162 186.097 242.648 190.694 236.985 190.694ZM236.985 171.333C231.853 171.333 227.694 175.489 227.694 180.616C227.694 185.743 231.853 189.898 236.985 189.898C242.118 189.898 246.277 185.743 246.277 180.616C246.277 175.489 242.118 171.333 236.985 171.333Z" fill="#3913B8"/>
<path d="M233.096 177.788C233.538 180.174 234.158 182.561 234.512 184.948C234.6 185.302 235.042 185.567 235.308 185.302C236.37 184.595 237.344 183.092 238.229 182.472C239.556 181.412 240.794 180.263 242.122 179.114C242.476 178.76 242.299 178.23 241.768 178.23C240.264 178.141 238.76 177.788 237.344 177.611C236.548 177.433 234.866 177.433 233.804 177.169C233.361 177.08 233.008 177.433 233.096 177.788Z" fill="#3913B8"/>
<path d="M263.006 126.601L262.209 125.805C259.555 123.242 254.864 119.263 253.449 119.263C253.449 119.263 253.449 119.263 253.36 119.263L224.867 121.562C222.212 121.739 219.557 120.855 217.61 119.087C215.664 117.23 214.513 114.666 214.602 112.014L214.69 99.0186C214.69 96.3664 215.841 93.8029 217.876 92.0347C219.823 90.2666 222.566 89.3825 225.22 89.6479L253.626 92.4768C258.581 92.9188 262.298 97.0738 262.209 102.025L262.121 109.981C262.121 112.545 262.918 125.452 262.918 125.629L263.006 126.601ZM253.449 118.291C255.396 118.291 259.997 122.358 262.033 124.302C261.856 121.032 261.236 111.925 261.325 109.716L261.413 101.76C261.413 97.2504 258.051 93.5375 253.626 93.0955L225.22 90.2666C222.831 90.0012 220.354 90.7974 218.584 92.4768C216.814 94.0683 215.753 96.4551 215.753 98.8419L215.664 111.838C215.664 114.224 216.638 116.611 218.407 118.203C220.176 119.882 222.566 120.678 225.043 120.501L253.537 118.203C253.36 118.291 253.36 118.291 253.449 118.291Z" fill="#3913B8"/>
<path d="M222.121 110.51H232.032C232.74 110.51 233.271 109.715 232.917 109.096C232.209 107.593 230.528 105.383 227.342 105.383C223.272 105.383 221.413 107.505 221.148 109.45C221.059 110.068 221.502 110.51 222.121 110.51Z" fill="#3913B8"/>
<path d="M227.081 105.472C228.4 105.472 229.47 104.404 229.47 103.086C229.47 101.767 228.4 100.699 227.081 100.699C225.761 100.699 224.691 101.767 224.691 103.086C224.691 104.404 225.761 105.472 227.081 105.472Z" fill="#3913B8"/>
<path d="M252.296 101.936H239.2C238.935 101.936 238.758 101.76 238.758 101.494C238.758 101.23 238.935 101.052 239.2 101.052H252.296C252.562 101.052 252.739 101.23 252.739 101.494C252.739 101.76 252.562 101.936 252.296 101.936Z" fill="#3913B8"/>
<path d="M252.296 105.736H239.2C238.935 105.736 238.758 105.56 238.758 105.295C238.758 105.03 238.935 104.853 239.2 104.853H252.296C252.562 104.853 252.739 105.03 252.739 105.295C252.739 105.56 252.562 105.736 252.296 105.736Z" fill="#3913B8"/>
<path d="M252.296 109.539H239.2C238.935 109.539 238.758 109.362 238.758 109.097C238.758 108.832 238.935 108.655 239.2 108.655H252.296C252.562 108.655 252.739 108.832 252.739 109.097C252.739 109.362 252.562 109.539 252.296 109.539Z" fill="#3913B8"/>
<path d="M380.43 75.8573C380.076 75.8573 379.722 75.7689 379.457 75.5037C378.926 75.0617 378.837 74.4429 379.103 73.8241C382.288 66.5749 384.058 61.6242 384.058 60.3866L383.97 52.4302C383.97 47.4795 387.598 43.3246 392.554 42.8826C392.818 42.8826 413.791 41.7333 423.879 42.6173C427.861 42.971 429.719 47.3911 429.188 54.6403C428.48 62.6851 424.94 72.0559 421.49 72.1443C421.401 72.1443 421.401 72.1443 421.313 72.1443L392.818 69.8458C392.465 69.8458 390.606 70.1995 381.226 75.7689C380.961 75.8573 380.696 75.8573 380.43 75.8573ZM413.879 43.1478C403.969 43.1478 392.818 43.7666 392.73 43.7666C388.306 44.2086 384.943 47.9216 384.943 52.4302L385.032 60.3866C385.032 62.2431 382.288 68.9618 379.988 74.1777C379.899 74.4429 379.988 74.7081 380.165 74.8849C380.341 75.0617 380.607 75.1501 380.873 74.9733C387.774 70.9067 391.845 68.8734 392.996 68.9618L421.49 71.2603H421.578C424.232 71.2603 427.772 62.6851 428.391 54.6403C428.657 51.4578 428.746 43.9434 423.968 43.5014C421.047 43.2362 417.507 43.1478 413.879 43.1478Z" fill="#3913B8"/>
<path d="M415.207 64.0118C419.019 64.0118 422.109 60.9245 422.109 57.1163C422.109 53.308 419.019 50.2207 415.207 50.2207C411.395 50.2207 408.305 53.308 408.305 57.1163C408.305 60.9245 411.395 64.0118 415.207 64.0118Z" fill="#9F8AFF"/>
<path d="M362.554 216.508C364.265 216.508 365.652 215.123 365.652 213.414C365.652 211.705 364.265 210.32 362.554 210.32C360.844 210.32 359.457 211.705 359.457 213.414C359.457 215.123 360.844 216.508 362.554 216.508Z" fill="#3913B8"/>
<path d="M362.555 222.344C357.599 222.344 353.617 218.366 353.617 213.415C353.617 208.464 357.599 204.486 362.555 204.486C367.51 204.486 371.492 208.464 371.492 213.415C371.492 218.366 367.51 222.344 362.555 222.344ZM362.555 205.459C358.13 205.459 354.502 209.084 354.502 213.503C354.502 217.924 358.13 221.549 362.555 221.549C366.979 221.549 370.607 217.924 370.607 213.503C370.607 209.084 366.979 205.459 362.555 205.459Z" fill="#3913B8"/>
<path d="M405.648 54.9057H392.552C392.286 54.9057 392.109 54.7289 392.109 54.4636C392.109 54.1984 392.286 54.0216 392.552 54.0216H405.648C405.914 54.0216 406.09 54.1984 406.09 54.4636C406.09 54.7289 405.914 54.9057 405.648 54.9057Z" fill="#3913B8"/>
<path d="M405.648 58.7065H392.552C392.286 58.7065 392.109 58.5297 392.109 58.2645C392.109 57.9993 392.286 57.8225 392.552 57.8225H405.648C405.914 57.8225 406.09 57.9993 406.09 58.2645C406.09 58.5297 405.914 58.7065 405.648 58.7065Z" fill="#3913B8"/>
<path d="M337.688 95.925H290.965V43.5898H337.688V95.925ZM291.85 95.0409H336.803V44.4739H291.85V95.0409Z" fill="#3913B8"/>
<path d="M343.616 41.4678H284.948V49.3357H343.616V41.4678Z" fill="#3913B8"/>
<path d="M288.665 46.506C289.301 46.506 289.816 45.9915 289.816 45.3567C289.816 44.722 289.301 44.2075 288.665 44.2075C288.031 44.2075 287.516 44.722 287.516 45.3567C287.516 45.9915 288.031 46.506 288.665 46.506Z" fill="#AFE3E2"/>
<path d="M294.061 46.506C294.696 46.506 295.211 45.9915 295.211 45.3567C295.211 44.722 294.696 44.2075 294.061 44.2075C293.426 44.2075 292.91 44.722 292.91 45.3567C292.91 45.9915 293.426 46.506 294.061 46.506Z" fill="#F6A7AB"/>
<g opacity="0.9">
<path opacity="0.9" d="M344.325 70.4637H302.204C301.142 70.4637 300.258 69.5797 300.258 68.5188V57.8219C300.258 56.761 301.142 55.877 302.204 55.877H344.325C345.387 55.877 346.272 56.761 346.272 57.8219V68.5188C346.272 69.5797 345.387 70.4637 344.325 70.4637Z" fill="#B5CDFB"/>
</g>
<g opacity="0.9">
<path opacity="0.9" d="M344.325 89.0291H302.204C301.142 89.0291 300.258 88.145 300.258 87.0843V76.3873C300.258 75.3264 301.142 74.4424 302.204 74.4424H344.325C345.387 74.4424 346.272 75.3264 346.272 76.3873V87.0843C346.272 88.145 345.387 89.0291 344.325 89.0291Z" fill="#9F8AFF"/>
</g>
<path d="M270.881 153.122C267.518 153.122 264.864 151.885 263.714 151.177C260.882 149.587 258.758 147.022 257.519 144.635C256.369 144.547 255.218 144.37 254.334 144.105C247.785 142.249 244.688 134.911 243.715 131.905L244.6 131.64C245.573 134.557 248.405 141.63 254.599 143.309C255.219 143.486 256.103 143.663 257.077 143.751C256.634 142.867 256.369 141.983 256.192 141.188C255.838 139.596 256.015 138.359 256.634 137.563C257.519 136.414 259.378 135.972 260.616 136.591C261.412 137.033 262.032 137.917 262.386 139.066C262.74 140.569 262.474 142.072 261.678 143.044C260.882 144.017 259.731 144.459 258.404 144.547C259.643 146.758 261.589 148.967 264.067 150.293C265.483 151.089 269.377 152.945 273.978 151.708C278.756 150.382 282.562 146.404 283.8 141.099L284.685 141.276C283.358 146.846 279.376 151.177 274.244 152.503C273.093 152.945 271.943 153.122 270.881 153.122ZM259.289 137.21C258.581 137.21 257.785 137.475 257.342 138.094C256.9 138.712 256.811 139.773 257.077 141.011C257.254 141.895 257.608 142.779 258.05 143.751C259.2 143.751 260.351 143.486 261.059 142.602C261.678 141.807 261.855 140.569 261.589 139.331C261.412 138.447 260.882 137.74 260.351 137.386C259.997 137.298 259.643 137.21 259.289 137.21Z" fill="#3913B8"/>
<path d="M352.378 117.584L351.848 116.877C357.334 112.899 366.271 105.915 369.988 99.9034C368.395 99.638 366.891 98.9306 366.094 97.6045C365.297 96.1018 365.386 93.6271 366.979 92.3009C368.484 90.9748 370.962 90.8861 372.111 92.0355C373.439 93.3617 372.643 95.9251 372.2 97.2512C372.023 97.8699 371.758 98.5773 371.404 99.196C372.819 99.2848 374.147 99.196 375.032 99.196C382.996 98.754 392.73 94.157 397.066 88.7647C398.836 86.6424 399.543 84.4326 399.278 82.5762C399.013 80.7196 397.596 78.9516 395.207 77.3603L395.739 76.6531C398.393 78.4211 399.898 80.3661 400.251 82.4878C400.606 84.6094 399.721 86.9965 397.862 89.3833C393.261 95.041 383.526 99.7268 375.12 100.169C374.147 100.257 372.554 100.345 370.962 100.169C367.156 106.269 357.953 113.518 352.378 117.584ZM369.811 92.0355C369.015 92.0355 368.13 92.3009 367.51 92.8309C366.271 93.8916 366.182 95.8372 366.891 97.0746C367.51 98.224 368.926 98.754 370.43 99.0194C370.784 98.3119 371.138 97.6045 371.315 96.8979C371.669 95.7485 372.377 93.5383 371.404 92.5655C371.049 92.2122 370.43 92.0355 369.811 92.0355Z" fill="#3913B8"/>
<path d="M398.391 137.475C396.622 137.475 394.941 137.121 393.436 136.414C391.843 135.706 390.25 134.469 388.923 133.143C384.587 135.353 377.773 136.591 372.995 137.209L372.906 136.325C379.809 135.353 385.03 134.027 388.304 132.436C386.446 130.225 385.384 127.75 386.18 125.983C386.888 124.391 389.189 123.418 390.782 123.949C392.551 124.656 393.26 127.22 393.083 128.723C392.905 130.225 391.666 131.552 389.72 132.612C390.87 133.85 392.286 134.911 393.79 135.53C398.834 137.828 405.736 135.883 411.753 130.58L412.373 131.198C407.86 135.353 402.816 137.475 398.391 137.475ZM389.72 124.744C388.658 124.744 387.331 125.452 386.976 126.424C386.357 127.75 387.331 130.049 389.101 132.082C390.958 131.022 392.02 129.872 392.109 128.723C392.286 127.485 391.666 125.363 390.339 124.921C390.25 124.833 389.985 124.744 389.72 124.744Z" fill="#3913B8"/>
<path d="M236.279 67.5475L235.66 66.9287C239.819 62.7736 244.508 59.5027 249.73 57.0273C252.649 55.7013 255.747 54.552 258.844 53.8448L259.021 54.7288C255.923 55.4361 252.915 56.497 250.083 57.9114C244.951 60.2983 240.349 63.4809 236.279 67.5475Z" fill="#3913B8"/>
<path d="M234.862 74.0892L234.243 73.4703C238.402 69.3153 243.092 66.0444 248.313 63.569C251.233 62.243 254.329 61.0937 257.427 60.3865L257.604 61.2705C254.507 61.9778 251.498 63.0387 248.666 64.4531C243.534 66.7516 238.933 70.0226 234.862 74.0892Z" fill="#3913B8"/>
<g opacity="0.4">
<path opacity="0.4" d="M393.262 483.047C392.554 483.047 392.022 482.693 392.022 482.162L389.722 309.067H396.889L394.589 482.162C394.589 482.693 393.969 483.047 393.262 483.047Z" fill="#3913B8"/>
</g>
<g opacity="0.4">
<path opacity="0.4" d="M341.848 483.047C341.141 483.047 340.61 482.693 340.61 482.162L338.309 309.067H345.477L343.176 482.162C343.088 482.693 342.556 483.047 341.848 483.047Z" fill="#3913B8"/>
</g>
<path d="M370.342 241.791L301.94 276.092L301.587 275.385C300.613 273.44 301.409 271.053 303.356 270.081L364.679 239.317C366.626 238.344 369.015 239.139 369.989 241.084L370.342 241.791Z" fill="#3913B8"/>
<path d="M302.028 276.093L307.78 281.927L376.182 247.538L370.342 241.792L361.051 243.825L304.24 272.822L302.028 276.093Z" fill="#3913B8"/>
<path d="M369.99 242.586L401.404 156.57C398.926 155.686 396.271 156.923 395.386 159.399L367.158 236.575C366.273 239.05 367.601 241.702 369.99 242.586Z" fill="#3913B8"/>
<path d="M401.406 156.57L411.671 157.896L374.77 247.361L369.992 242.588L370.965 233.128L398.486 159.222L401.406 156.57Z" fill="#3913B8"/>
<path fill-rule="evenodd" clip-rule="evenodd" d="M364.676 239.316C365.403 238.952 366.192 238.836 366.945 238.933C366.814 238.171 366.872 237.364 367.154 236.576L395.382 159.399C396.267 156.923 398.922 155.686 401.4 156.57H401.399H401.4L411.664 157.896L375.121 246.496L376.179 247.537L307.777 281.926L302.025 276.092L302.07 276.025L301.937 276.092L301.584 275.384C300.61 273.439 301.407 271.053 303.353 270.08L364.676 239.316Z" fill="white" fill-opacity="0.57"/>
<path d="M387.065 298.814H309.636C305.3 298.814 301.672 295.277 301.672 290.857C301.672 286.437 305.212 282.9 309.636 282.9C310.168 282.9 310.521 283.254 310.521 283.784C310.521 284.315 310.168 284.668 309.636 284.668C306.273 284.668 303.442 287.409 303.442 290.857C303.442 294.217 306.185 297.045 309.636 297.045H387.065C387.596 297.045 387.949 297.399 387.949 297.929C387.949 298.459 387.507 298.814 387.065 298.814Z" fill="#9F8AFF"/>
<path d="M273.534 298.46H270.613V290.768L273.534 290.061V298.46Z" fill="#9F8AFF"/>
<path d="M390.605 483.489C389.632 483.489 388.924 482.959 388.924 482.163L386.535 308.626H394.676L392.287 482.163C392.375 482.959 391.579 483.489 390.605 483.489ZM387.508 309.598L389.809 482.163C389.809 482.34 390.162 482.605 390.605 482.605C391.047 482.605 391.402 482.34 391.402 482.163L393.702 309.598H387.508Z" fill="#3913B8"/>
<path d="M339.192 483.489C338.219 483.489 337.511 482.959 337.511 482.163L335.121 308.626H343.263L340.873 482.163C340.873 482.959 340.077 483.489 339.192 483.489ZM336.006 309.598L338.308 482.163C338.308 482.34 338.661 482.605 339.104 482.605C339.546 482.605 339.901 482.34 339.901 482.163L342.201 309.598H336.006Z" fill="#3913B8"/>
<path d="M401.932 310.571H218.14C215.927 310.571 214.245 308.803 214.245 306.681V305.178C214.245 302.968 216.015 301.288 218.14 301.288H401.844C404.057 301.288 405.738 303.056 405.738 305.178V306.681C405.827 308.891 404.057 310.571 401.932 310.571Z" fill="#3913B8"/>
<path d="M376.18 247.537L307.777 281.838L307.423 281.131C306.45 279.186 307.246 276.799 309.193 275.826L370.517 245.062C372.464 244.089 374.853 244.885 375.826 246.829L376.18 247.537Z" fill="#3913B8"/>
<path d="M376.183 247.539L412.375 158.25C409.986 157.278 407.243 158.427 406.27 160.814L373.616 241.439C372.643 243.915 373.794 246.566 376.183 247.539Z" fill="#3913B8"/>
<path d="M281.233 298.901H277.34V289.707L281.233 288.646V298.901ZM278.313 298.017H280.437V289.795L278.313 290.326V298.017Z" fill="#3913B8"/>
<path d="M347.952 298.371H344.678L337.688 269.728L341.581 267.695L347.952 298.371ZM345.386 297.487H346.89L340.962 269.021L338.749 270.17L345.386 297.487Z" fill="#9F8AFF"/>
<path d="M380.341 247.45L308.399 282.547C307.514 282.989 306.453 282.812 305.833 282.105L296.099 271.673C295.391 271.055 294.418 271.939 294.949 272.646L304.063 285.73C304.683 286.614 305.921 286.967 306.895 286.437L381.492 249.572C381.934 249.396 382.2 248.954 382.2 248.512C382.111 247.628 381.138 247.097 380.341 247.45Z" fill="#9F8AFF"/>
<path d="M326.182 261.065C325.916 260.623 325.828 260.181 326.801 259.562C327.686 259.033 328.129 259.297 328.394 259.739" fill="#3913B8"/>
<path d="M310.344 267.783L320.785 262.214L325.21 266.015L314.326 271.762L310.344 267.783Z" fill="#3913B8"/>
<path d="M327.334 262.214C327.068 261.772 326.98 261.33 327.953 260.711C328.838 260.181 329.28 260.446 329.546 260.888" fill="#3913B8"/>
<path d="M328.482 263.275C328.217 262.833 328.128 262.391 329.102 261.772C329.987 261.242 330.429 261.507 330.694 261.949" fill="#3913B8"/>
<path d="M329.631 264.425C329.365 263.983 329.276 263.541 330.25 262.922C331.135 262.391 331.577 262.656 331.842 263.099" fill="#3913B8"/>
<path d="M330.963 258.676C330.697 258.234 330.608 257.792 331.582 257.174C332.467 256.643 332.909 256.908 333.174 257.35" fill="#3913B8"/>
<path d="M332.112 259.826C331.846 259.384 331.758 258.942 332.731 258.323C333.616 257.792 334.059 258.058 334.324 258.5" fill="#3913B8"/>
<path d="M333.26 260.887C332.994 260.445 332.905 260.003 333.879 259.384C334.764 258.854 335.206 259.119 335.472 259.561" fill="#3913B8"/>
<path d="M334.408 262.035C334.142 261.593 334.054 261.151 335.027 260.533C335.912 260.003 336.355 260.267 336.62 260.709" fill="#3913B8"/>
<path d="M335.826 256.29C335.561 255.848 335.473 255.406 336.446 254.787C337.331 254.257 337.773 254.522 338.039 254.964" fill="#3913B8"/>
<path d="M336.979 257.439C336.713 256.997 336.625 256.555 337.598 255.936C338.483 255.407 338.925 255.671 339.191 256.113" fill="#3913B8"/>
<path d="M338.04 258.501C337.775 258.059 337.686 257.617 338.66 256.998C339.544 256.467 339.986 256.733 340.252 257.175" fill="#3913B8"/>
<path d="M339.189 259.649C338.923 259.207 338.835 258.765 339.808 258.147C340.693 257.616 341.135 257.881 341.401 258.323" fill="#3913B8"/>
<path d="M340.607 253.905C340.342 253.463 340.253 253.02 341.227 252.402C342.112 251.871 342.554 252.136 342.82 252.578" fill="#3913B8"/>
<path d="M341.76 255.053C341.494 254.611 341.405 254.169 342.379 253.55C343.264 253.02 343.706 253.285 343.972 253.727" fill="#3913B8"/>
<path d="M342.908 256.115C342.643 255.673 342.554 255.231 343.528 254.612C344.413 254.082 344.855 254.347 345.121 254.789" fill="#3913B8"/>
<path d="M344.055 257.264C343.79 256.822 343.702 256.38 344.675 255.761C345.56 255.23 346.002 255.496 346.268 255.938" fill="#3913B8"/>
<path d="M345.381 251.517C345.116 251.075 345.027 250.633 346.001 250.015C346.886 249.484 347.328 249.749 347.593 250.191" fill="#3913B8"/>
<path d="M346.537 252.666C346.271 252.224 346.183 251.782 347.156 251.163C348.041 250.633 348.484 250.897 348.749 251.339" fill="#3913B8"/>
<path d="M347.686 253.727C347.42 253.285 347.332 252.843 348.305 252.224C349.19 251.694 349.632 251.959 349.898 252.401" fill="#3913B8"/>
<path d="M348.83 254.877C348.564 254.435 348.476 253.993 349.449 253.374C350.334 252.843 350.777 253.108 351.042 253.55" fill="#3913B8"/>
<path d="M350.252 249.13C349.986 248.688 349.898 248.246 350.871 247.627C351.756 247.097 352.198 247.362 352.464 247.804" fill="#3913B8"/>
<path d="M351.314 250.28C351.048 249.838 350.961 249.396 351.933 248.777C352.818 248.246 353.261 248.511 353.526 248.953" fill="#3913B8"/>
<path d="M352.464 251.341C352.198 250.899 352.109 250.456 353.083 249.838C353.968 249.307 354.41 249.572 354.676 250.014" fill="#3913B8"/>
<path d="M353.619 252.49C353.353 252.048 353.265 251.606 354.238 250.987C355.123 250.456 355.566 250.722 355.831 251.164" fill="#3913B8"/>
<path d="M285.832 289.618L226.102 298.901L225.837 296.956C225.483 294.834 226.987 292.801 229.111 292.447L281.054 284.402C283.178 284.049 285.213 285.552 285.568 287.673L285.832 289.618Z" fill="#3913B8"/>
<path d="M196.813 398.974L101.067 385.094C98.5902 385.094 96.5547 383.238 96.5547 381.028V361.136C96.5547 355.302 101.775 350.528 108.236 350.528H193.805C206.459 350.528 216.635 359.81 216.635 371.214V381.028C216.547 383.238 199.291 398.974 196.813 398.974Z" fill="#B5CDFB"/>
<path d="M112.835 205.369L130.445 368.475L89.12 371.658L85.5807 242.499L72.2188 214.475L97.3499 201.479L112.835 205.369Z" fill="#B5CDFB"/>
<path d="M48.7695 173.897C48.7695 173.897 76.3783 157.808 88.6785 161.786C100.979 165.764 106.288 169.655 109.12 181.854L112.836 205.37L81.5107 216.067L51.8667 180.175L48.7695 173.897Z" fill="#9F8AFF"/>
<path d="M82.6617 371.48C86.0244 341.334 84.52 311.011 78.4142 281.396C71.9545 250.189 60.3623 219.867 43.8147 191.754C39.6557 184.681 43.8147 175.576 51.9558 174.161C52.0443 174.161 52.1328 174.161 52.2213 174.073C57.1767 173.189 62.0436 175.576 64.5213 179.908C81.5113 210.407 92.7493 243.736 97.7932 278.036C102.13 307.564 101.952 337.975 97.0859 368.032C95.7585 376.342 81.7768 379.347 82.6617 371.48Z" fill="#B5CDFB"/>
<path d="M81.5127 216.065L61.1601 226.055C56.2046 214.297 50.4528 202.805 43.9045 191.665C39.7456 184.594 43.9045 175.487 52.0456 174.073C52.1341 174.073 52.2226 174.073 52.3111 174.073C57.178 173.189 62.1335 175.576 64.6112 179.908C71.071 191.577 76.7343 203.6 81.5127 216.065Z" fill="#9F8AFF"/>
<path d="M197.164 398.975H85.3128C83.0119 398.975 81.2422 397.118 81.2422 394.908V375.017C81.2422 369.182 86.0206 364.409 91.8606 364.409H180.527C191.943 364.409 201.234 373.691 201.234 385.095V394.908C201.323 397.118 199.464 398.975 197.164 398.975Z" fill="#B5CDFB"/>
<path opacity="0.4" d="M97.6491 364.408H180.532C191.947 364.408 201.239 373.691 201.239 385.095V394.907C201.327 397.118 199.469 398.974 197.168 398.974H85.3171C83.0163 398.974 81.2465 397.118 81.2465 394.907V375.016C81.2465 372.944 81.8498 371.004 82.8896 369.365C85.9515 339.917 84.3772 310.319 78.4142 281.396C71.9545 250.189 60.3623 219.867 43.8147 191.754C39.6557 184.681 43.8147 175.576 51.9558 174.161C52.0443 174.161 52.1328 174.161 52.2213 174.073C57.1767 173.189 62.0436 175.576 64.5213 179.908C81.5113 210.407 92.7493 243.736 97.7932 278.036C101.956 306.377 101.959 335.533 97.6491 364.408Z" fill="white"/>
<path d="M95.2159 485.876C95.0391 485.876 94.8623 485.699 94.7734 485.523C94.6854 485.257 94.8622 485.081 95.1279 484.992C102.295 483.666 108.047 480.572 111.853 476.063C113.534 474.119 116.276 470.229 116.012 468.283C114.153 469.875 112.117 471.201 111.145 470.493C110.79 470.317 110.613 469.875 110.525 469.345C110.436 468.549 110.613 467.665 111.056 467.135C111.587 466.427 112.649 466.073 113.799 466.073C114.772 466.073 115.657 466.427 116.188 466.869C116.897 466.251 117.604 465.543 118.312 464.747C121.32 461.565 129.285 453.166 126.542 444.149C125.568 440.878 123.356 437.961 120.79 435.928C120.171 436.458 119.551 436.9 118.754 437.254C115.657 438.757 111.587 438.58 109.551 437.696C108.843 437.342 108.49 436.988 108.401 436.546C108.313 436.193 108.401 435.751 108.667 435.309C109.375 434.16 111.321 433.01 113.002 432.657C115.391 432.126 118.224 433.099 120.701 434.867C125.214 430.447 125.302 421.606 125.302 420.456C125.214 409.848 117.869 402.334 114.684 399.594C114.507 399.416 114.507 399.152 114.595 398.974C114.684 398.798 115.038 398.798 115.215 398.886C118.489 401.715 126.099 409.406 126.099 420.456C126.099 422.313 125.922 430.889 121.32 435.397C123.975 437.519 126.276 440.613 127.249 443.972C130.082 453.52 121.852 462.096 118.754 465.367C118.135 466.073 117.339 466.869 116.542 467.577C117.604 470.051 113.622 475.003 112.383 476.505C108.579 481.279 102.561 484.462 95.2159 485.876ZM113.622 467.046C112.738 467.046 112.029 467.311 111.675 467.753C111.41 468.107 111.232 468.725 111.321 469.256C111.321 469.521 111.498 469.698 111.587 469.787C112.117 470.14 113.622 469.167 115.569 467.577C115.127 467.223 114.507 467.046 113.799 467.046C113.622 467.046 113.622 467.046 113.622 467.046ZM114.419 433.541C113.976 433.541 113.622 433.541 113.18 433.629C111.498 433.983 109.905 435.044 109.375 435.928C109.198 436.104 109.198 436.37 109.198 436.458C109.198 436.635 109.463 436.812 109.905 437.077C111.498 437.872 115.391 438.138 118.401 436.723C119.02 436.458 119.551 436.104 120.082 435.662C118.224 434.248 116.188 433.541 114.419 433.541Z" fill="#3913B8"/>
<path d="M185.358 485.876C185.269 485.876 185.269 485.876 185.358 485.876C177.925 484.462 171.996 481.279 168.102 476.682C166.775 475.179 162.881 470.229 163.943 467.753C163.147 466.958 162.351 466.162 161.731 465.543C158.633 462.272 150.404 453.609 153.236 444.15C154.21 440.79 156.51 437.696 159.165 435.574C154.652 430.977 154.386 422.49 154.386 420.634C154.474 409.672 161.996 401.892 165.27 399.063C165.447 398.886 165.713 398.886 165.89 399.152C166.067 399.417 166.067 399.594 165.802 399.77C162.616 402.511 155.271 410.025 155.183 420.634C155.183 421.783 155.271 430.623 159.784 435.044C162.262 433.275 165.094 432.391 167.483 432.833C169.253 433.188 171.111 434.336 171.818 435.486C172.084 435.928 172.173 436.37 172.084 436.724C171.996 437.166 171.554 437.608 170.934 437.872C168.899 438.845 164.74 438.934 161.731 437.43C161.023 437.077 160.315 436.635 159.696 436.104C157.129 438.138 154.917 441.055 153.944 444.326C151.289 453.344 159.165 461.742 162.173 464.925C162.881 465.72 163.589 466.427 164.297 467.046C164.828 466.516 165.713 466.251 166.687 466.251C167.837 466.251 168.899 466.604 169.429 467.311C169.872 467.93 170.049 468.726 169.961 469.521C169.872 470.052 169.606 470.406 169.341 470.671C168.28 471.378 166.332 470.052 164.474 468.461C164.12 470.317 166.952 474.207 168.633 476.24C172.439 480.66 178.19 483.755 185.358 485.169C185.624 485.257 185.712 485.434 185.712 485.699C185.712 485.788 185.535 485.876 185.358 485.876ZM165.094 467.577C167.04 469.256 168.544 470.14 169.076 469.787C169.165 469.698 169.253 469.521 169.341 469.256C169.429 468.726 169.253 468.107 168.987 467.753C168.633 467.311 167.837 466.958 166.952 467.046C166.155 467.046 165.447 467.223 165.094 467.577ZM160.492 435.574C161.023 436.016 161.554 436.37 162.173 436.635C165.182 438.05 168.987 437.785 170.669 436.988C171.111 436.812 171.376 436.546 171.376 436.37C171.376 436.282 171.376 436.016 171.199 435.84C170.669 435.044 169.076 433.894 167.395 433.541C165.182 433.188 162.704 433.983 160.492 435.574Z" fill="#3913B8"/>
<path d="M83.9874 383.593C83.8989 383.593 83.722 383.593 83.6335 383.504C83.4565 383.327 83.4565 383.062 83.6335 382.885L95.4026 371.128C95.5794 370.95 95.8451 370.95 96.0219 371.128C96.1987 371.304 96.1987 371.57 96.0219 371.746L84.2529 383.504C84.2529 383.593 84.0759 383.593 83.9874 383.593Z" fill="#3913B8"/>
<path d="M166.991 401.538C166.903 401.538 166.726 401.538 166.637 401.449C166.46 401.272 166.46 401.007 166.637 400.83L178.407 389.073C178.583 388.896 178.849 388.896 179.026 389.073C179.203 389.25 179.203 389.515 179.026 389.692L167.256 401.361C167.168 401.449 167.079 401.538 166.991 401.538Z" fill="#3913B8"/>
<path d="M159.201 401.538C159.113 401.538 158.936 401.538 158.847 401.449C158.671 401.272 158.671 401.007 158.847 400.83L170.616 389.073C170.793 388.896 171.059 388.896 171.236 389.073C171.413 389.25 171.413 389.515 171.236 389.692L159.467 401.449C159.467 401.449 159.378 401.538 159.201 401.538Z" fill="#3913B8"/>
<path d="M143.803 401.538C143.714 401.538 143.538 401.538 143.45 401.449C143.272 401.272 143.272 401.007 143.45 400.83L155.218 389.073C155.395 388.896 155.661 388.896 155.838 389.073C156.015 389.25 156.015 389.515 155.838 389.692L144.069 401.449C143.98 401.449 143.892 401.538 143.803 401.538Z" fill="#3913B8"/>
<path d="M136.022 401.538C135.933 401.538 135.756 401.538 135.668 401.449C135.491 401.272 135.491 401.007 135.668 400.83L147.437 389.073C147.614 388.896 147.88 388.896 148.057 389.073C148.233 389.25 148.233 389.515 148.057 389.692L136.288 401.449C136.288 401.449 136.11 401.538 136.022 401.538Z" fill="#3913B8"/>
<path d="M128.319 401.538C128.23 401.538 128.053 401.538 127.965 401.449C127.788 401.272 127.788 401.007 127.965 400.83L139.734 389.073C139.911 388.896 140.177 388.896 140.354 389.073C140.53 389.25 140.53 389.515 140.354 389.692L128.584 401.449C128.496 401.449 128.407 401.538 128.319 401.538Z" fill="#3913B8"/>
<path d="M120.623 401.538C120.535 401.538 120.358 401.538 120.269 401.449C120.093 401.272 120.093 401.007 120.269 400.83L132.038 389.073C132.216 388.896 132.481 388.896 132.658 389.073C132.835 389.25 132.835 389.515 132.658 389.692L120.889 401.449C120.801 401.449 120.712 401.538 120.623 401.538Z" fill="#3913B8"/>
<path d="M112.834 401.538C112.746 401.538 112.568 401.538 112.48 401.449C112.303 401.272 112.303 401.007 112.48 400.83L124.249 389.073C124.426 388.896 124.692 388.896 124.868 389.073C125.045 389.25 125.045 389.515 124.868 389.692L113.1 401.449C113.1 401.449 112.923 401.538 112.834 401.538Z" fill="#3913B8"/>
<path d="M105.136 401.538C105.047 401.538 104.87 401.538 104.782 401.449C104.604 401.272 104.604 401.007 104.782 400.83L116.551 389.073C116.728 388.896 116.993 388.896 117.17 389.073C117.347 389.25 117.347 389.515 117.17 389.692L105.401 401.449C105.312 401.449 105.224 401.538 105.136 401.538Z" fill="#3913B8"/>
<path d="M97.3465 401.538C97.2576 401.538 97.0808 401.538 96.992 401.449C96.8152 401.272 96.8152 401.007 96.992 400.83L108.762 389.073C108.938 388.896 109.204 388.896 109.381 389.073C109.558 389.25 109.558 389.515 109.381 389.692L97.6121 401.449C97.6121 401.449 97.5233 401.538 97.3465 401.538Z" fill="#3913B8"/>
<path d="M89.6512 401.538C89.5623 401.538 89.3855 401.538 89.2967 401.449C89.1199 401.272 89.1199 401.007 89.2967 400.83L101.066 389.073C101.243 388.896 101.509 388.896 101.686 389.073C101.862 389.25 101.862 389.515 101.686 389.692L89.9168 401.449C89.9168 401.449 89.7391 401.538 89.6512 401.538Z" fill="#3913B8"/>
<path d="M85.2254 387.924C85.1369 387.924 84.96 387.924 84.8715 387.835C84.6945 387.658 84.6945 387.394 84.8715 387.216L96.6408 375.459C96.8176 375.282 97.0832 375.282 97.26 375.459C97.4368 375.636 97.4368 375.901 97.26 376.078L85.4909 387.835C85.4024 387.924 85.3139 387.924 85.2254 387.924Z" fill="#3913B8"/>
<path d="M83.9874 395.086C83.8989 395.086 83.722 395.086 83.6335 394.997C83.4565 394.82 83.4565 394.555 83.6335 394.378L95.4026 382.62C95.5794 382.443 95.8451 382.443 96.0219 382.62C96.1987 382.797 96.1987 383.062 96.0219 383.239L84.2529 394.997C84.2529 394.997 84.0759 395.086 83.9874 395.086Z" fill="#3913B8"/>
<path d="M85.2254 399.417C85.1369 399.417 84.96 399.417 84.8715 399.328C84.6945 399.151 84.6945 398.886 84.8715 398.709L96.6408 386.952C96.8176 386.775 97.0832 386.775 97.26 386.952C97.4368 387.129 97.4368 387.394 97.26 387.571L85.4909 399.328C85.4024 399.328 85.3139 399.417 85.2254 399.417Z" fill="#3913B8"/>
<path d="M151.631 401.384C151.543 401.384 151.365 401.384 151.277 401.296C151.1 401.119 151.1 400.854 151.277 400.677L163.046 388.919C163.223 388.743 163.488 388.743 163.665 388.919C163.843 389.096 163.843 389.361 163.665 389.538L151.896 401.296C151.808 401.296 151.72 401.384 151.631 401.384Z" fill="#3913B8"/>
<path d="M57.5324 228.267C57.3555 228.267 57.1785 228.178 57.1785 228.001C57.09 227.825 57.1785 227.559 57.3554 227.383L84.5218 214.122C84.6988 214.034 84.9643 214.122 85.1413 214.298C85.2298 214.476 85.1413 214.74 84.9643 214.918L57.7979 228.178C57.6209 228.178 57.6209 228.267 57.5324 228.267Z" fill="#3913B8"/>
<path d="M74.6974 200.33C74.5205 200.33 74.3435 200.242 74.255 200.065C71.1579 193.258 67.7067 186.539 64.0786 179.997C61.7779 175.842 56.9995 173.544 52.221 174.428C52.1325 174.428 52.0441 174.428 51.9556 174.516C48.239 175.135 45.2303 177.522 43.6375 180.881C42.0447 184.329 42.2217 188.13 44.1684 191.401C44.2569 191.578 44.2569 191.843 43.9914 192.02C43.8144 192.109 43.5491 192.109 43.3721 191.843C41.3367 188.307 41.0713 184.152 42.8411 180.528C44.5224 176.815 47.7965 174.339 51.8671 173.632C51.9556 173.632 52.0441 173.632 52.1326 173.632C57.265 172.748 62.3974 175.224 64.8751 179.644C68.5032 186.186 71.9542 192.904 75.0513 199.711C75.1398 199.977 75.0513 200.153 74.8744 200.33C74.8744 200.33 74.7859 200.33 74.6974 200.33Z" fill="#3913B8"/>
<path d="M262.911 209.967C262.911 209.967 281.582 196.529 287.157 193.435C292.82 190.429 307.156 189.28 317.509 192.463C319.456 193.081 311.757 197.502 309.722 197.766C309.722 197.766 341.933 196.706 341.667 200.242C341.49 203.778 335.649 205.988 327.242 207.138C318.837 208.286 298.218 211.293 287.599 209.967C281.405 215.624 267.513 231.537 267.513 231.537L256.805 216.508L262.911 209.967Z" fill="#F8BCBF"/>
<path d="M203.536 277.949C203.536 277.949 227.694 266.456 235.746 268.666C239.109 269.55 244.507 270.7 249.374 273.971C256.099 278.48 257.072 284.58 254.153 286.082C251.851 287.232 240.525 284.049 240.525 284.049C240.525 284.049 235.658 286.436 231.676 289.619C228.667 292.005 213.27 293.243 213.27 293.243C197.43 277.86 203.536 277.949 203.536 277.949Z" fill="#F8BCBF"/>
<path d="M225.925 256.644C223.27 256.644 220.616 256.202 218.049 255.318L156.549 234.543C148.23 231.802 158.938 227.117 161.681 218.807C164.425 210.497 148.496 194.142 156.814 196.883L224.42 224.023L263.356 202.099C270.435 196.971 289.195 222.52 282.116 227.647L239.994 251.87C235.924 255.052 230.969 256.644 225.925 256.644Z" fill="#3913B8"/>
<path d="M190.441 126.512C191.769 125.716 200.971 117.936 199.91 115.108C199.202 113.163 194.955 113.87 194.246 111.66C193.715 110.069 195.663 108.389 196.901 106.532C200.707 101.229 198.405 88.5863 193.273 87.0836C174.16 81.5141 160.001 105.206 160.001 105.206C161.771 101.759 161.771 98.3111 160.001 96.6317C157.701 94.4215 153.01 96.3663 152.391 96.6317C144.073 100.079 142.48 111.307 139.648 110.865C137.879 110.511 138.409 106.268 135.755 105.206C133.365 104.234 129.295 106.179 128.144 109.097C126.375 113.605 132.392 118.378 130.799 120.854C130.003 122.091 127.348 122.711 120.003 120.589C116.199 136.413 123.277 151.354 125.313 156.923C126.994 161.785 129.384 168.415 134.605 169.388C138.409 170.096 143.453 167.708 144.869 163.995C146.905 158.779 140.445 154.624 140.976 145.873C141.153 142.071 143.099 141.806 144.161 140.038C156.284 139.065 182.035 131.816 190.441 126.512Z" fill="#3913B8"/>
<path d="M134.518 200.948C134.518 200.948 143.986 170.096 144.34 158.868C144.34 158.868 131.509 162.846 132.659 154.89C133.809 146.845 144.34 148.79 144.34 148.79C143.897 144.9 144.782 141.099 146.994 137.386C146.994 137.386 165.666 136.59 187.522 127.926L192.036 160.282L186.726 161.343C186.726 161.343 182.479 183.179 180.178 183.974C177.877 184.771 164.073 185.035 164.073 185.035L162.922 218.629C162.834 218.629 138.588 214.032 134.518 200.948Z" fill="#F8BCBF"/>
<path d="M137.085 188.307C131.599 195.291 76.8238 233.04 109.3 325.069H180.888C180.888 325.069 185.754 259.472 183.631 248.245C182.303 240.996 182.215 211.469 181.95 209.701C181.595 207.314 165.579 200.86 163.455 203.336L163.013 211.646C148.324 205.899 137.881 187.423 137.085 188.307Z" fill="#3913B8"/>
<path d="M151.862 318.882C151.508 318.882 151.154 318.882 150.8 318.882C146.464 318.705 138.5 316.671 134.518 305.002C133.722 302.527 132.837 299.255 131.952 295.1C130.624 288.824 129.031 280.161 127.35 269.375C124.519 251.341 122.306 233.66 122.218 232.953C121.156 224.289 127.261 216.333 135.934 215.271C144.605 214.211 152.57 220.31 153.632 228.974C155.933 247.362 159.826 273.796 162.304 287.321C173.188 282.37 190.089 277.42 203.717 270.613C211.592 266.723 225.662 295.1 217.787 298.991C165.755 324.893 156.109 318.882 151.862 318.882Z" fill="#3913B8"/>
<path d="M151.862 318.882C151.508 318.882 151.154 318.882 150.8 318.882C146.464 318.705 138.5 316.671 134.518 305.002C133.722 302.527 132.837 299.255 131.952 295.1C130.624 288.824 129.031 280.161 127.35 269.375C124.519 251.341 122.306 233.66 122.218 232.953C121.156 224.289 127.261 216.333 135.934 215.271C144.605 214.211 152.57 220.31 153.632 228.974C155.933 247.362 159.826 273.796 162.304 287.321C173.188 282.37 190.089 277.42 203.717 270.613C211.592 266.723 225.662 295.1 217.787 298.991C165.755 324.893 156.109 318.882 151.862 318.882Z" fill="black" fill-opacity="0.28"/>
<path d="M162.303 294.393C162.037 294.393 161.86 294.127 161.86 293.862C162.745 286.967 153.453 229.415 150.179 221.371C148.675 217.658 141.596 217.392 135.932 217.746C129.65 218.188 123.721 219.603 123.632 219.603C123.367 219.691 123.19 219.514 123.101 219.248C123.013 218.984 123.19 218.806 123.456 218.719C124.428 218.453 147.79 213.061 151.064 221.017C154.073 228.442 163.807 285.905 162.745 293.951C162.745 294.304 162.479 294.393 162.303 294.393Z" fill="#060606"/>
<path d="M156.818 291.386C156.641 291.386 156.553 291.298 156.464 291.21C156.375 291.033 156.375 290.768 156.641 290.591C156.73 290.502 170.091 282.546 197.17 272.556C197.434 272.468 197.612 272.556 197.7 272.822C197.789 273.086 197.7 273.264 197.434 273.352C170.445 283.342 157.26 291.298 157.083 291.386C156.995 291.298 156.906 291.386 156.818 291.386Z" fill="#060606"/>
<path d="M150.445 321.091C141.685 321.091 134.163 307.742 128.146 281.486C123.633 261.772 121.597 241.704 121.597 241.439C121.597 241.174 121.775 240.997 121.952 240.997C122.217 240.997 122.394 241.174 122.394 241.351C122.482 242.146 130.359 321.091 150.622 320.207C175.488 319.058 213.45 297.664 213.893 297.399C214.069 297.311 214.335 297.311 214.512 297.576C214.689 297.841 214.601 298.017 214.335 298.195C213.981 298.371 175.754 319.942 150.711 321.091C150.711 321.091 150.534 321.091 150.445 321.091Z" fill="#060606"/>
<path d="M175.667 255.849L174.782 253.904C174.162 252.578 173.189 250.456 172.304 250.368C171.861 250.368 171.419 250.898 170.888 251.87L170.357 253.02L170.091 251.783C169.649 249.749 169.738 247.715 169.738 245.771C169.738 245.24 169.738 244.71 169.738 244.179C169.738 243.914 169.915 243.737 170.18 243.737C170.446 243.737 170.623 243.914 170.623 244.179C170.623 244.71 170.623 245.24 170.623 245.771C170.623 247.362 170.623 248.953 170.799 250.456C171.331 249.837 171.773 249.484 172.393 249.572C173.543 249.572 174.428 250.986 175.135 252.401C175.313 251.517 175.667 250.898 176.109 250.544C176.905 249.926 177.967 250.279 178.941 250.544C180.268 250.986 181.064 251.163 181.595 250.191C181.684 250.014 181.949 249.926 182.215 250.014C182.391 250.102 182.48 250.368 182.391 250.633C181.507 252.312 179.914 251.783 178.675 251.428C177.879 251.163 177.083 250.898 176.552 251.252C176.109 251.605 175.843 252.489 175.755 253.992L175.667 255.849Z" fill="#B5CDFB"/>
<path d="M118.41 291.475C118.234 291.475 117.968 291.299 117.968 291.122C117.702 289.53 116.641 287.85 115.667 286.347C115.224 285.641 114.783 285.021 114.428 284.403C114.34 284.226 114.428 283.961 114.605 283.784C114.783 283.695 115.048 283.784 115.224 283.961C115.579 284.579 115.932 285.199 116.375 285.817C117.437 287.408 118.587 289.176 118.853 290.944C118.942 291.21 118.764 291.475 118.41 291.475C118.499 291.475 118.499 291.475 118.41 291.475Z" fill="#9F8AFF"/>
<path d="M123.901 288.735C123.724 288.735 123.458 288.559 123.458 288.381C123.193 285.994 121.865 283.607 119.742 281.486C119.565 281.309 119.565 281.044 119.742 280.867C119.919 280.69 120.184 280.69 120.361 280.867C122.574 283.077 123.989 285.729 124.343 288.293C124.431 288.47 124.255 288.735 123.901 288.735C123.989 288.735 123.989 288.735 123.901 288.735Z" fill="#9F8AFF"/>
<path d="M179.209 169.566C179.209 169.566 176.997 176.55 172.395 176.196C169.121 175.931 168.325 170.361 168.148 170.184L179.209 169.566Z" fill="white"/>
<path d="M170.09 154.271C171.068 154.271 171.86 153.48 171.86 152.503C171.86 151.526 171.068 150.735 170.09 150.735C169.113 150.735 168.32 151.526 168.32 152.503C168.32 153.48 169.113 154.271 170.09 154.271Z" fill="#464646"/>
<path d="M188.676 149.497C189.653 149.497 190.446 148.706 190.446 147.729C190.446 146.753 189.653 145.962 188.676 145.962C187.699 145.962 186.906 146.753 186.906 147.729C186.906 148.706 187.699 149.497 188.676 149.497Z" fill="#464646"/>
<path d="M163.543 150.382C163.277 150.382 163.011 150.294 162.835 150.028C162.481 149.674 162.569 149.055 162.923 148.79L172.037 141.099C172.391 140.746 173.011 140.834 173.276 141.188C173.63 141.541 173.542 142.16 173.188 142.425L164.073 150.116C163.985 150.294 163.808 150.382 163.543 150.382Z" fill="#464646"/>
<path d="M195.4 145.962C195.312 145.962 195.223 145.962 195.134 145.962L185.312 143.133C184.87 142.956 184.604 142.514 184.693 142.072C184.87 141.63 185.312 141.365 185.755 141.453L195.577 144.282C196.019 144.459 196.285 144.901 196.196 145.343C196.108 145.697 195.754 145.962 195.4 145.962Z" fill="#464646"/>
<path d="M161.861 146.492C161.419 146.492 160.976 146.139 160.976 145.697C160.976 145.166 161.331 144.813 161.773 144.724L171.772 144.105C172.214 144.105 172.657 144.459 172.746 144.901C172.746 145.431 172.391 145.786 171.949 145.873L161.861 146.492C161.95 146.492 161.95 146.492 161.861 146.492Z" fill="#464646"/>
<path d="M180.711 163.377C180.534 163.377 180.358 163.201 180.269 163.023C180.18 162.759 180.358 162.581 180.622 162.493L190.445 160.46C190.71 160.371 190.888 160.548 190.976 160.813C191.065 161.078 190.888 161.255 190.622 161.344L180.799 163.377C180.711 163.377 180.711 163.377 180.711 163.377Z" fill="#464646"/>
<path d="M138.856 155.862C138.768 155.862 138.68 155.862 138.591 155.774C138.414 155.597 138.326 155.332 138.503 155.155C138.591 155.066 139.918 153.299 143.015 153.918C143.281 154.006 143.37 154.183 143.37 154.448C143.281 154.713 143.104 154.802 142.839 154.802C140.361 154.271 139.299 155.597 139.299 155.686C139.122 155.862 138.945 155.862 138.856 155.862Z" fill="#464646"/>
<path d="M141.953 157.366C141.687 157.366 141.51 157.101 141.51 156.835C141.598 155.863 139.74 154.095 138.501 153.211C138.324 153.034 138.236 152.769 138.413 152.592C138.59 152.415 138.855 152.327 139.032 152.504C139.386 152.769 142.572 155.156 142.395 156.924C142.395 157.189 142.217 157.366 141.953 157.366Z" fill="#464646"/>
<path d="M153.985 134.115L150.534 152.15C150.534 152.15 142.393 148.879 138.853 148.614C133.101 144.724 144.163 131.463 144.163 131.463L153.985 134.115Z" fill="#3913B8"/>
<path d="M181.062 118.027L180.266 117.673C180.885 116.347 182.213 115.639 183.363 115.02C183.717 114.844 184.159 114.578 184.513 114.402C189.203 111.308 195.309 106.976 200.442 101.495C204.158 97.6053 207.343 93.4504 206.194 86.3778C206.016 85.4053 205.574 84.8748 204.689 84.6096C200.619 83.4604 190.177 89.7375 187.257 93.0962L186.549 92.5663C189.646 88.9413 200.265 82.4879 204.866 83.814C206.105 84.1677 206.813 85.0516 207.079 86.2891C208.317 93.7149 204.954 98.0474 201.15 102.114C195.928 107.683 189.823 112.015 185.044 115.197C184.691 115.463 184.248 115.639 183.894 115.905C182.743 116.347 181.594 116.965 181.062 118.027Z" fill="#9F8AFF"/>
<path d="M253.092 276.269C253.004 276.269 253.092 276.269 253.092 276.269C252.207 276.004 250.88 275.562 249.287 275.031C245.925 273.794 241.234 272.114 239.022 272.114C238.845 272.114 238.668 271.937 238.668 271.761C238.668 271.584 238.845 271.406 239.022 271.406C241.411 271.406 245.925 272.998 249.552 274.324C251.057 274.855 252.384 275.385 253.181 275.562C253.358 275.65 253.446 275.827 253.446 276.004C253.358 276.181 253.269 276.269 253.092 276.269Z" fill="#3913B8"/>
<path d="M256.987 282.192C256.898 282.192 256.898 282.192 256.987 282.192C256.102 281.928 254.951 281.486 253.624 280.955C250.527 279.718 246.191 277.949 242.917 277.949C242.74 277.949 242.562 277.773 242.562 277.595C242.562 277.419 242.74 277.242 242.917 277.242C246.368 277.242 250.704 279.01 253.89 280.248C255.217 280.778 256.279 281.22 257.075 281.397C257.253 281.486 257.341 281.662 257.341 281.839C257.253 282.104 257.075 282.192 256.987 282.192Z" fill="#3913B8"/>
<path d="M186.637 326.836C186.637 326.836 264.331 321.886 268.49 331.433C272.649 340.982 272.674 434.972 272.674 434.972L250.178 441.319L241.058 346.905L186.637 326.836Z" fill="#9F8AFF"/>
<path d="M186.637 326.836C186.637 326.836 264.331 321.886 268.49 331.433C272.649 340.982 272.674 434.972 272.674 434.972L250.178 441.319L241.058 346.905L186.637 326.836Z" fill="white" fill-opacity="0.43"/>
<path d="M272.65 434.247C272.65 434.247 272.65 437.96 272.65 439.463C272.65 442.911 272.65 444.856 272.65 444.856L249.732 442.618L249.289 433.982L272.65 434.247Z" fill="#F9C5C8"/>
<path d="M272.65 441.232V455.553L297.692 466.427C299.816 467.311 299.108 470.405 296.896 470.405L251.412 470.14L249.731 441.409L272.65 441.232Z" fill="#F2F1F8"/>
<path d="M307.426 480.925H235.572C234.068 480.925 232.917 479.777 232.917 478.273C232.917 476.77 234.068 475.622 235.572 475.622H307.426C308.93 475.622 310.081 476.77 310.081 478.273C310.081 479.777 308.841 480.925 307.426 480.925Z" fill="#3913B8"/>
<path d="M262.914 476.505L278.576 456.968C278.576 456.968 300.434 465.278 307.07 470.406C310.433 473.058 308.397 478.45 304.15 478.273L262.914 476.505Z" fill="#3913B8"/>
<path fill-rule="evenodd" clip-rule="evenodd" d="M308.311 475.763C309.359 476.114 310.081 477.083 310.081 478.273C310.081 479.776 308.841 480.925 307.426 480.925H235.572C234.068 480.925 232.917 479.776 232.917 478.273C232.917 476.77 234.068 475.621 235.572 475.621H263.623L278.577 456.968C278.577 456.968 300.433 465.278 307.07 470.406C308.877 471.83 309.125 474.044 308.311 475.763Z" fill="white" fill-opacity="0.19"/>
<path d="M109.297 325.068V343.367C109.297 353.976 117.969 362.64 128.588 362.64H211.149C215.573 362.64 219.113 366.175 219.113 370.596V475.974C219.113 478.891 221.414 481.19 224.334 481.19H282.914C285.126 481.19 293.533 478.361 291.763 477.035L250.438 455.287L248.491 351.589C248.315 340.096 239.465 330.637 228.05 329.576L180.885 325.156H109.297V325.068Z" fill="#9F8AFF"/>
<path d="M250.442 441.232H219.117V446.359H250.442V441.232Z" fill="#F8B8BB"/>
<path d="M219.117 446.36V475.975C219.117 478.892 221.417 481.191 224.338 481.191H282.918C285.13 481.191 293.537 478.362 291.767 477.036L250.442 455.288V446.36H219.117Z" fill="white"/>
<path d="M250.44 441.674H219.114C218.85 441.674 218.672 441.496 218.672 441.232C218.672 440.966 218.85 440.79 219.114 440.79H250.44C250.706 440.79 250.883 440.966 250.883 441.232C250.883 441.496 250.706 441.674 250.44 441.674Z" fill="#3913B8"/>
<path d="M250.44 447.244H219.114C218.85 447.244 218.672 447.066 218.672 446.802C218.672 446.536 218.85 446.36 219.114 446.36H250.44C250.706 446.36 250.883 446.536 250.883 446.802C250.883 447.066 250.706 447.244 250.44 447.244Z" fill="#3913B8"/>
<path d="M272.738 434.513H250.439C250.174 434.513 249.997 434.336 249.997 434.071C249.997 433.805 250.174 433.629 250.439 433.629H272.65C272.915 433.629 273.092 433.805 273.092 434.071C273.092 434.336 272.915 434.513 272.738 434.513Z" fill="#3913B8"/>
<path d="M272.738 441.674H250.439C250.174 441.674 249.997 441.496 249.997 441.232C249.997 440.966 250.174 440.79 250.439 440.79H272.65C272.915 440.79 273.092 440.966 273.092 441.232C273.092 441.496 272.915 441.674 272.738 441.674Z" fill="#3913B8"/>
<path d="M292.032 485.698H220.178C218.674 485.698 217.523 484.549 217.523 483.046C217.523 481.543 218.674 480.394 220.178 480.394H292.032C293.536 480.394 294.687 481.543 294.687 483.046C294.687 484.549 293.448 485.698 292.032 485.698Z" fill="#3913B8"/>
<path d="M247.609 481.278L263.272 461.741C263.272 461.741 285.129 470.051 291.765 475.178C295.128 477.83 293.092 483.223 288.845 483.046L247.609 481.278Z" fill="#3913B8"/>
<path d="M142.833 347.434C142.302 347.434 141.772 347.346 141.24 347.257C137.435 346.462 137.613 341.776 137.701 338.328C137.701 337.798 137.701 337.268 137.701 336.826C137.701 336.56 137.877 336.384 138.143 336.384C138.409 336.384 138.586 336.56 138.586 336.826C138.586 337.268 138.586 337.798 138.586 338.328C138.498 341.599 138.409 345.754 141.417 346.373C143.276 346.815 145.134 346.373 146.903 345.136C151.505 342.041 154.16 335.057 154.337 333.82C154.337 333.555 154.602 333.378 154.868 333.466C155.133 333.466 155.31 333.731 155.221 333.997C154.868 335.853 151.947 342.837 147.435 345.931C145.931 346.992 144.426 347.434 142.833 347.434Z" fill="#3913B8"/>
<path d="M232.651 423.905C232.385 423.905 232.208 423.728 232.208 423.463V361.314C232.208 354.507 226.722 349.026 219.908 349.026L153.099 347.081C152.833 347.081 152.656 346.905 152.656 346.639C152.656 346.375 152.921 346.197 153.099 346.197L219.908 348.142C227.164 348.142 233.093 354.065 233.093 361.314V423.463C233.093 423.64 232.916 423.905 232.651 423.905Z" fill="#3913B8"/>
<path d="M226.28 462.007C226.104 462.007 225.927 461.918 225.838 461.741C225.75 461.476 225.838 461.299 226.104 461.211C226.812 460.946 228.228 460.504 229.378 460.857C229.643 460.946 229.732 461.211 229.643 461.388C229.555 461.653 229.29 461.741 229.113 461.653C228.493 461.476 227.52 461.565 226.458 462.007C226.369 462.007 226.28 462.007 226.28 462.007Z" fill="#3913B8"/>
<path d="M227.431 465.278C227.254 465.278 227.077 465.189 226.988 465.012C226.9 464.836 226.988 464.57 227.165 464.394L227.431 464.305C228.139 463.952 228.67 463.686 229.555 463.775C229.82 463.775 229.998 463.952 229.998 464.217C229.998 464.482 229.732 464.659 229.555 464.659C228.847 464.659 228.405 464.836 227.785 465.101L227.52 465.189C227.608 465.278 227.52 465.278 227.431 465.278Z" fill="#3913B8"/>
<path d="M246.012 456.79C245.834 456.79 245.657 456.702 245.569 456.525C245.481 456.26 245.569 456.083 245.834 455.906C246.012 455.818 246.189 455.73 246.366 455.641C246.719 455.464 247.074 455.288 247.604 455.111C247.959 455.022 248.312 455.022 248.667 455.022C249.197 455.022 249.64 455.022 249.993 454.757C250.171 454.58 250.436 454.669 250.613 454.846C250.79 455.022 250.701 455.288 250.525 455.464C249.905 455.906 249.197 455.906 248.667 455.906C248.401 455.906 248.047 455.906 247.782 455.995C247.427 456.083 247.162 456.26 246.808 456.437C246.631 456.525 246.454 456.614 246.189 456.702C246.1 456.79 246.012 456.79 246.012 456.79Z" fill="#3913B8"/>
<path d="M264.776 454.403C264.598 454.403 264.421 454.314 264.421 454.138C264.333 453.961 264.421 453.696 264.598 453.519C264.776 453.431 264.953 453.343 265.129 453.166C265.572 452.812 266.102 452.458 266.722 452.547C266.987 452.635 267.076 452.812 267.076 453.077C266.987 453.342 266.81 453.431 266.545 453.431C266.368 453.342 266.014 453.608 265.661 453.872C265.483 454.05 265.218 454.227 265.04 454.314C264.953 454.403 264.864 454.403 264.776 454.403Z" fill="#3913B8"/>
<path d="M265.301 456.349C265.213 456.349 265.125 456.349 265.037 456.26C264.859 456.084 264.771 455.818 264.948 455.642C265.301 455.111 266.098 454.492 266.718 454.227C266.983 454.139 267.16 454.315 267.249 454.492C267.337 454.758 267.16 454.934 266.983 455.023C266.541 455.2 265.922 455.73 265.656 456.084C265.656 456.26 265.479 456.349 265.301 456.349Z" fill="#3913B8"/>
<path d="M183.008 243.207C183.008 243.207 182.3 228.177 179.38 224.022C179.38 224.022 193.98 244.356 193.98 246.743L183.008 243.207Z" fill="black" fill-opacity="0.81"/>
<path d="M299.902 237.99C299.548 237.99 299.194 237.902 298.84 237.813C296.893 237.194 295.654 234.631 295.743 232.597C295.743 230.122 297.601 228.353 298.486 227.558C301.14 225.083 305.211 223.314 309.458 222.961C309.813 218.011 309.813 210.32 309.901 201.832C309.99 186.009 310.078 168.15 312.025 159.928L312.91 160.106C310.963 168.15 310.874 186.009 310.786 201.832C310.698 210.231 310.698 217.833 310.343 222.872C312.91 222.785 315.476 223.314 317.865 224.553C318.131 224.729 318.484 224.906 318.75 225.083C320.166 222.519 322.113 220.751 322.998 219.867C331.669 211.734 346.447 212.883 350.783 213.414L350.695 214.298C346.447 213.767 332.024 212.706 323.705 220.486C322.82 221.282 320.962 223.05 319.635 225.525C322.378 227.381 324.679 230.21 325.387 232.509C325.653 233.481 325.653 234.277 325.298 234.807C324.944 235.426 324.147 235.957 323.086 236.222C321.582 236.487 319.989 236.222 319.016 235.426C317.246 234.1 317.335 231.713 317.335 230.564C317.335 228.795 317.776 227.293 318.484 225.879C318.219 225.702 317.865 225.525 317.599 225.348C315.387 224.198 312.91 223.669 310.432 223.756C310.255 225.79 310.078 227.293 309.724 228.177C307.954 233.039 303.441 237.99 299.902 237.99ZM309.37 223.845C305.388 224.111 301.583 225.79 299.106 228.177C298.221 228.973 296.628 230.476 296.628 232.597C296.628 234.277 297.601 236.487 299.106 236.929C301.937 237.813 306.981 233.128 308.751 227.911C309.016 227.205 309.281 225.79 309.37 223.845ZM319.104 226.497C318.484 227.735 318.131 229.15 318.131 230.741C318.131 231.713 318.131 233.835 319.458 234.896C320.254 235.515 321.582 235.78 322.82 235.515C323.617 235.338 324.147 234.984 324.413 234.542C324.59 234.189 324.59 233.57 324.413 232.863C323.883 231.094 321.847 228.353 319.104 226.497Z" fill="#3913B8"/>
<path d="M313.529 173.278C306.361 173.278 300.61 167.444 300.61 160.371C300.61 153.299 306.45 147.465 313.529 147.465C320.609 147.465 326.449 153.299 326.449 160.371C326.449 167.444 320.609 173.278 313.529 173.278ZM313.529 148.26C306.892 148.26 301.495 153.652 301.495 160.283C301.495 166.913 306.892 172.306 313.529 172.306C320.166 172.306 325.564 166.913 325.564 160.283C325.564 153.652 320.166 148.26 313.529 148.26Z" fill="#3913B8"/>
<path d="M312.381 161.609C313.456 161.609 314.328 160.739 314.328 159.664C314.328 158.591 313.456 157.719 312.381 157.719C311.306 157.719 310.434 158.591 310.434 159.664C310.434 160.739 311.306 161.609 312.381 161.609Z" fill="#3913B8"/>
<path d="M465.475 109.643C466.163 105.6 464.493 101.945 461.747 101.478C459 101.012 456.216 103.913 455.53 107.956C454.842 111.999 456.511 115.655 459.258 116.121C462.004 116.587 464.788 113.686 465.475 109.643Z" fill="#B5CDFB"/>
<path d="M419.452 132.082C419.188 132.082 419.099 131.994 419.099 131.906C417.86 130.491 430.248 106.887 430.337 106.622C431.665 104.942 433.522 103.704 435.558 103.174L463.255 95.8363C466.175 95.041 469.272 95.6597 471.661 97.5166C474.051 99.3726 475.467 102.114 475.467 105.208V111.837C475.467 117.142 471.308 121.386 465.998 121.474L438.478 122.181C423.877 130.756 420.337 132.082 419.452 132.082ZM465.644 96.4559C464.936 96.4559 464.14 96.5438 463.343 96.7204L435.647 104.058C433.788 104.588 432.107 105.65 430.956 107.153C429.629 108.832 420.337 128.193 419.718 131.198C421.577 130.756 430.248 125.983 437.858 121.386L437.947 121.297H438.036L465.732 120.589C470.512 120.502 474.316 116.612 474.316 111.837V105.208C474.316 102.467 473.077 99.9034 470.865 98.2232C469.45 97.0746 467.591 96.4559 465.644 96.4559Z" fill="#3913B8"/>
<path d="M449.712 107.86L438.474 109.54C437.855 109.628 437.324 109.186 437.324 108.568C437.324 108.038 437.678 107.683 438.209 107.596L449.447 105.915C450.067 105.827 450.597 106.269 450.597 106.888C450.509 107.33 450.155 107.772 449.712 107.86Z" fill="#3913B8"/>
<path d="M449.712 113.694L438.474 115.374C437.855 115.462 437.324 115.02 437.324 114.402C437.324 113.871 437.678 113.518 438.209 113.429L449.447 111.749C450.067 111.661 450.597 112.103 450.597 112.721C450.509 113.163 450.155 113.605 449.712 113.694Z" fill="#3913B8"/>
</g>
<defs>
<clipPath id="clip0_941_2511">
<rect width="690" height="517" fill="white"/>
</clipPath>
</defs>
</svg>
